<svg width="526" height="719" xmlns="http://www.w3.org/2000/svg" xmlns:xlink="http://www.w3.org/1999/xlink" xml:space="preserve" overflow="hidden"><defs><clipPath id="clip0"><rect x="377" y="1" width="526" height="719"/></clipPath></defs><g clip-path="url(#clip0)" transform="translate(-377 -1)"><path d="M98.3136 356.176C98.3136 358.866 96.1332 361.046 93.4435 361.046 90.7538 361.046 88.5734 358.866 88.5734 356.176 88.5734 353.486 90.7538 351.306 93.4435 351.306 96.1332 351.306 98.3136 353.486 98.3136 356.176Z" stroke="#935690" stroke-width="0.846968" fill="#D27CCE" transform="matrix(1.00012 0 0 1 965.715 402.955)"/><path d="M-18.1426 346.435C-18.1426 349.125-20.323 351.305-23.0126 351.305-25.7023 351.305-27.8827 349.125-27.8827 346.435-27.8827 343.746-25.7023 341.565-23.0126 341.565-20.323 341.565-18.1426 343.746-18.1426 346.435Z" stroke="#935690" stroke-width="0.846968" fill="#D27CCE" transform="matrix(1.00012 0 0 1 965.715 402.955)"/><path d="M6.1252 401.928C6.1252 404.618 3.94479 406.799 1.25513 406.799-1.43453 406.799-3.61494 404.618-3.61494 401.928-3.61494 399.239-1.43453 397.058 1.25513 397.058 3.94479 397.058 6.1252 399.239 6.1252 401.928Z" stroke="#935690" stroke-width="0.846968" fill="#D27CCE" transform="matrix(1.00012 0 0 1 965.715 402.955)"/><path d="M55.5909 266.344C55.5909 269.033 53.4105 271.214 50.7208 271.214 48.0312 271.214 45.8508 269.033 45.8508 266.344 45.8508 263.654 48.0312 261.473 50.7208 261.473 53.4105 261.473 55.5909 263.654 55.5909 266.344Z" stroke="#487925" stroke-width="0.846968" fill="#68AD36" transform="matrix(1.00012 0 0 1 965.715 402.955)"/><path d="M210.922 235.989C210.922 238.679 208.741 240.859 206.051 240.859 203.362 240.859 201.181 238.679 201.181 235.989 201.181 233.3 203.362 231.119 206.051 231.119 208.741 231.119 210.922 233.3 210.922 235.989Z" stroke="#487925" stroke-width="0.846968" fill="#68AD36" transform="matrix(1.00012 0 0 1 965.715 402.955)"/><path d="M212.554 337.64C212.554 340.33 210.374 342.51 207.684 342.51 204.995 342.51 202.814 340.33 202.814 337.64 202.814 334.951 204.995 332.77 207.684 332.77 210.374 332.77 212.554 334.951 212.554 337.64Z" stroke="#B2512B" stroke-width="0.846968" fill="#FF743E" transform="matrix(1.00012 0 0 1 965.715 402.955)"/><path d="M14.5903 304.136C14.5903 306.826 12.4099 309.006 9.72019 309.006 7.03053 309.006 4.85012 306.826 4.85012 304.136 4.85012 301.446 7.03053 299.266 9.72019 299.266 12.4099 299.266 14.5903 301.446 14.5903 304.136Z" stroke="#487925" stroke-width="0.846968" fill="#68AD36" transform="matrix(1.00012 0 0 1 965.715 402.955)"/><path d="M132.069 397.986C132.069 400.676 129.889 402.856 127.199 402.856 124.509 402.856 122.329 400.676 122.329 397.986 122.329 395.296 124.509 393.116 127.199 393.116 129.889 393.116 132.069 395.296 132.069 397.986Z" stroke="#B2512B" stroke-width="0.846968" fill="#FF743E" transform="matrix(1.00012 0 0 1 965.715 402.955)"/><path d="M156.585 343.296C156.585 345.985 154.405 348.166 151.715 348.166 149.025 348.166 146.845 345.985 146.845 343.296 146.845 340.606 149.025 338.426 151.715 338.426 154.405 338.426 156.585 340.606 156.585 343.296Z" stroke="#487925" stroke-width="0.846968" fill="#68AD36" transform="matrix(1.00012 0 0 1 965.715 402.955)"/><path d="M35.4515 355.027C35.4515 357.717 33.271 359.898 30.5814 359.898 27.8917 359.898 25.7113 357.717 25.7113 355.027 25.7113 352.338 27.8917 350.157 30.5814 350.157 33.271 350.157 35.4515 352.338 35.4515 355.027Z" stroke="#B2512B" stroke-width="0.846968" fill="#FF743E" transform="matrix(1.00012 0 0 1 965.715 402.955)"/><path d="M105.437 248.515C105.437 251.205 103.257 253.385 100.567 253.385 97.8774 253.385 95.697 251.205 95.697 248.515 95.697 245.825 97.8774 243.645 100.567 243.645 103.257 243.645 105.437 245.825 105.437 248.515Z" stroke="#487925" stroke-width="0.846968" fill="#68AD36" transform="matrix(1.00012 0 0 1 965.715 402.955)"/><path d="M72.8743 311.986C72.8743 314.675 70.6939 316.856 68.0042 316.856 65.3146 316.856 63.1342 314.675 63.1342 311.986 63.1342 309.296 65.3146 307.116 68.0042 307.116 70.6939 307.116 72.8743 309.296 72.8743 311.986Z" stroke="#935690" stroke-width="0.846968" fill="#D27CCE" transform="matrix(1.00012 0 0 1 965.715 402.955)"/><path d="M191.719 394.43C191.719 397.12 189.538 399.3 186.849 399.3 184.159 399.3 181.979 397.12 181.979 394.43 181.979 391.741 184.159 389.56 186.849 389.56 189.538 389.56 191.719 391.741 191.719 394.43Z" stroke="#487925" stroke-width="0.846968" fill="#68AD36" transform="matrix(1.00012 0 0 1 965.715 402.955)"/><path d="M321.931 339.931C321.931 342.621 319.75 344.801 317.06 344.801 314.371 344.801 312.19 342.621 312.19 339.931 312.19 337.241 314.371 335.061 317.06 335.061 319.75 335.061 321.931 337.241 321.931 339.931Z" stroke="#487925" stroke-width="0.846968" fill="#68AD36" transform="matrix(1.00012 0 0 1 965.715 402.955)"/><path d="M182.422 287.73C182.422 290.419 180.242 292.6 177.552 292.6 174.863 292.6 172.682 290.419 172.682 287.73 172.682 285.04 174.863 282.86 177.552 282.86 180.242 282.86 182.422 285.04 182.422 287.73Z" stroke="#487925" stroke-width="0.846968" fill="#68AD36" transform="matrix(1.00012 0 0 1 965.715 402.955)"/><path d="M-63.8468 436.494C-63.8468 439.183-66.0272 441.364-68.7169 441.364-71.4066 441.364-73.587 439.183-73.587 436.494-73.587 433.804-71.4066 431.624-68.7169 431.624-66.0272 431.624-63.8468 433.804-63.8468 436.494Z" stroke="#B2512B" stroke-width="0.846968" fill="#FF743E" transform="matrix(1.00012 0 0 1 965.715 402.955)"/><path d="M238.56 284.501C238.56 287.191 236.379 289.371 233.69 289.371 231 289.371 228.82 287.191 228.82 284.501 228.82 281.811 231 279.631 233.69 279.631 236.379 279.631 238.56 281.811 238.56 284.501Z" stroke="#487925" stroke-width="0.846968" fill="#68AD36" transform="matrix(1.00012 0 0 1 965.715 402.955)"/><path d="M157.194 239.885C157.194 242.575 155.013 244.756 152.324 244.756 149.634 244.756 147.454 242.575 147.454 239.885 147.454 237.196 149.634 235.015 152.324 235.015 155.013 235.015 157.194 237.196 157.194 239.885Z" stroke="#487925" stroke-width="0.846968" fill="#68AD36" transform="matrix(1.00012 0 0 1 965.715 402.955)"/><path d="M100.014 445.234C100.014 447.924 97.8338 450.104 95.1441 450.104 92.4545 450.104 90.2741 447.924 90.2741 445.234 90.2741 442.544 92.4545 440.364 95.1441 440.364 97.8338 440.364 100.014 442.544 100.014 445.234Z" stroke="#487925" stroke-width="0.846968" fill="#68AD36" transform="matrix(1.00012 0 0 1 965.715 402.955)"/><path d="M161.995 446.325C161.995 449.015 159.815 451.195 157.125 451.195 154.435 451.195 152.255 449.015 152.255 446.325 152.255 443.636 154.435 441.455 157.125 441.455 159.815 441.455 161.995 443.635 161.995 446.325Z" stroke="#935690" stroke-width="0.846968" fill="#D27CCE" transform="matrix(1.00012 0 0 1 965.715 402.955)"/><path d="M126.756 296.372C126.756 299.061 124.575 301.242 121.886 301.242 119.196 301.242 117.015 299.061 117.015 296.372 117.015 293.682 119.196 291.502 121.886 291.502 124.575 291.502 126.756 293.682 126.756 296.372Z" stroke="#935690" stroke-width="0.846968" fill="#D27CCE" transform="matrix(1.00012 0 0 1 965.715 402.955)"/><path d="M293.723 285.218C293.723 287.908 291.542 290.088 288.852 290.088 286.163 290.088 283.982 287.908 283.982 285.218 283.982 282.529 286.163 280.348 288.852 280.348 291.542 280.348 293.723 282.529 293.723 285.218Z" stroke="#935690" stroke-width="0.846968" fill="#D27CCE" transform="matrix(1.00012 0 0 1 965.715 402.955)"/><path d="M43.5981 534.236C43.5981 536.926 41.4177 539.107 38.728 539.107 36.0384 539.107 33.858 536.926 33.858 534.236 33.858 531.547 36.0384 529.366 38.728 529.366 41.4177 529.366 43.5981 531.547 43.5981 534.236Z" stroke="#487925" stroke-width="0.846968" fill="#68AD36" transform="matrix(1.00012 0 0 1 965.715 402.955)"/><path d="M-16.8418 451.408C-16.8418 454.097-19.0222 456.278-21.7119 456.278-24.4016 456.278-26.582 454.098-26.582 451.408-26.582 448.718-24.4016 446.538-21.7119 446.538-19.0222 446.538-16.8418 448.718-16.8418 451.408Z" stroke="#935690" stroke-width="0.846968" fill="#D27CCE" transform="matrix(1.00012 0 0 1 965.715 402.955)"/><path d="M-44.1552 390.422C-44.1552 393.112-46.3356 395.292-49.0252 395.292-51.7149 395.292-53.8953 393.112-53.8953 390.422-53.8953 387.733-51.7149 385.552-49.0252 385.552-46.3356 385.552-44.1552 387.733-44.1552 390.422Z" stroke="#935690" stroke-width="0.846968" fill="#D27CCE" transform="matrix(1.00012 0 0 1 965.715 402.955)"/><path d="M374.69 337.585C374.69 340.274 372.51 342.455 369.82 342.455 367.131 342.455 364.95 340.274 364.95 337.585 364.95 334.895 367.131 332.715 369.82 332.715 372.51 332.715 374.69 334.895 374.69 337.585Z" stroke="#935690" stroke-width="0.846968" fill="#D27CCE" transform="matrix(1.00012 0 0 1 965.715 402.955)"/><path d="M64.2583 402.39C64.2583 405.079 62.0779 407.26 59.3882 407.26 56.6985 407.26 54.5181 405.079 54.5181 402.39 54.5181 399.7 56.6985 397.52 59.3882 397.52 62.0779 397.52 64.2583 399.7 64.2583 402.39Z" stroke="#B2512B" stroke-width="0.846968" fill="#FF743E" transform="matrix(1.00012 0 0 1 965.715 402.955)"/><path d="M71.6648 492.418C71.6648 495.107 69.4844 497.288 66.7948 497.288 64.1051 497.288 61.9247 495.107 61.9247 492.418 61.9247 489.728 64.1051 487.548 66.7948 487.548 69.4844 487.548 71.6648 489.728 71.6648 492.418Z" stroke="#935690" stroke-width="0.846968" fill="#D27CCE" transform="matrix(1.00012 0 0 1 965.715 402.955)"/><path d="M421.758 329.513C421.758 332.202 419.578 334.383 416.888 334.383 414.198 334.383 412.018 332.202 412.018 329.513 412.018 326.823 414.198 324.642 416.888 324.642 419.578 324.642 421.758 326.823 421.758 329.513Z" stroke="#935690" stroke-width="0.846968" fill="#D27CCE" transform="matrix(1.00012 0 0 1 965.715 402.955)"/><path d="M362.305 388.92C362.305 391.61 360.125 393.79 357.435 393.79 354.746 393.79 352.565 391.61 352.565 388.92 352.565 386.23 354.746 384.05 357.435 384.05 360.125 384.05 362.305 386.23 362.305 388.92Z" stroke="#935690" stroke-width="0.846968" fill="#D27CCE" transform="matrix(1.00012 0 0 1 965.715 402.955)"/><path d="M36.7289 451.528C36.7289 454.217 34.5485 456.398 31.8588 456.398 29.1691 456.398 26.9887 454.217 26.9887 451.528 26.9887 448.838 29.1691 446.658 31.8588 446.658 34.5485 446.658 36.7289 448.838 36.7289 451.528Z" stroke="#487925" stroke-width="0.846968" fill="#68AD36" transform="matrix(1.00012 0 0 1 965.715 402.955)"/><path d="M190.352 494.447C190.352 497.137 188.172 499.317 185.482 499.317 182.793 499.317 180.612 497.137 180.612 494.447 180.612 491.758 182.793 489.577 185.482 489.577 188.172 489.577 190.352 491.757 190.352 494.447Z" stroke="#487925" stroke-width="0.846968" fill="#68AD36" transform="matrix(1.00012 0 0 1 965.715 402.955)"/><path d="M268.467 335.83C268.467 338.519 266.287 340.7 263.597 340.7 260.907 340.7 258.727 338.519 258.727 335.83 258.727 333.14 260.907 330.96 263.597 330.96 266.287 330.96 268.467 333.14 268.467 335.83Z" stroke="#487925" stroke-width="0.846968" fill="#68AD36" transform="matrix(1.00012 0 0 1 965.715 402.955)"/><path d="M305.454 390.316C305.454 393.005 303.273 395.186 300.584 395.186 297.894 395.186 295.714 393.005 295.714 390.316 295.714 387.626 297.894 385.446 300.584 385.446 303.273 385.446 305.454 387.626 305.454 390.316Z" stroke="#487925" stroke-width="0.846968" fill="#68AD36" transform="matrix(1.00012 0 0 1 965.715 402.955)"/><path d="M4.3103 498.944C4.3103 501.633 2.1299 503.814-0.559765 503.814-3.24943 503.814-5.42983 501.633-5.42983 498.944-5.42983 496.254-3.24943 494.074-0.559765 494.074 2.1299 494.074 4.3103 496.254 4.3103 498.944Z" stroke="#487925" stroke-width="0.846968" fill="#68AD36" transform="matrix(1.00012 0 0 1 965.715 402.955)"/><path d="M264.861 235.032C264.861 237.721 262.681 239.902 259.991 239.902 257.301 239.902 255.121 237.721 255.121 235.032 255.121 232.342 257.301 230.162 259.991 230.162 262.681 230.162 264.861 232.342 264.861 235.032Z" stroke="#935690" stroke-width="0.846968" fill="#D27CCE" transform="matrix(1.00012 0 0 1 965.715 402.955)"/><path d="M399.895 428.864C399.895 431.553 397.714 433.734 395.025 433.734 392.335 433.734 390.154 431.553 390.154 428.864 390.154 426.174 392.335 423.993 395.025 423.993 397.714 423.993 399.895 426.174 399.895 428.864Z" stroke="#935690" stroke-width="0.846968" fill="#D27CCE" transform="matrix(1.00012 0 0 1 965.715 402.955)"/><path d="M254.579 500.937C254.579 503.627 252.399 505.807 249.709 505.807 247.019 505.807 244.839 503.627 244.839 500.937 244.839 498.248 247.019 496.067 249.709 496.067 252.399 496.067 254.579 498.248 254.579 500.937Z" stroke="#935690" stroke-width="0.846968" fill="#D27CCE" transform="matrix(1.00012 0 0 1 965.715 402.955)"/><path d="M347.023 292.019C347.023 294.708 344.843 296.889 342.153 296.889 339.464 296.889 337.283 294.708 337.283 292.019 337.283 289.329 339.464 287.149 342.153 287.149 344.843 287.149 347.023 289.329 347.023 292.019Z" stroke="#935690" stroke-width="0.846968" fill="#D27CCE" transform="matrix(1.00012 0 0 1 965.715 402.955)"/><path d="M276.513 438.893C276.513 441.583 274.332 443.763 271.643 443.763 268.953 443.763 266.773 441.583 266.773 438.893 266.773 436.203 268.953 434.023 271.643 434.023 274.332 434.023 276.513 436.203 276.513 438.893Z" stroke="#487925" stroke-width="0.846968" fill="#68AD36" transform="matrix(1.00012 0 0 1 965.715 402.955)"/><path d="M342.663 514.586C342.663 517.276 340.483 519.457 337.793 519.457 335.104 519.457 332.923 517.276 332.923 514.586 332.923 511.897 335.104 509.716 337.793 509.716 340.483 509.716 342.663 511.897 342.663 514.586Z" stroke="#487925" stroke-width="0.846968" fill="#68AD36" transform="matrix(1.00012 0 0 1 965.715 402.955)"/><path d="M130.144 496.45C130.144 499.139 127.964 501.32 125.274 501.32 122.584 501.32 120.404 499.139 120.404 496.45 120.404 493.76 122.584 491.579 125.274 491.579 127.964 491.579 130.144 493.76 130.144 496.45Z" stroke="#935690" stroke-width="0.846968" fill="#D27CCE" transform="matrix(1.00012 0 0 1 965.715 402.955)"/><path d="M305.204 482.559C305.204 485.249 303.023 487.429 300.334 487.429 297.644 487.429 295.463 485.249 295.463 482.559 295.463 479.87 297.644 477.689 300.334 477.689 303.023 477.689 305.204 479.87 305.204 482.559Z" stroke="#935690" stroke-width="0.846968" fill="#D27CCE" transform="matrix(1.00012 0 0 1 965.715 402.955)"/><path d="M416.017 380.833C416.017 383.522 413.836 385.703 411.147 385.703 408.457 385.703 406.276 383.522 406.276 380.833 406.276 378.143 408.457 375.963 411.147 375.963 413.836 375.963 416.017 378.143 416.017 380.833Z" stroke="#935690" stroke-width="0.846968" fill="#D27CCE" transform="matrix(1.00012 0 0 1 965.715 402.955)"/><path d="M247.38 388.877C247.38 391.567 245.199 393.747 242.51 393.747 239.82 393.747 237.639 391.567 237.639 388.877 237.639 386.187 239.82 384.007 242.51 384.007 245.199 384.007 247.38 386.187 247.38 388.877Z" stroke="#935690" stroke-width="0.846968" fill="#D27CCE" transform="matrix(1.00012 0 0 1 965.715 402.955)"/><path d="M223.016 448.021C223.016 450.711 220.836 452.891 218.146 452.891 215.456 452.891 213.276 450.711 213.276 448.021 213.276 445.331 215.456 443.151 218.146 443.151 220.836 443.151 223.016 445.331 223.016 448.021Z" stroke="#935690" stroke-width="0.846968" fill="#D27CCE" transform="matrix(1.00012 0 0 1 965.715 402.955)"/><path d="M297.538 542.192C297.538 544.881 295.358 547.062 292.668 547.062 289.978 547.062 287.798 544.881 287.798 542.192 287.798 539.502 289.978 537.322 292.668 537.322 295.358 537.322 297.538 539.502 297.538 542.192Z" stroke="#935690" stroke-width="0.846968" fill="#D27CCE" transform="matrix(1.00012 0 0 1 965.715 402.955)"/><path d="M403.347 283.369C403.347 286.059 401.166 288.239 398.477 288.239 395.787 288.239 393.606 286.059 393.606 283.369 393.606 280.68 395.787 278.499 398.477 278.499 401.166 278.499 403.347 280.68 403.347 283.369Z" stroke="#935690" stroke-width="0.846968" fill="#D27CCE" transform="matrix(1.00012 0 0 1 965.715 402.955)"/><path d="M100.282 544.362C100.282 547.052 98.1013 549.232 95.4117 549.232 92.722 549.232 90.5416 547.052 90.5416 544.362 90.5416 541.673 92.722 539.492 95.4117 539.492 98.1013 539.492 100.282 541.672 100.282 544.362Z" stroke="#935690" stroke-width="0.846968" fill="#D27CCE" transform="matrix(1.00012 0 0 1 965.715 402.955)"/><path d="M256.965 571.118C256.965 573.808 254.785 575.988 252.095 575.988 249.406 575.988 247.225 573.808 247.225 571.118 247.225 568.428 249.406 566.248 252.095 566.248 254.785 566.248 256.965 568.428 256.965 571.118Z" stroke="#935690" stroke-width="0.846968" fill="#D27CCE" transform="matrix(1.00012 0 0 1 965.715 402.955)"/><path d="M-37.4458 528.638C-37.4458 531.328-39.6262 533.508-42.3159 533.508-45.0055 533.508-47.1859 531.328-47.1859 528.638-47.1859 525.949-45.0055 523.768-42.3159 523.768-39.6262 523.768-37.4458 525.949-37.4458 528.638Z" stroke="#935690" stroke-width="0.846968" fill="#D27CCE" transform="matrix(1.00012 0 0 1 965.715 402.955)"/><path d="M-0.296448 561.64C-0.296448 564.33-2.47685 566.51-5.16652 566.51-7.85618 566.51-10.0366 564.33-10.0366 561.64-10.0366 558.951-7.85618 556.77-5.16652 556.77-2.47685 556.77-0.296449 558.951-0.296448 561.64Z" stroke="#935690" stroke-width="0.846968" fill="#D27CCE" transform="matrix(1.00012 0 0 1 965.715 402.955)"/><path d="M149.515 596.083C149.515 598.772 147.335 600.953 144.645 600.953 141.956 600.953 139.775 598.772 139.775 596.083 139.775 593.393 141.956 591.213 144.645 591.213 147.335 591.213 149.515 593.393 149.515 596.083Z" stroke="#935690" stroke-width="0.846968" fill="#D27CCE" transform="matrix(1.00012 0 0 1 965.715 402.955)"/><path d="M374.754 472.994C374.754 475.684 372.573 477.865 369.884 477.865 367.194 477.865 365.014 475.684 365.014 472.994 365.014 470.305 367.194 468.124 369.884 468.124 372.573 468.124 374.754 470.305 374.754 472.994Z" stroke="#935690" stroke-width="0.846968" fill="#D27CCE" transform="matrix(1.00012 0 0 1 965.715 402.955)"/><path d="M48.7047 584.769C48.7047 587.458 46.5243 589.639 43.8346 589.639 41.1449 589.639 38.9645 587.458 38.9645 584.769 38.9645 582.079 41.1449 579.899 43.8346 579.899 46.5243 579.899 48.7047 582.079 48.7047 584.769Z" stroke="#487925" stroke-width="0.846968" fill="#68AD36" transform="matrix(1.00012 0 0 1 965.715 402.955)"/><path d="M98.8781 594.878C98.8781 597.567 96.6977 599.748 94.008 599.748 91.3183 599.748 89.1379 597.567 89.1379 594.878 89.1379 592.188 91.3183 590.008 94.008 590.008 96.6977 590.008 98.8781 592.188 98.8781 594.878Z" stroke="#935690" stroke-width="0.846968" fill="#D27CCE" transform="matrix(1.00012 0 0 1 965.715 402.955)"/><path d="M216.721 539.439C216.721 542.128 214.54 544.309 211.851 544.309 209.161 544.309 206.98 542.128 206.98 539.439 206.98 536.749 209.161 534.569 211.851 534.569 214.54 534.569 216.721 536.749 216.721 539.439Z" stroke="#935690" stroke-width="0.846968" fill="#D27CCE" transform="matrix(1.00012 0 0 1 965.715 402.955)"/><path d="M157.925 545.323C157.925 548.013 155.744 550.193 153.054 550.193 150.365 550.193 148.184 548.013 148.184 545.323 148.184 542.633 150.365 540.453 153.054 540.453 155.744 540.453 157.925 542.633 157.925 545.323Z" stroke="#935690" stroke-width="0.846968" fill="#D27CCE" transform="matrix(1.00012 0 0 1 965.715 402.955)"/><path d="M368.087 248.064C368.087 250.753 365.906 252.934 363.217 252.934 360.527 252.934 358.347 250.753 358.347 248.064 358.347 245.374 360.527 243.194 363.217 243.194 365.906 243.194 368.087 245.374 368.087 248.064Z" stroke="#935690" stroke-width="0.846968" fill="#D27CCE" transform="matrix(1.00012 0 0 1 965.715 402.955)"/><path d="M338.193 436.964C338.193 439.654 336.013 441.834 333.323 441.834 330.634 441.834 328.453 439.654 328.453 436.964 328.453 434.274 330.634 432.094 333.323 432.094 336.013 432.094 338.193 434.274 338.193 436.964Z" stroke="#935690" stroke-width="0.846968" fill="#D27CCE" transform="matrix(1.00012 0 0 1 965.715 402.955)"/><path d="M-59.6314 486.479C-59.6314 489.169-61.8118 491.349-64.5014 491.349-67.1911 491.349-69.3715 489.169-69.3715 486.479-69.3715 483.79-67.1911 481.609-64.5014 481.609-61.8118 481.609-59.6314 483.79-59.6314 486.479Z" stroke="#935690" stroke-width="0.846968" fill="#D27CCE" transform="matrix(1.00012 0 0 1 965.715 402.955)"/><path d="M317.378 237.913C317.378 240.603 315.198 242.783 312.508 242.783 309.818 242.783 307.638 240.603 307.638 237.913 307.638 235.224 309.818 233.043 312.508 233.043 315.198 233.043 317.378 235.224 317.378 237.913Z" stroke="#935690" stroke-width="0.846968" fill="#D27CCE" transform="matrix(1.00012 0 0 1 965.715 402.955)"/><path d="M202.063 589.741C202.063 592.431 199.883 594.611 197.193 594.611 194.504 594.611 192.323 592.431 192.323 589.741 192.323 587.051 194.504 584.871 197.193 584.871 199.883 584.871 202.063 587.052 202.063 589.741Z" stroke="#935690" stroke-width="0.846968" fill="#D27CCE" transform="matrix(1.00012 0 0 1 965.715 402.955)"/><path d="M-347.819 199.108C-347.819 201.797-350 203.978-352.69 203.978-355.379 203.978-357.56 201.797-357.56 199.108-357.56 196.418-355.379 194.237-352.69 194.237-350 194.237-347.819 196.418-347.819 199.108Z" stroke="#935690" stroke-width="0.846968" fill="#D27CCE" transform="matrix(1.00012 0 0 1 965.715 402.955)"/><path d="M-426.07-26.4894C-426.07-23.7998-428.25-21.6193-430.94-21.6193-433.63-21.6193-435.81-23.7998-435.81-26.4894-435.81-29.1791-433.63-31.3595-430.94-31.3595-428.251-31.3595-426.07-29.1791-426.07-26.4894Z" stroke="#935690" stroke-width="0.846968" fill="#D27CCE" transform="matrix(1.00012 0 0 1 965.715 402.955)"/><path d="M-396.511 187.15C-396.511 189.84-398.692 192.02-401.381 192.02-404.071 192.02-406.251 189.84-406.251 187.15-406.251 184.46-404.071 182.28-401.381 182.28-398.692 182.28-396.511 184.46-396.511 187.15Z" stroke="#935690" stroke-width="0.846968" fill="#D27CCE" transform="matrix(1.00012 0 0 1 965.715 402.955)"/><path d="M-304.443 226.467C-304.443 229.156-306.623 231.337-309.313 231.337-312.003 231.337-314.183 229.156-314.183 226.467-314.183 223.777-312.003 221.596-309.313 221.596-306.624 221.596-304.443 223.777-304.443 226.467Z" stroke="#935690" stroke-width="0.846968" fill="#D27CCE" transform="matrix(1.00012 0 0 1 965.715 402.955)"/><path d="M-307.941 168.468C-307.941 171.158-310.121 173.338-312.811 173.338-315.5 173.338-317.681 171.158-317.681 168.468-317.681 165.778-315.5 163.598-312.811 163.598-310.121 163.598-307.941 165.778-307.941 168.468Z" stroke="#935690" stroke-width="0.846968" fill="#D27CCE" transform="matrix(1.00012 0 0 1 965.715 402.955)"/><path d="M-475.37 190.845C-475.37 193.534-477.551 195.715-480.24 195.715-482.93 195.715-485.11 193.534-485.11 190.845-485.11 188.155-482.93 185.974-480.24 185.974-477.551 185.974-475.37 188.155-475.37 190.845Z" stroke="#935690" stroke-width="0.846968" fill="#D27CCE" transform="matrix(1.00012 0 0 1 965.715 402.955)"/><path d="M-475.263-34.9918C-475.263-32.3021-477.444-30.1217-480.133-30.1217-482.823-30.1217-485.003-32.3021-485.003-34.9918-485.003-37.6814-482.823-39.8619-480.133-39.8619-477.444-39.8619-475.263-37.6814-475.263-34.9918Z" stroke="#935690" stroke-width="0.846968" fill="#D27CCE" transform="matrix(1.00012 0 0 1 965.715 402.955)"/><path d="M-435.954 219.096C-435.954 221.786-438.134 223.966-440.824 223.966-443.513 223.966-445.694 221.786-445.694 219.096-445.694 216.406-443.513 214.226-440.824 214.226-438.134 214.226-435.954 216.406-435.954 219.096Z" stroke="#935690" stroke-width="0.846968" fill="#D27CCE" transform="matrix(1.00012 0 0 1 965.715 402.955)"/><path d="M-517.721 103.491C-517.721 106.181-519.902 108.361-522.591 108.361-525.281 108.361-527.462 106.181-527.462 103.491-527.462 100.802-525.281 98.6213-522.591 98.6213-519.902 98.6213-517.721 100.802-517.721 103.491Z" stroke="#935690" stroke-width="0.846968" fill="#D27CCE" transform="matrix(1.00012 0 0 1 965.715 402.955)"/><path d="M-225.405 114.952C-225.405 117.641-227.586 119.822-230.275 119.822-232.965 119.822-235.146 117.641-235.146 114.952-235.146 112.262-232.965 110.082-230.275 110.082-227.586 110.082-225.405 112.262-225.405 114.952Z" stroke="#935690" stroke-width="0.846968" fill="#D27CCE" transform="matrix(1.00012 0 0 1 965.715 402.955)"/><path d="M-545.508 160.382C-545.508 163.072-547.688 165.252-550.378 165.252-553.068 165.252-555.248 163.072-555.248 160.382-555.248 157.692-553.067 155.512-550.378 155.512-547.688 155.512-545.508 157.692-545.508 160.382Z" stroke="#B2512B" stroke-width="0.846968" fill="#FF743E" transform="matrix(1.00012 0 0 1 965.715 402.955)"/><path d="M-392.313 238.069C-392.313 240.759-394.493 242.939-397.183 242.939-399.873 242.939-402.053 240.759-402.053 238.069-402.053 235.379-399.873 233.199-397.183 233.199-394.493 233.199-392.313 235.379-392.313 238.069Z" stroke="#935690" stroke-width="0.846968" fill="#D27CCE" transform="matrix(1.00012 0 0 1 965.715 402.955)"/><path d="M-479.652 67.0154C-479.652 69.7051-481.832 71.8855-484.522 71.8855-487.212 71.8855-489.392 69.7051-489.392 67.0154-489.392 64.3258-487.212 62.1454-484.522 62.1454-481.833 62.1454-479.652 64.3258-479.652 67.0154Z" stroke="#935690" stroke-width="0.846968" fill="#D27CCE" transform="matrix(1.00012 0 0 1 965.715 402.955)"/><path d="M-578.553 27.3884C-578.553 30.078-580.733 32.2584-583.423 32.2584-586.112 32.2584-588.293 30.078-588.293 27.3884-588.293 24.6987-586.112 22.5183-583.423 22.5183-580.733 22.5183-578.553 24.6987-578.553 27.3884Z" stroke="#935690" stroke-width="0.846968" fill="#D27CCE" transform="matrix(1.00012 0 0 1 965.715 402.955)"/><path d="M-530.112 55.1979C-530.112 57.8876-532.293 60.068-534.982 60.068-537.672 60.068-539.853 57.8876-539.853 55.1979-539.853 52.5083-537.672 50.3279-534.982 50.3279-532.293 50.3279-530.112 52.5083-530.112 55.1979Z" stroke="#935690" stroke-width="0.846968" fill="#D27CCE" transform="matrix(1.00012 0 0 1 965.715 402.955)"/><path d="M-573.66 74.4343C-573.66 77.1239-575.841 79.3043-578.531 79.3043-581.22 79.3043-583.401 77.1239-583.401 74.4343-583.401 71.7446-581.22 69.5642-578.531 69.5642-575.841 69.5642-573.66 71.7446-573.66 74.4343Z" stroke="#935690" stroke-width="0.846968" fill="#D27CCE" transform="matrix(1.00012 0 0 1 965.715 402.955)"/><path d="M-499.35 148.767C-499.35 151.457-501.531 153.637-504.221 153.637-506.91 153.637-509.091 151.457-509.091 148.767-509.091 146.078-506.91 143.897-504.221 143.897-501.531 143.897-499.35 146.078-499.35 148.767Z" stroke="#935690" stroke-width="0.846968" fill="#D27CCE" transform="matrix(1.00012 0 0 1 965.715 402.955)"/><path d="M-392.459-169.248C-392.459-166.558-394.639-164.378-397.329-164.378-400.019-164.378-402.199-166.558-402.199-169.248-402.199-171.937-400.019-174.118-397.329-174.118-394.639-174.118-392.459-171.937-392.459-169.248Z" stroke="#935690" stroke-width="0.846968" fill="#D27CCE" transform="matrix(1.00012 0 0 1 965.715 402.955)"/><path d="M-574.255-23.4748C-574.255-20.7852-576.436-18.6048-579.126-18.6048-581.815-18.6048-583.996-20.7852-583.996-23.4748-583.996-26.1645-581.815-28.3449-579.126-28.3449-576.436-28.3449-574.255-26.1645-574.255-23.4748Z" stroke="#B2512B" stroke-width="0.846968" fill="#FF743E" transform="matrix(1.00012 0 0 1 965.715 402.955)"/><path d="M-271.883-30.4509C-271.883-27.7612-274.063-25.5808-276.753-25.5808-279.442-25.5808-281.623-27.7612-281.623-30.4509-281.623-33.1405-279.442-35.3209-276.753-35.3209-274.063-35.3209-271.883-33.1405-271.883-30.4509Z" stroke="#935690" stroke-width="0.846968" fill="#D27CCE" transform="matrix(1.00012 0 0 1 965.715 402.955)"/><path d="M-399.584-72.6191C-399.584-69.9294-401.764-67.749-404.454-67.749-407.144-67.749-409.324-69.9294-409.324-72.6191-409.324-75.3087-407.144-77.4891-404.454-77.4891-401.764-77.4891-399.584-75.3087-399.584-72.6191Z" stroke="#935690" stroke-width="0.846968" fill="#D27CCE" transform="matrix(1.00012 0 0 1 965.715 402.955)"/><path d="M-501.124-87.8568C-501.124-85.1671-503.304-82.9867-505.994-82.9867-508.683-82.9867-510.864-85.1671-510.864-87.8568-510.864-90.5464-508.683-92.7268-505.994-92.7268-503.304-92.7268-501.124-90.5464-501.124-87.8568Z" stroke="#935690" stroke-width="0.846968" fill="#D27CCE" transform="matrix(1.00012 0 0 1 965.715 402.955)"/><path d="M-348.025-75.7886C-348.025-73.0989-350.205-70.9185-352.895-70.9185-355.584-70.9185-357.765-73.0989-357.765-75.7886-357.765-78.4782-355.584-80.6586-352.895-80.6586-350.205-80.6586-348.025-78.4782-348.025-75.7886Z" stroke="#935690" stroke-width="0.846968" fill="#D27CCE" transform="matrix(1.00012 0 0 1 965.715 402.955)"/><path d="M-536.221 4.36226C-536.221 7.05193-538.401 9.23233-541.091 9.23233-543.78 9.23233-545.961 7.05193-545.961 4.36226-545.961 1.6726-543.78-0.507805-541.091-0.507805-538.401-0.507805-536.221 1.6726-536.221 4.36226Z" stroke="#935690" stroke-width="0.846968" fill="#D27CCE" transform="matrix(1.00012 0 0 1 965.715 402.955)"/><path d="M-559.832-71.3473C-559.832-68.6576-562.013-66.4772-564.703-66.4772-567.392-66.4772-569.573-68.6576-569.573-71.3473-569.573-74.0369-567.392-76.2173-564.703-76.2173-562.013-76.2173-559.832-74.0369-559.832-71.3473Z" stroke="#B2512B" stroke-width="0.846968" fill="#FF743E" transform="matrix(1.00012 0 0 1 965.715 402.955)"/><path d="M-295.434-76.7022C-295.434-74.0125-297.615-71.8321-300.304-71.8321-302.994-71.8321-305.174-74.0125-305.174-76.7022-305.174-79.3918-302.994-81.5722-300.304-81.5722-297.615-81.5722-295.434-79.3918-295.434-76.7022Z" stroke="#935690" stroke-width="0.846968" fill="#D27CCE" transform="matrix(1.00012 0 0 1 965.715 402.955)"/><path d="M-375.612-25.4051C-375.612-22.7155-377.792-20.5351-380.482-20.5351-383.171-20.5351-385.352-22.7155-385.352-25.4051-385.352-28.0948-383.171-30.2752-380.482-30.2752-377.792-30.2752-375.612-28.0948-375.612-25.4051Z" stroke="#935690" stroke-width="0.846968" fill="#D27CCE" transform="matrix(1.00012 0 0 1 965.715 402.955)"/><path d="M-540.489-112.573C-540.489-109.883-542.669-107.703-545.359-107.703-548.048-107.703-550.229-109.883-550.229-112.573-550.229-115.263-548.048-117.443-545.359-117.443-542.669-117.443-540.489-115.263-540.489-112.573Z" stroke="#935690" stroke-width="0.846968" fill="#D27CCE" transform="matrix(1.00012 0 0 1 965.715 402.955)"/><path d="M-323.141-30.314C-323.141-27.6244-325.321-25.444-328.011-25.444-330.701-25.444-332.881-27.6244-332.881-30.314-332.881-33.0037-330.701-35.1841-328.011-35.1841-325.321-35.1841-323.141-33.0037-323.141-30.314Z" stroke="#935690" stroke-width="0.846968" fill="#D27CCE" transform="matrix(1.00012 0 0 1 965.715 402.955)"/><path d="M-264.033-114.505C-264.033-111.816-266.213-109.635-268.903-109.635-271.593-109.635-273.773-111.816-273.773-114.505-273.773-117.195-271.593-119.375-268.903-119.375-266.213-119.375-264.033-117.195-264.033-114.505Z" stroke="#935690" stroke-width="0.846968" fill="#D27CCE" transform="matrix(1.00012 0 0 1 965.715 402.955)"/><path d="M-276.203 127.115C-276.203 129.805-278.383 131.985-281.073 131.985-283.762 131.985-285.943 129.805-285.943 127.115-285.943 124.425-283.762 122.245-281.073 122.245-278.383 122.245-276.203 124.425-276.203 127.115Z" stroke="#935690" stroke-width="0.846968" fill="#D27CCE" transform="matrix(1.00012 0 0 1 965.715 402.955)"/><path d="M-393.944 32.0282C-393.944 34.7179-396.124 36.8983-398.814 36.8983-401.504 36.8983-403.684 34.7179-403.684 32.0282-403.684 29.3386-401.504 27.1581-398.814 27.1581-396.124 27.1581-393.944 29.3386-393.944 32.0282Z" stroke="#935690" stroke-width="0.846968" fill="#D27CCE" transform="matrix(1.00012 0 0 1 965.715 402.955)"/><path d="M-462.352 115.647C-462.352 118.337-464.532 120.517-467.222 120.517-469.912 120.517-472.092 118.337-472.092 115.647-472.092 112.958-469.912 110.777-467.222 110.777-464.532 110.777-462.352 112.958-462.352 115.647Z" stroke="#935690" stroke-width="0.846968" fill="#D27CCE" transform="matrix(1.00012 0 0 1 965.715 402.955)"/><path d="M-177.978 119.169C-177.978 121.859-180.159 124.039-182.848 124.039-185.538 124.039-187.719 121.859-187.719 119.169-187.719 116.479-185.538 114.299-182.848 114.299-180.159 114.299-177.978 116.479-177.978 119.169Z" stroke="#935690" stroke-width="0.846968" fill="#D27CCE" transform="matrix(1.00012 0 0 1 965.715 402.955)"/><path d="M-443.008 23.4948C-443.008 26.1845-445.189 28.3649-447.878 28.3649-450.568 28.3649-452.749 26.1845-452.749 23.4948-452.749 20.8051-450.568 18.6247-447.878 18.6247-445.189 18.6247-443.008 20.8051-443.008 23.4948Z" stroke="#935690" stroke-width="0.846968" fill="#D27CCE" transform="matrix(1.00012 0 0 1 965.715 402.955)"/><path d="M-72.8403-83.2285C-72.8403-80.5389-75.0207-78.3585-77.7103-78.3585-80.4-78.3585-82.5804-80.5389-82.5804-83.2285-82.5804-85.9182-80.4-88.0986-77.7103-88.0986-75.0207-88.0986-72.8403-85.9182-72.8403-83.2285Z" stroke="#935690" stroke-width="0.846968" fill="#D27CCE" transform="matrix(1.00012 0 0 1 965.715 402.955)"/><path d="M-426.477 76.2675C-426.477 78.9572-428.657 81.1376-431.347 81.1376-434.036 81.1376-436.217 78.9572-436.217 76.2675-436.217 73.5779-434.036 71.3975-431.347 71.3975-428.657 71.3975-426.477 73.5779-426.477 76.2675Z" stroke="#935690" stroke-width="0.846968" fill="#D27CCE" transform="matrix(1.00012 0 0 1 965.715 402.955)"/><path d="M-490.832 14.9972C-490.832 17.6868-493.012 19.8672-495.702 19.8672-498.391 19.8672-500.572 17.6868-500.572 14.9972-500.572 12.3075-498.391 10.1271-495.702 10.1271-493.012 10.1271-490.832 12.3075-490.832 14.9972Z" stroke="#935690" stroke-width="0.846968" fill="#D27CCE" transform="matrix(1.00012 0 0 1 965.715 402.955)"/><path d="M-87.4643-110.132C-87.4643-107.442-89.6447-105.262-92.3343-105.262-95.024-105.262-97.2044-107.442-97.2044-110.132-97.2044-112.822-95.024-115.002-92.3343-115.002-89.6447-115.002-87.4643-112.822-87.4643-110.132Z" stroke="#935690" stroke-width="0.846968" fill="#D27CCE" transform="matrix(1.00012 0 0 1 965.715 402.955)"/><path d="M-398.603-215.071C-398.603-212.381-400.783-210.201-403.473-210.201-406.163-210.201-408.343-212.381-408.343-215.071-408.343-217.76-406.163-219.941-403.473-219.941-400.783-219.941-398.603-217.76-398.603-215.071Z" stroke="#B2512B" stroke-width="0.846968" fill="#FF743E" transform="matrix(1.00012 0 0 1 965.715 402.955)"/><path d="M-372.274-120.547C-372.274-117.857-374.454-115.677-377.144-115.677-379.833-115.677-382.014-117.857-382.014-120.547-382.014-123.237-379.833-125.417-377.144-125.417-374.454-125.417-372.274-123.237-372.274-120.547Z" stroke="#935690" stroke-width="0.846968" fill="#D27CCE" transform="matrix(1.00012 0 0 1 965.715 402.955)"/><path d="M-346.266-161.449C-346.266-158.759-348.447-156.579-351.136-156.579-353.826-156.579-356.007-158.759-356.007-161.449-356.007-164.138-353.826-166.319-351.136-166.319-348.447-166.319-346.266-164.138-346.266-161.449Z" stroke="#935690" stroke-width="0.846968" fill="#D27CCE" transform="matrix(1.00012 0 0 1 965.715 402.955)"/><path d="M-438.861-161.354C-438.861-158.664-441.041-156.484-443.731-156.484-446.42-156.484-448.601-158.664-448.601-161.354-448.601-164.044-446.42-166.224-443.731-166.224-441.041-166.224-438.861-164.044-438.861-161.354Z" stroke="#935690" stroke-width="0.846968" fill="#D27CCE" transform="matrix(1.00012 0 0 1 965.715 402.955)"/><path d="M-101.351-137.672C-101.351-134.982-103.531-132.802-106.221-132.802-108.911-132.802-111.091-134.982-111.091-137.672-111.091-140.362-108.911-142.542-106.221-142.542-103.531-142.542-101.351-140.362-101.351-137.672Z" stroke="#935690" stroke-width="0.846968" fill="#D27CCE" transform="matrix(1.00012 0 0 1 965.715 402.955)"/><path d="M-420.687-119.028C-420.687-116.339-422.868-114.158-425.557-114.158-428.247-114.158-430.428-116.339-430.428-119.028-430.428-121.718-428.247-123.899-425.557-123.899-422.868-123.899-420.687-121.718-420.687-119.028Z" stroke="#935690" stroke-width="0.846968" fill="#D27CCE" transform="matrix(1.00012 0 0 1 965.715 402.955)"/><path d="M-196.228 25.2189C-196.228 27.9086-198.408 30.089-201.098 30.089-203.787 30.089-205.968 27.9086-205.968 25.2189-205.968 22.5292-203.787 20.3488-201.098 20.3488-198.408 20.3488-196.228 22.5292-196.228 25.2189Z" stroke="#935690" stroke-width="0.846968" fill="#D27CCE" transform="matrix(1.00012 0 0 1 965.715 402.955)"/><path d="M-322.879 67.2033C-322.879 69.8929-325.059 72.0733-327.749 72.0733-330.439 72.0733-332.619 69.8929-332.619 67.2033-332.619 64.5136-330.439 62.3332-327.749 62.3332-325.06 62.3332-322.879 64.5136-322.879 67.2033Z" stroke="#935690" stroke-width="0.846968" fill="#D27CCE" transform="matrix(1.00012 0 0 1 965.715 402.955)"/><path d="M-319.267-120.389C-319.267-117.7-321.447-115.519-324.137-115.519-326.827-115.519-329.007-117.7-329.007-120.389-329.007-123.079-326.827-125.259-324.137-125.259-321.447-125.259-319.267-123.079-319.267-120.389Z" stroke="#935690" stroke-width="0.846968" fill="#D27CCE" transform="matrix(1.00012 0 0 1 965.715 402.955)"/><path d="M-314.137-192.44C-314.137-189.751-316.317-187.57-319.007-187.57-321.696-187.57-323.877-189.751-323.877-192.44-323.877-195.13-321.696-197.31-319.007-197.31-316.317-197.31-314.137-195.13-314.137-192.44Z" stroke="#935690" stroke-width="0.846968" fill="#D27CCE" transform="matrix(1.00012 0 0 1 965.715 402.955)"/><path d="M-482.838-180.613C-482.838-177.924-485.018-175.743-487.708-175.743-490.397-175.743-492.578-177.924-492.578-180.613-492.578-183.303-490.397-185.483-487.708-185.483-485.018-185.483-482.838-183.303-482.838-180.613Z" stroke="#935690" stroke-width="0.846968" fill="#D27CCE" transform="matrix(1.00012 0 0 1 965.715 402.955)"/><path d="M-371.93 84.1891C-371.93 86.8787-374.11 89.0591-376.8 89.0591-379.49 89.0591-381.67 86.8787-381.67 84.1891-381.67 81.4994-379.49 79.319-376.8 79.319-374.11 79.319-371.93 81.4994-371.93 84.1891Z" stroke="#935690" stroke-width="0.846968" fill="#D27CCE" transform="matrix(1.00012 0 0 1 965.715 402.955)"/><path d="M-451.556-78.7765C-451.556-76.0868-453.737-73.9064-456.426-73.9064-459.116-73.9064-461.297-76.0868-461.297-78.7765-461.297-81.4661-459.116-83.6465-456.426-83.6465-453.737-83.6465-451.556-81.4661-451.556-78.7765Z" stroke="#935690" stroke-width="0.846968" fill="#D27CCE" transform="matrix(1.00012 0 0 1 965.715 402.955)"/><path d="M-473.515-126.928C-473.515-124.239-475.695-122.058-478.385-122.058-481.074-122.058-483.255-124.239-483.255-126.928-483.255-129.618-481.074-131.799-478.385-131.799-475.695-131.799-473.515-129.618-473.515-126.928Z" stroke="#935690" stroke-width="0.846968" fill="#D27CCE" transform="matrix(1.00012 0 0 1 965.715 402.955)"/><path d="M-346.303 21.3413C-346.303 24.0309-348.484 26.2113-351.173 26.2113-353.863 26.2113-356.043 24.0309-356.043 21.3413-356.043 18.6516-353.863 16.4712-351.173 16.4712-348.484 16.4712-346.303 18.6516-346.303 21.3413Z" stroke="#935690" stroke-width="0.846968" fill="#D27CCE" transform="matrix(1.00012 0 0 1 965.715 402.955)"/><path d="M-226.555 67.5763C-226.555 70.266-228.735 72.4464-231.425 72.4464-234.114 72.4464-236.295 70.266-236.295 67.5763-236.295 64.8867-234.114 62.7063-231.425 62.7063-228.735 62.7063-226.555 64.8867-226.555 67.5763Z" stroke="#935690" stroke-width="0.846968" fill="#D27CCE" transform="matrix(1.00012 0 0 1 965.715 402.955)"/><path d="M-361.749 149.154C-361.749 151.844-363.929 154.024-366.619 154.024-369.309 154.024-371.489 151.844-371.489 149.154-371.489 146.464-369.309 144.284-366.619 144.284-363.929 144.284-361.749 146.464-361.749 149.154Z" stroke="#935690" stroke-width="0.846968" fill="#D27CCE" transform="matrix(1.00012 0 0 1 965.715 402.955)"/><path d="M-442.071-205.686C-442.071-202.996-444.251-200.816-446.941-200.816-449.631-200.816-451.811-202.996-451.811-205.686-451.811-208.376-449.631-210.556-446.941-210.556-444.251-210.556-442.071-208.376-442.071-205.686Z" stroke="#935690" stroke-width="0.846968" fill="#D27CCE" transform="matrix(1.00012 0 0 1 965.715 402.955)"/><path d="M-355.485-211.617C-355.485-208.928-357.665-206.747-360.355-206.747-363.044-206.747-365.225-208.928-365.225-211.617-365.225-214.307-363.045-216.487-360.355-216.487-357.665-216.487-355.485-214.307-355.485-211.617Z" stroke="#935690" stroke-width="0.846968" fill="#D27CCE" transform="matrix(1.00012 0 0 1 965.715 402.955)"/><path d="M-514.874-148.864C-514.874-146.174-517.055-143.994-519.745-143.994-522.434-143.994-524.615-146.174-524.615-148.864-524.615-151.554-522.434-153.734-519.745-153.734-517.055-153.734-514.874-151.554-514.874-148.864Z" stroke="#935690" stroke-width="0.846968" fill="#D27CCE" transform="matrix(1.00012 0 0 1 965.715 402.955)"/><path d="M-522.152-44.4971C-522.152-41.8075-524.333-39.6271-527.022-39.6271-529.712-39.6271-531.893-41.8075-531.893-44.4971-531.893-47.1868-529.712-49.3672-527.022-49.3672-524.333-49.3672-522.152-47.1868-522.152-44.4971Z" stroke="#935690" stroke-width="0.846968" fill="#D27CCE" transform="matrix(1.00012 0 0 1 965.715 402.955)"/><path d="M-273.877 76.1421C-273.877 78.8318-276.057 81.0122-278.747 81.0122-281.437 81.0122-283.617 78.8318-283.617 76.1421-283.617 73.4524-281.437 71.272-278.747 71.272-276.057 71.272-273.877 73.4524-273.877 76.1421Z" stroke="#935690" stroke-width="0.846968" fill="#D27CCE" transform="matrix(1.00012 0 0 1 965.715 402.955)"/><path d="M-268.982 196.844C-268.982 199.533-271.162 201.714-273.852 201.714-276.542 201.714-278.722 199.533-278.722 196.844-278.722 194.154-276.542 191.973-273.852 191.973-271.162 191.973-268.982 194.154-268.982 196.844Z" stroke="#935690" stroke-width="0.846968" fill="#D27CCE" transform="matrix(1.00012 0 0 1 965.715 402.955)"/><path d="M-521.907 200.764C-521.907 203.454-524.087 205.634-526.777 205.634-529.466 205.634-531.647 203.454-531.647 200.764-531.647 198.074-529.466 195.894-526.777 195.894-524.087 195.894-521.907 198.074-521.907 200.764Z" stroke="#935690" stroke-width="0.846968" fill="#D27CCE" transform="matrix(1.00012 0 0 1 965.715 402.955)"/><path d="M-247.177 21.7985C-247.177 24.4881-249.358 26.6685-252.047 26.6685-254.737 26.6685-256.917 24.4881-256.917 21.7985-256.917 19.1088-254.737 16.9284-252.047 16.9284-249.358 16.9284-247.177 19.1088-247.177 21.7985Z" stroke="#935690" stroke-width="0.846968" fill="#D27CCE" transform="matrix(1.00012 0 0 1 965.715 402.955)"/><path d="M-240.604 160.612C-240.604 163.301-242.784 165.482-245.474 165.482-248.164 165.482-250.344 163.301-250.344 160.612-250.344 157.922-248.164 155.741-245.474 155.741-242.784 155.741-240.604 157.922-240.604 160.612Z" stroke="#935690" stroke-width="0.846968" fill="#D27CCE" transform="matrix(1.00012 0 0 1 965.715 402.955)"/><path d="M-562.779 118.519C-562.779 121.209-564.96 123.39-567.649 123.39-570.339 123.39-572.519 121.209-572.519 118.519-572.519 115.83-570.339 113.649-567.649 113.649-564.96 113.649-562.779 115.83-562.779 118.519Z" stroke="#935690" stroke-width="0.846968" fill="#D27CCE" transform="matrix(1.00012 0 0 1 965.715 402.955)"/><path d="M-220.169-20.3454C-220.169-17.6558-222.349-15.4754-225.039-15.4754-227.729-15.4754-229.909-17.6558-229.909-20.3454-229.909-23.0351-227.729-25.2155-225.039-25.2155-222.349-25.2155-220.169-23.0351-220.169-20.3454Z" stroke="#935690" stroke-width="0.846968" fill="#D27CCE" transform="matrix(1.00012 0 0 1 965.715 402.955)"/><path d="M-191.862 162.785C-191.862 165.475-194.043 167.655-196.732 167.655-199.422 167.655-201.602 165.475-201.602 162.785-201.602 160.095-199.422 157.915-196.732 157.915-194.043 157.915-191.862 160.095-191.862 162.785Z" stroke="#935690" stroke-width="0.846968" fill="#D27CCE" transform="matrix(1.00012 0 0 1 965.715 402.955)"/><path d="M-367.082 290.525C-367.082 293.214-369.263 295.395-371.952 295.395-374.642 295.395-376.822 293.214-376.822 290.525-376.822 287.835-374.642 285.655-371.952 285.655-369.263 285.655-367.082 287.835-367.082 290.525Z" stroke="#935690" stroke-width="0.846968" fill="#D27CCE" transform="matrix(1.00012 0 0 1 965.715 402.955)"/><path d="M-215.634 203.737C-215.634 206.427-217.814 208.607-220.504 208.607-223.194 208.607-225.374 206.427-225.374 203.737-225.374 201.047-223.194 198.867-220.504 198.867-217.814 198.867-215.634 201.047-215.634 203.737Z" stroke="#935690" stroke-width="0.846968" fill="#D27CCE" transform="matrix(1.00012 0 0 1 965.715 402.955)"/><path d="M-450.648 263.452C-450.648 266.142-452.828 268.322-455.518 268.322-458.207 268.322-460.388 266.142-460.388 263.452-460.388 260.762-458.207 258.582-455.518 258.582-452.828 258.582-450.648 260.762-450.648 263.452Z" stroke="#487925" stroke-width="0.846968" fill="#68AD36" transform="matrix(1.00012 0 0 1 965.715 402.955)"/><path d="M-246.106 238.603C-246.106 241.292-248.286 243.473-250.976 243.473-253.666 243.473-255.846 241.292-255.846 238.603-255.846 235.913-253.666 233.733-250.976 233.733-248.286 233.733-246.106 235.913-246.106 238.603Z" stroke="#487925" stroke-width="0.846968" fill="#68AD36" transform="matrix(1.00012 0 0 1 965.715 402.955)"/><path d="M-179.338 72.7623C-179.338 75.4519-181.519 77.6323-184.208 77.6323-186.898 77.6323-189.078 75.4519-189.078 72.7623-189.078 70.0726-186.898 67.8922-184.208 67.8922-181.519 67.8922-179.338 70.0726-179.338 72.7623Z" stroke="#487925" stroke-width="0.846968" fill="#68AD36" transform="matrix(1.00012 0 0 1 965.715 402.955)"/><path d="M-347.042 247.442C-347.042 250.132-349.223 252.312-351.912 252.312-354.602 252.312-356.782 250.132-356.782 247.442-356.782 244.752-354.602 242.572-351.912 242.572-349.223 242.572-347.042 244.752-347.042 247.442Z" stroke="#487925" stroke-width="0.846968" fill="#68AD36" transform="matrix(1.00012 0 0 1 965.715 402.955)"/><path d="M-410.406 281.287C-410.406 283.976-412.586 286.157-415.276 286.157-417.966 286.157-420.146 283.976-420.146 281.287-420.146 278.597-417.966 276.417-415.276 276.417-412.586 276.417-410.406 278.597-410.406 281.287Z" stroke="#B2512B" stroke-width="0.846968" fill="#FF743E" transform="matrix(1.00012 0 0 1 965.715 402.955)"/><path d="M-325.382 117.276C-325.382 119.966-327.563 122.147-330.252 122.147-332.942 122.147-335.122 119.966-335.122 117.276-335.122 114.587-332.942 112.406-330.252 112.406-327.563 112.406-325.382 114.587-325.382 117.276Z" stroke="#487925" stroke-width="0.846968" fill="#68AD36" transform="matrix(1.00012 0 0 1 965.715 402.955)"/><path d="M-242.382-69.5441C-242.382-66.8544-244.563-64.674-247.252-64.674-249.942-64.674-252.122-66.8544-252.122-69.5441-252.122-72.2337-249.942-74.4141-247.252-74.4141-244.563-74.4141-242.382-72.2337-242.382-69.5441Z" stroke="#487925" stroke-width="0.846968" fill="#68AD36" transform="matrix(1.00012 0 0 1 965.715 402.955)"/><path d="M-488.431 236.983C-488.431 239.672-490.611 241.853-493.301 241.853-495.99 241.853-498.171 239.672-498.171 236.983-498.171 234.293-495.99 232.113-493.301 232.113-490.611 232.113-488.431 234.293-488.431 236.983Z" stroke="#935690" stroke-width="0.846968" fill="#D27CCE" transform="matrix(1.00012 0 0 1 965.715 402.955)"/><path d="M-404.945 124.725C-404.945 127.415-407.126 129.595-409.816 129.595-412.505 129.595-414.686 127.415-414.686 124.725-414.686 122.036-412.505 119.855-409.816 119.855-407.126 119.855-404.945 122.036-404.945 124.725Z" stroke="#935690" stroke-width="0.846968" fill="#D27CCE" transform="matrix(1.00012 0 0 1 965.715 402.955)"/><path d="M-286.921-155.475C-286.921-152.786-289.102-150.605-291.791-150.605-294.481-150.605-296.661-152.786-296.661-155.475-296.661-158.165-294.481-160.346-291.791-160.346-289.102-160.346-286.921-158.165-286.921-155.475Z" stroke="#935690" stroke-width="0.846968" fill="#D27CCE" transform="matrix(1.00012 0 0 1 965.715 402.955)"/><path d="M-280.803 266.56C-280.803 269.25-282.983 271.43-285.673 271.43-288.362 271.43-290.543 269.25-290.543 266.56-290.543 263.871-288.362 261.69-285.673 261.69-282.983 261.69-280.803 263.871-280.803 266.56Z" stroke="#935690" stroke-width="0.846968" fill="#D27CCE" transform="matrix(1.00012 0 0 1 965.715 402.955)"/><path d="M-438.806 161.03C-438.806 163.719-440.986 165.9-443.676 165.9-446.366 165.9-448.546 163.719-448.546 161.03-448.546 158.34-446.366 156.159-443.676 156.159-440.986 156.159-438.806 158.34-438.806 161.03Z" stroke="#487925" stroke-width="0.846968" fill="#68AD36" transform="matrix(1.00012 0 0 1 965.715 402.955)"/><path d="M-294.267 20.4807C-294.267 23.1703-296.448 25.3507-299.137 25.3507-301.827 25.3507-304.007 23.1703-304.007 20.4807-304.007 17.791-301.827 15.6106-299.137 15.6106-296.448 15.6106-294.267 17.791-294.267 20.4807Z" stroke="#935690" stroke-width="0.846968" fill="#D27CCE" transform="matrix(1.00012 0 0 1 965.715 402.955)"/><path d="M-320.71 285.679C-320.71 288.368-322.891 290.549-325.581 290.549-328.27 290.549-330.451 288.368-330.451 285.679-330.451 282.989-328.27 280.809-325.581 280.809-322.891 280.809-320.71 282.989-320.71 285.679Z" stroke="#935690" stroke-width="0.846968" fill="#D27CCE" transform="matrix(1.00012 0 0 1 965.715 402.955)"/><path d="M-391.329-388.585C-391.329-385.896-393.509-383.715-396.199-383.715-398.889-383.715-401.069-385.896-401.069-388.585-401.069-391.275-398.889-393.455-396.199-393.455-393.509-393.455-391.329-391.275-391.329-388.585Z" stroke="#935690" stroke-width="0.846968" fill="#D27CCE" transform="matrix(1.00012 0 0 1 965.715 402.955)"/><path d="M342.271-169.459C342.271-166.77 340.091-164.589 337.401-164.589 334.712-164.589 332.531-166.77 332.531-169.459 332.531-172.149 334.712-174.33 337.401-174.33 340.091-174.33 342.271-172.149 342.271-169.459Z" stroke="#B2512B" stroke-width="0.846968" fill="#FF743E" transform="matrix(1.00012 0 0 1 965.715 402.955)"/><path d="M407.439-122.525C407.439-119.836 405.259-117.655 402.569-117.655 399.88-117.655 397.699-119.836 397.699-122.525 397.699-125.215 399.88-127.396 402.569-127.396 405.259-127.396 407.439-125.215 407.439-122.525Z" stroke="#487925" stroke-width="0.846968" fill="#68AD36" transform="matrix(1.00012 0 0 1 965.715 402.955)"/><path d="M235.323-102.724C235.323-100.034 233.143-97.8536 230.453-97.8536 227.764-97.8536 225.583-100.034 225.583-102.724 225.583-105.413 227.764-107.594 230.453-107.594 233.143-107.594 235.323-105.413 235.323-102.724Z" stroke="#487925" stroke-width="0.846968" fill="#68AD36" transform="matrix(1.00012 0 0 1 965.715 402.955)"/><path d="M171.912-214.458C171.912-211.768 169.732-209.588 167.042-209.588 164.353-209.588 162.172-211.768 162.172-214.458 162.172-217.148 164.353-219.328 167.042-219.328 169.732-219.328 171.912-217.148 171.912-214.458Z" stroke="#935690" stroke-width="0.846968" fill="#D27CCE" transform="matrix(1.00012 0 0 1 965.715 402.955)"/><path d="M205.287-21.9682C205.287-19.2785 203.107-17.0981 200.417-17.0981 197.727-17.0981 195.547-19.2785 195.547-21.9682 195.547-24.6579 197.727-26.8383 200.417-26.8383 203.107-26.8383 205.287-24.6579 205.287-21.9682Z" stroke="#935690" stroke-width="0.846968" fill="#D27CCE" transform="matrix(1.00012 0 0 1 965.715 402.955)"/><path d="M160.881-265.257C160.881-262.567 158.701-260.387 156.011-260.387 153.322-260.387 151.141-262.567 151.141-265.257 151.141-267.946 153.322-270.127 156.011-270.127 158.701-270.127 160.881-267.946 160.881-265.257Z" stroke="#935690" stroke-width="0.846968" fill="#D27CCE" transform="matrix(1.00012 0 0 1 965.715 402.955)"/><path d="M275.755-117.14C275.755-114.45 273.574-112.269 270.885-112.269 268.195-112.269 266.015-114.45 266.015-117.14 266.015-119.829 268.195-122.01 270.885-122.01 273.574-122.01 275.755-119.829 275.755-117.14Z" stroke="#935690" stroke-width="0.846968" fill="#D27CCE" transform="matrix(1.00012 0 0 1 965.715 402.955)"/><path d="M166.29-24.9138C166.29-22.2242 164.11-20.0438 161.42-20.0438 158.73-20.0438 156.55-22.2242 156.55-24.9138 156.55-27.6035 158.73-29.7839 161.42-29.7839 164.11-29.7839 166.29-27.6035 166.29-24.9138Z" stroke="#487925" stroke-width="0.846968" fill="#68AD36" transform="matrix(1.00012 0 0 1 965.715 402.955)"/><path d="M211.349-287.902C211.349-285.212 209.168-283.032 206.479-283.032 203.789-283.032 201.609-285.212 201.609-287.902 201.609-290.591 203.789-292.772 206.479-292.772 209.168-292.772 211.349-290.591 211.349-287.902Z" stroke="#487925" stroke-width="0.846968" fill="#68AD36" transform="matrix(1.00012 0 0 1 965.715 402.955)"/><path d="M311.458-139.071C311.458-136.381 309.278-134.201 306.588-134.201 303.899-134.201 301.718-136.381 301.718-139.071 301.718-141.76 303.899-143.941 306.588-143.941 309.278-143.941 311.458-141.76 311.458-139.071Z" stroke="#487925" stroke-width="0.846968" fill="#68AD36" transform="matrix(1.00012 0 0 1 965.715 402.955)"/><path d="M205.493-63.6231C205.493-60.9335 203.313-58.7531 200.623-58.7531 197.934-58.7531 195.753-60.9335 195.753-63.6231 195.753-66.3128 197.934-68.4932 200.623-68.4932 203.313-68.4932 205.493-66.3128 205.493-63.6231Z" stroke="#B2512B" stroke-width="0.846968" fill="#FF743E" transform="matrix(1.00012 0 0 1 965.715 402.955)"/><path d="M297.541-233.238C297.541-230.548 295.36-228.368 292.671-228.368 289.981-228.368 287.801-230.548 287.801-233.238 287.801-235.928 289.981-238.108 292.671-238.108 295.36-238.108 297.541-235.928 297.541-233.238Z" stroke="#935690" stroke-width="0.846968" fill="#D27CCE" transform="matrix(1.00012 0 0 1 965.715 402.955)"/><path d="M138.784-353.378C138.784-350.688 136.603-348.508 133.914-348.508 131.224-348.508 129.044-350.688 129.044-353.378 129.044-356.068 131.224-358.248 133.914-358.248 136.603-358.248 138.784-356.068 138.784-353.378Z" stroke="#935690" stroke-width="0.846968" fill="#D27CCE" transform="matrix(1.00012 0 0 1 965.715 402.955)"/><path d="M323.035-45.1353C323.035-42.4457 320.854-40.2653 318.165-40.2653 315.475-40.2653 313.295-42.4457 313.295-45.1353 313.295-47.825 315.475-50.0054 318.165-50.0054 320.854-50.0054 323.035-47.825 323.035-45.1353Z" stroke="#B2512B" stroke-width="0.846968" fill="#FF743E" transform="matrix(1.00012 0 0 1 965.715 402.955)"/><path d="M343.467-213.329C343.467-210.64 341.287-208.459 338.597-208.459 335.907-208.459 333.727-210.64 333.727-213.329 333.727-216.019 335.907-218.2 338.597-218.2 341.287-218.2 343.467-216.019 343.467-213.329Z" stroke="#935690" stroke-width="0.846968" fill="#D27CCE" transform="matrix(1.00012 0 0 1 965.715 402.955)"/><path d="M208.423-241.404C208.423-238.714 206.242-236.534 203.553-236.534 200.863-236.534 198.683-238.714 198.683-241.404 198.683-244.094 200.863-246.274 203.553-246.274 206.242-246.274 208.423-244.094 208.423-241.404Z" stroke="#487925" stroke-width="0.846968" fill="#68AD36" transform="matrix(1.00012 0 0 1 965.715 402.955)"/><path d="M325.144-94.472C325.144-91.7823 322.963-89.6019 320.274-89.6019 317.584-89.6019 315.404-91.7823 315.404-94.472 315.404-97.1617 317.584-99.3421 320.274-99.3421 322.963-99.3421 325.144-97.1617 325.144-94.472Z" stroke="#935690" stroke-width="0.846968" fill="#D27CCE" transform="matrix(1.00012 0 0 1 965.715 402.955)"/><path d="M190.638-107.579C190.638-104.89 188.458-102.709 185.768-102.709 183.078-102.709 180.898-104.89 180.898-107.579 180.898-110.269 183.078-112.449 185.768-112.449 188.458-112.449 190.638-110.269 190.638-107.579Z" stroke="#008098" stroke-width="0.846968" fill="#00B7DA" transform="matrix(1.00012 0 0 1 965.715 402.955)"/><path d="M178.671-155.074C178.671-152.384 176.49-150.203 173.801-150.203 171.111-150.203 168.931-152.384 168.931-155.074 168.931-157.763 171.111-159.944 173.801-159.944 176.49-159.944 178.671-157.763 178.671-155.074Z" stroke="#935690" stroke-width="0.846968" fill="#D27CCE" transform="matrix(1.00012 0 0 1 965.715 402.955)"/><path d="M65.5521-380.8C65.5521-378.11 63.3717-375.93 60.6821-375.93 57.9924-375.93 55.812-378.11 55.812-380.8 55.812-383.49 57.9924-385.67 60.6821-385.67 63.3717-385.67 65.5521-383.49 65.5521-380.8Z" stroke="#487925" stroke-width="0.846968" fill="#68AD36" transform="matrix(1.00012 0 0 1 965.715 402.955)"/><path d="M249.623-63.1108C249.623-60.4212 247.443-58.2408 244.753-58.2408 242.064-58.2408 239.883-60.4212 239.883-63.1108 239.883-65.8005 242.064-67.9809 244.753-67.9809 247.443-67.9809 249.623-65.8005 249.623-63.1108Z" stroke="#487925" stroke-width="0.846968" fill="#68AD36" transform="matrix(1.00012 0 0 1 965.715 402.955)"/><path d="M339.886-256.117C339.886-253.427 337.706-251.247 335.016-251.247 332.326-251.247 330.146-253.427 330.146-256.117 330.146-258.807 332.326-260.987 335.016-260.987 337.705-260.987 339.886-258.807 339.886-256.117Z" stroke="#935690" stroke-width="0.846968" fill="#D27CCE" transform="matrix(1.00012 0 0 1 965.715 402.955)"/><path d="M14.3894-379.903C14.3894-377.214 12.209-375.033 9.51932-375.033 6.82966-375.033 4.64925-377.214 4.64925-379.903 4.64925-382.593 6.82966-384.773 9.51932-384.773 12.209-384.773 14.3894-382.593 14.3894-379.903Z" stroke="#935690" stroke-width="0.846968" fill="#D27CCE" transform="matrix(1.00012 0 0 1 965.715 402.955)"/><path d="M264.896-162.579C264.896-159.89 262.716-157.709 260.026-157.709 257.337-157.709 255.156-159.89 255.156-162.579 255.156-165.269 257.337-167.449 260.026-167.449 262.716-167.449 264.896-165.269 264.896-162.579Z" stroke="#935690" stroke-width="0.846968" fill="#D27CCE" transform="matrix(1.00012 0 0 1 965.715 402.955)"/><path d="M162.991-68.4179C162.991-65.7283 160.81-63.5479 158.121-63.5479 155.431-63.5479 153.251-65.7283 153.251-68.4179 153.251-71.1076 155.431-73.288 158.121-73.288 160.81-73.288 162.991-71.1076 162.991-68.4179Z" stroke="#935690" stroke-width="0.846968" fill="#D27CCE" transform="matrix(1.00012 0 0 1 965.715 402.955)"/><path d="M385.679-237.371C385.679-234.681 383.499-232.501 380.809-232.501 378.119-232.501 375.939-234.681 375.939-237.371 375.939-240.061 378.119-242.241 380.809-242.241 383.499-242.241 385.679-240.061 385.679-237.371Z" stroke="#935690" stroke-width="0.846968" fill="#D27CCE" transform="matrix(1.00012 0 0 1 965.715 402.955)"/><path d="M224.405-145.638C224.405-142.948 222.224-140.768 219.535-140.768 216.845-140.768 214.665-142.948 214.665-145.638 214.665-148.327 216.845-150.508 219.535-150.508 222.224-150.508 224.405-148.327 224.405-145.638Z" stroke="#B2512B" stroke-width="0.846968" fill="#FF743E" transform="matrix(1.00012 0 0 1 965.715 402.955)"/><path d="M289.534-75.5805C289.534-72.8909 287.354-70.7105 284.664-70.7105 281.975-70.7105 279.794-72.8909 279.794-75.5805 279.794-78.2702 281.975-80.4506 284.664-80.4506 287.354-80.4506 289.534-78.2702 289.534-75.5805Z" stroke="#935690" stroke-width="0.846968" fill="#D27CCE" transform="matrix(1.00012 0 0 1 965.715 402.955)"/><path d="M141.892-178.861C141.892-176.171 139.712-173.991 137.022-173.991 134.332-173.991 132.152-176.171 132.152-178.861 132.152-181.55 134.332-183.731 137.022-183.731 139.712-183.731 141.892-181.55 141.892-178.861Z" stroke="#935690" stroke-width="0.846968" fill="#D27CCE" transform="matrix(1.00012 0 0 1 965.715 402.955)"/><path d="M94.4643-345.603C94.4643-342.914 92.2839-340.733 89.5943-340.733 86.9046-340.733 84.7242-342.914 84.7242-345.603 84.7242-348.293 86.9046-350.473 89.5943-350.473 92.2839-350.473 94.4643-348.293 94.4643-345.603Z" stroke="#B2512B" stroke-width="0.846968" fill="#FF743E" transform="matrix(1.00012 0 0 1 965.715 402.955)"/><path d="M300.839-188.023C300.839-185.333 298.659-183.153 295.969-183.153 293.28-183.153 291.099-185.333 291.099-188.023 291.099-190.713 293.28-192.893 295.969-192.893 298.659-192.893 300.839-190.713 300.839-188.023Z" stroke="#B2512B" stroke-width="0.846968" fill="#FF743E" transform="matrix(1.00012 0 0 1 965.715 402.955)"/><path d="M356.327-64.7853C356.327-62.0956 354.147-59.9152 351.457-59.9152 348.768-59.9152 346.587-62.0956 346.587-64.7853 346.587-67.4749 348.768-69.6553 351.457-69.6553 354.147-69.6553 356.327-67.4749 356.327-64.7853Z" stroke="#B2512B" stroke-width="0.846968" fill="#FF743E" transform="matrix(1.00012 0 0 1 965.715 402.955)"/><path d="M183.763-360.413C183.763-357.723 181.583-355.543 178.893-355.543 176.204-355.543 174.023-357.723 174.023-360.413 174.023-363.102 176.204-365.283 178.893-365.283 181.583-365.283 183.763-363.102 183.763-360.413Z" stroke="#935690" stroke-width="0.846968" fill="#D27CCE" transform="matrix(1.00012 0 0 1 965.715 402.955)"/><path d="M213.477-190.674C213.477-187.984 211.297-185.804 208.607-185.804 205.918-185.804 203.737-187.984 203.737-190.674 203.737-193.364 205.918-195.544 208.607-195.544 211.297-195.544 213.477-193.364 213.477-190.674Z" stroke="#B2512B" stroke-width="0.846968" fill="#FF743E" transform="matrix(1.00012 0 0 1 965.715 402.955)"/><path d="M285.668-31.2041C285.668-28.5144 283.488-26.334 280.798-26.334 278.108-26.334 275.928-28.5144 275.928-31.2041 275.928-33.8938 278.108-36.0742 280.798-36.0742 283.488-36.0742 285.668-33.8938 285.668-31.2041Z" stroke="#935690" stroke-width="0.846968" fill="#D27CCE" transform="matrix(1.00012 0 0 1 965.715 402.955)"/><path d="M232.645-383.598C232.645-380.909 230.465-378.728 227.775-378.728 225.085-378.728 222.905-380.909 222.905-383.598 222.905-386.288 225.085-388.469 227.775-388.469 230.465-388.469 232.645-386.288 232.645-383.598Z" stroke="#935690" stroke-width="0.846968" fill="#D27CCE" transform="matrix(1.00012 0 0 1 965.715 402.955)"/><path d="M77.9627-304.952C77.9627-302.262 75.7823-300.081 73.0927-300.081 70.403-300.081 68.2226-302.262 68.2226-304.952 68.2226-307.641 70.403-309.822 73.0927-309.822 75.7823-309.822 77.9627-307.641 77.9627-304.952Z" stroke="#935690" stroke-width="0.846968" fill="#D27CCE" transform="matrix(1.00012 0 0 1 965.715 402.955)"/><path d="M333.194-300.521C333.194-297.831 331.014-295.651 328.324-295.651 325.634-295.651 323.454-297.831 323.454-300.521 323.454-303.211 325.634-305.391 328.324-305.391 331.014-305.391 333.194-303.211 333.194-300.521Z" stroke="#935690" stroke-width="0.846968" fill="#D27CCE" transform="matrix(1.00012 0 0 1 965.715 402.955)"/><path d="M278.686-407.211C278.686-404.521 276.506-402.341 273.816-402.341 271.127-402.341 268.946-404.521 268.946-407.211 268.946-409.9 271.127-412.081 273.816-412.081 276.506-412.081 278.686-409.9 278.686-407.211Z" stroke="#935690" stroke-width="0.846968" fill="#D27CCE" transform="matrix(1.00012 0 0 1 965.715 402.955)"/><path d="M106.029-266.445C106.029-263.755 103.849-261.575 101.159-261.575 98.4696-261.575 96.2892-263.755 96.2892-266.445 96.2892-269.134 98.4696-271.315 101.159-271.315 103.849-271.315 106.029-269.134 106.029-266.445Z" stroke="#935690" stroke-width="0.846968" fill="#D27CCE" transform="matrix(1.00012 0 0 1 965.715 402.955)"/><path d="M149.697-400.142C149.697-397.453 147.517-395.272 144.827-395.272 142.137-395.272 139.957-397.453 139.957-400.142 139.957-402.832 142.137-405.012 144.827-405.012 147.517-405.012 149.697-402.832 149.697-400.142Z" stroke="#935690" stroke-width="0.846968" fill="#D27CCE" transform="matrix(1.00012 0 0 1 965.715 402.955)"/><path d="M307.244-440.31C307.244-437.621 305.064-435.44 302.374-435.44 299.685-435.44 297.504-437.621 297.504-440.31 297.504-443 299.685-445.181 302.374-445.181 305.064-445.181 307.244-443 307.244-440.31Z" stroke="#935690" stroke-width="0.846968" fill="#D27CCE" transform="matrix(1.00012 0 0 1 965.715 402.955)"/><path d="M114.162-142.461C114.162-139.771 111.981-137.591 109.292-137.591 106.602-137.591 104.422-139.771 104.422-142.461 104.422-145.15 106.602-147.331 109.292-147.331 111.981-147.331 114.162-145.15 114.162-142.461Z" stroke="#B2512B" stroke-width="0.846968" fill="#FF743E" transform="matrix(1.00012 0 0 1 965.715 402.955)"/><path d="M257.842-309.007C257.842-306.317 255.662-304.137 252.972-304.137 250.283-304.137 248.102-306.317 248.102-309.007 248.102-311.697 250.283-313.877 252.972-313.877 255.662-313.877 257.842-311.697 257.842-309.007Z" stroke="#935690" stroke-width="0.846968" fill="#D27CCE" transform="matrix(1.00012 0 0 1 965.715 402.955)"/><path d="M311.609-382.101C311.609-379.411 309.428-377.231 306.739-377.231 304.049-377.231 301.869-379.411 301.869-382.101 301.869-384.79 304.049-386.971 306.739-386.971 309.428-386.971 311.609-384.79 311.609-382.101Z" stroke="#B2512B" stroke-width="0.846968" fill="#FF743E" transform="matrix(1.00012 0 0 1 965.715 402.955)"/><path d="M148.245-116.818C148.245-114.129 146.065-111.948 143.375-111.948 140.685-111.948 138.505-114.129 138.505-116.818 138.505-119.508 140.685-121.688 143.375-121.688 146.065-121.688 148.245-119.508 148.245-116.818Z" stroke="#935690" stroke-width="0.846968" fill="#D27CCE" transform="matrix(1.00012 0 0 1 965.715 402.955)"/><path d="M254.681-210.227C254.681-207.537 252.501-205.356 249.811-205.356 247.121-205.356 244.941-207.537 244.941-210.227 244.941-212.916 247.121-215.097 249.811-215.097 252.501-215.097 254.681-212.916 254.681-210.227Z" stroke="#935690" stroke-width="0.846968" fill="#D27CCE" transform="matrix(1.00012 0 0 1 965.715 402.955)"/><path d="M203.633-445.381C203.633-442.691 201.452-440.511 198.763-440.511 196.073-440.511 193.893-442.691 193.893-445.381 193.893-448.07 196.073-450.251 198.763-450.251 201.452-450.251 203.633-448.07 203.633-445.381Z" stroke="#B2512B" stroke-width="0.846968" fill="#FF743E" transform="matrix(1.00012 0 0 1 965.715 402.955)"/><path d="M422.252-278.293C422.252-275.603 420.072-273.423 417.382-273.423 414.692-273.423 412.512-275.603 412.512-278.293 412.512-280.982 414.692-283.163 417.382-283.163 420.072-283.163 422.252-280.983 422.252-278.293Z" stroke="#B2512B" stroke-width="0.846968" fill="#FF743E" transform="matrix(1.00012 0 0 1 965.715 402.955)"/><path d="M40.9261-457.66C40.9261-454.97 38.7457-452.79 36.056-452.79 33.3663-452.79 31.1859-454.97 31.1859-457.66 31.1859-460.349 33.3663-462.53 36.056-462.53 38.7457-462.53 40.9261-460.349 40.9261-457.66Z" stroke="#935690" stroke-width="0.846968" fill="#D27CCE" transform="matrix(1.00012 0 0 1 965.715 402.955)"/><path d="M428.12-201.347C428.12-198.657 425.94-196.477 423.25-196.477 420.56-196.477 418.38-198.657 418.38-201.347 418.38-204.037 420.56-206.217 423.25-206.217 425.94-206.217 428.12-204.037 428.12-201.347Z" stroke="#935690" stroke-width="0.846968" fill="#D27CCE" transform="matrix(1.00012 0 0 1 965.715 402.955)"/><path d="M91.4451-49.8734C91.4451-47.1837 89.2647-45.0033 86.575-45.0033 83.8853-45.0033 81.7049-47.1837 81.7049-49.8734 81.7049-52.563 83.8853-54.7434 86.575-54.7434 89.2647-54.7434 91.4451-52.563 91.4451-49.8734Z" stroke="#B2512B" stroke-width="0.846968" fill="#FF743E" transform="matrix(1.00012 0 0 1 965.715 402.955)"/><path d="M5.99455-434.847C5.99455-432.157 3.81415-429.976 1.12449-429.976-1.56518-429.976-3.74558-432.157-3.74558-434.847-3.74558-437.536-1.56518-439.717 1.12449-439.717 3.81415-439.717 5.99455-437.536 5.99455-434.847Z" stroke="#935690" stroke-width="0.846968" fill="#D27CCE" transform="matrix(1.00012 0 0 1 965.715 402.955)"/><path d="M39.7858-413.335C39.7858-410.645 37.6054-408.465 34.9157-408.465 32.226-408.465 30.0456-410.645 30.0456-413.335 30.0456-416.024 32.226-418.205 34.9157-418.205 37.6054-418.205 39.7858-416.024 39.7858-413.335Z" stroke="#935690" stroke-width="0.846968" fill="#D27CCE" transform="matrix(1.00012 0 0 1 965.715 402.955)"/><path d="M242.622-427.995C242.622-425.305 240.442-423.125 237.752-423.125 235.062-423.125 232.882-425.305 232.882-427.995 232.882-430.684 235.062-432.865 237.752-432.865 240.442-432.865 242.622-430.684 242.622-427.995Z" stroke="#B2512B" stroke-width="0.846968" fill="#FF743E" transform="matrix(1.00012 0 0 1 965.715 402.955)"/><path d="M-19.2041-404.827C-19.2041-402.138-21.3845-399.957-24.0741-399.957-26.7638-399.957-28.9442-402.138-28.9442-404.827-28.9442-407.517-26.7638-409.698-24.0741-409.698-21.3845-409.698-19.2041-407.517-19.2041-404.827Z" stroke="#935690" stroke-width="0.846968" fill="#D27CCE" transform="matrix(1.00012 0 0 1 965.715 402.955)"/><path d="M79.0601-429.503C79.0601-426.814 76.8797-424.633 74.1901-424.633 71.5004-424.633 69.32-426.814 69.32-429.503 69.32-432.193 71.5004-434.373 74.1901-434.373 76.8797-434.373 79.0601-432.193 79.0601-429.503Z" stroke="#935690" stroke-width="0.846968" fill="#D27CCE" transform="matrix(1.00012 0 0 1 965.715 402.955)"/><path d="M193.501-485.547C193.501-482.857 191.321-480.677 188.631-480.677 185.941-480.677 183.761-482.857 183.761-485.547 183.761-488.237 185.941-490.417 188.631-490.417 191.321-490.417 193.501-488.237 193.501-485.547Z" stroke="#935690" stroke-width="0.846968" fill="#D27CCE" transform="matrix(1.00012 0 0 1 965.715 402.955)"/><path d="M53.7867-264.133C53.7867-261.443 51.6063-259.263 48.9167-259.263 46.227-259.263 44.0466-261.443 44.0466-264.133 44.0466-266.823 46.227-269.003 48.9167-269.003 51.6063-269.003 53.7867-266.823 53.7867-264.133Z" stroke="#935690" stroke-width="0.846968" fill="#D27CCE" transform="matrix(1.00012 0 0 1 965.715 402.955)"/><path d="M119.19-439.828C119.19-437.139 117.01-434.958 114.32-434.958 111.631-434.958 109.45-437.139 109.45-439.828 109.45-442.518 111.631-444.698 114.32-444.698 117.01-444.698 119.19-442.518 119.19-439.828Z" stroke="#935690" stroke-width="0.846968" fill="#D27CCE" transform="matrix(1.00012 0 0 1 965.715 402.955)"/><path d="M77.3491-472.777C77.3491-470.087 75.1687-467.907 72.479-467.907 69.7894-467.907 67.609-470.087 67.609-472.777 67.609-475.466 69.7894-477.647 72.479-477.647 75.1687-477.647 77.3491-475.466 77.3491-472.777Z" stroke="#935690" stroke-width="0.846968" fill="#D27CCE" transform="matrix(1.00012 0 0 1 965.715 402.955)"/><path d="M76.1101-226.399C76.1101-223.709 73.9297-221.529 71.24-221.529 68.5503-221.529 66.3699-223.709 66.3699-226.399 66.3699-229.089 68.5503-231.269 71.24-231.269 73.9297-231.269 76.1101-229.089 76.1101-226.399Z" stroke="#935690" stroke-width="0.846968" fill="#D27CCE" transform="matrix(1.00012 0 0 1 965.715 402.955)"/><path d="M107.525-393.228C107.525-390.538 105.345-388.358 102.655-388.358 99.9655-388.358 97.7851-390.538 97.7851-393.228 97.7851-395.918 99.9655-398.098 102.655-398.098 105.345-398.098 107.525-395.918 107.525-393.228Z" stroke="#935690" stroke-width="0.846968" fill="#D27CCE" transform="matrix(1.00012 0 0 1 965.715 402.955)"/><path d="M114.662-482.293C114.662-479.604 112.482-477.423 109.792-477.423 107.102-477.423 104.922-479.603 104.922-482.293 104.922-484.983 107.102-487.163 109.792-487.163 112.482-487.163 114.662-484.983 114.662-482.293Z" stroke="#935690" stroke-width="0.846968" fill="#D27CCE" transform="matrix(1.00012 0 0 1 965.715 402.955)"/><path d="M126.564-226.771C126.564-224.081 124.383-221.901 121.694-221.901 119.004-221.901 116.823-224.081 116.823-226.771 116.823-229.46 119.004-231.641 121.694-231.641 124.383-231.641 126.564-229.46 126.564-226.771Z" stroke="#935690" stroke-width="0.846968" fill="#D27CCE" transform="matrix(1.00012 0 0 1 965.715 402.955)"/><path d="M-37.6399-371.675C-37.6399-368.986-39.8203-366.805-42.51-366.805-45.1997-366.805-47.3801-368.986-47.3801-371.675-47.3801-374.365-45.1997-376.545-42.51-376.545-39.8203-376.545-37.6399-374.365-37.6399-371.675Z" stroke="#935690" stroke-width="0.846968" fill="#D27CCE" transform="matrix(1.00012 0 0 1 965.715 402.955)"/><path d="M235.719-475.789C235.719-473.099 233.538-470.919 230.849-470.919 228.159-470.919 225.979-473.099 225.979-475.789 225.979-478.478 228.159-480.659 230.849-480.659 233.538-480.659 235.719-478.478 235.719-475.789Z" stroke="#935690" stroke-width="0.846968" fill="#D27CCE" transform="matrix(1.00012 0 0 1 965.715 402.955)"/><path d="M193.785-404.31C193.785-401.62 191.605-399.44 188.915-399.44 186.226-399.44 184.045-401.62 184.045-404.31 184.045-407 186.226-409.18 188.915-409.18 191.605-409.18 193.785-407 193.785-404.31Z" stroke="#B2512B" stroke-width="0.846968" fill="#FF743E" transform="matrix(1.00012 0 0 1 965.715 402.955)"/><path d="M47.1904-185.911C47.1904-183.222 45.01-181.041 42.3203-181.041 39.6306-181.041 37.4502-183.222 37.4502-185.911 37.4502-188.601 39.6306-190.781 42.3203-190.781 45.01-190.781 47.1904-188.601 47.1904-185.911Z" stroke="#935690" stroke-width="0.846968" fill="#D27CCE" transform="matrix(1.00012 0 0 1 965.715 402.955)"/><path d="M273.187-459.847C273.187-457.157 271.006-454.977 268.317-454.977 265.627-454.977 263.447-457.157 263.447-459.847 263.447-462.536 265.627-464.717 268.317-464.717 271.006-464.717 273.187-462.536 273.187-459.847Z" stroke="#935690" stroke-width="0.846968" fill="#D27CCE" transform="matrix(1.00012 0 0 1 965.715 402.955)"/><path d="M222.396-336.657C222.396-333.967 220.216-331.787 217.526-331.787 214.837-331.787 212.656-333.967 212.656-336.657 212.656-339.347 214.837-341.527 217.526-341.527 220.216-341.527 222.396-339.347 222.396-336.657Z" stroke="#935690" stroke-width="0.846968" fill="#D27CCE" transform="matrix(1.00012 0 0 1 965.715 402.955)"/><path d="M94.9338-185.857C94.9338-183.167 92.7534-180.987 90.0637-180.987 87.3741-180.987 85.1937-183.167 85.1937-185.857 85.1937-188.546 87.3741-190.727 90.0637-190.727 92.7534-190.727 94.9338-188.546 94.9338-185.857Z" stroke="#935690" stroke-width="0.846968" fill="#D27CCE" transform="matrix(1.00012 0 0 1 965.715 402.955)"/><path d="M-20.2424-219.284C-20.2424-216.595-22.4228-214.414-25.1125-214.414-27.8022-214.414-29.9826-216.595-29.9826-219.284-29.9826-221.974-27.8022-224.154-25.1125-224.154-22.4228-224.154-20.2424-221.974-20.2424-219.284Z" stroke="#935690" stroke-width="0.846968" fill="#D27CCE" transform="matrix(1.00012 0 0 1 965.715 402.955)"/><path d="M252.403-258.245C252.403-255.556 250.222-253.375 247.532-253.375 244.843-253.375 242.662-255.556 242.662-258.245 242.662-260.935 244.843-263.115 247.532-263.115 250.222-263.115 252.403-260.935 252.403-258.245Z" stroke="#935690" stroke-width="0.846968" fill="#D27CCE" transform="matrix(1.00012 0 0 1 965.715 402.955)"/><path d="M128.35-306.007C128.35-303.318 126.169-301.137 123.48-301.137 120.79-301.137 118.61-303.318 118.61-306.007 118.61-308.697 120.79-310.877 123.48-310.877 126.169-310.877 128.35-308.697 128.35-306.007Z" stroke="#B2512B" stroke-width="0.846968" fill="#FF743E" transform="matrix(1.00012 0 0 1 965.715 402.955)"/><path d="M19.533-147.551C19.533-144.861 17.3526-142.681 14.6629-142.681 11.9733-142.681 9.79285-144.861 9.79285-147.551 9.79285-150.241 11.9733-152.421 14.6629-152.421 17.3526-152.421 19.533-150.241 19.533-147.551Z" stroke="#935690" stroke-width="0.846968" fill="#D27CCE" transform="matrix(1.00012 0 0 1 965.715 402.955)"/><path d="M341.194-352.831C341.194-350.141 339.014-347.961 336.324-347.961 333.634-347.961 331.454-350.141 331.454-352.831 331.454-355.521 333.634-357.701 336.324-357.701 339.014-357.701 341.194-355.521 341.194-352.831Z" stroke="#935690" stroke-width="0.846968" fill="#D27CCE" transform="matrix(1.00012 0 0 1 965.715 402.955)"/><path d="M173.699-313.464C173.699-310.774 171.519-308.594 168.829-308.594 166.139-308.594 163.959-310.774 163.959-313.464 163.959-316.154 166.139-318.334 168.829-318.334 171.519-318.334 173.699-316.154 173.699-313.464Z" stroke="#935690" stroke-width="0.846968" fill="#D27CCE" transform="matrix(1.00012 0 0 1 965.715 402.955)"/><path d="M43.8315-343.881C43.8315-341.191 41.6511-339.011 38.9614-339.011 36.2718-339.011 34.0913-341.191 34.0913-343.881 34.0913-346.57 36.2718-348.751 38.9614-348.751 41.6511-348.751 43.8315-346.57 43.8315-343.881Z" stroke="#935690" stroke-width="0.846968" fill="#D27CCE" transform="matrix(1.00012 0 0 1 965.715 402.955)"/><path d="M411.592-317.57C411.592-314.881 409.412-312.7 406.722-312.7 404.033-312.7 401.852-314.88 401.852-317.57 401.852-320.26 404.033-322.44 406.722-322.44 409.412-322.44 411.592-320.26 411.592-317.57Z" stroke="#B2512B" stroke-width="0.846968" fill="#FF743E" transform="matrix(1.00012 0 0 1 965.715 402.955)"/><path d="M300.813-331.463C300.813-328.773 298.632-326.593 295.943-326.593 293.253-326.593 291.072-328.773 291.072-331.463 291.072-334.152 293.253-336.333 295.943-336.333 298.632-336.333 300.813-334.153 300.813-331.463Z" stroke="#935690" stroke-width="0.846968" fill="#D27CCE" transform="matrix(1.00012 0 0 1 965.715 402.955)"/><path d="M26.429-224.01C26.429-221.32 24.2486-219.14 21.5589-219.14 18.8692-219.14 16.6888-221.32 16.6888-224.01 16.6888-226.7 18.8692-228.88 21.5589-228.88 24.2486-228.88 26.429-226.7 26.429-224.01Z" stroke="#935690" stroke-width="0.846968" fill="#D27CCE" transform="matrix(1.00012 0 0 1 965.715 402.955)"/><path d="M428.235-239.883C428.235-237.193 426.055-235.013 423.365-235.013 420.675-235.013 418.495-237.193 418.495-239.883 418.495-242.573 420.675-244.753 423.365-244.753 426.055-244.753 428.235-242.573 428.235-239.883Z" stroke="#487925" stroke-width="0.846968" fill="#68AD36" transform="matrix(1.00012 0 0 1 965.715 402.955)"/><path d="M369.88-320.728C369.88-318.039 367.699-315.858 365.01-315.858 362.32-315.858 360.14-318.039 360.14-320.728 360.14-323.418 362.32-325.598 365.01-325.598 367.699-325.598 369.88-323.418 369.88-320.728Z" stroke="#487925" stroke-width="0.846968" fill="#68AD36" transform="matrix(1.00012 0 0 1 965.715 402.955)"/><path d="M160.588-444.312C160.588-441.623 158.408-439.442 155.718-439.442 153.028-439.442 150.848-441.623 150.848-444.312 150.848-447.002 153.028-449.182 155.718-449.182 158.408-449.182 160.588-447.002 160.588-444.312Z" stroke="#935690" stroke-width="0.846968" fill="#D27CCE" transform="matrix(1.00012 0 0 1 965.715 402.955)"/><path d="M381.295-154.326C381.295-151.636 379.115-149.456 376.425-149.456 373.735-149.456 371.555-151.636 371.555-154.326 371.555-157.016 373.735-159.196 376.425-159.196 379.115-159.196 381.295-157.016 381.295-154.326Z" stroke="#935690" stroke-width="0.846968" fill="#D27CCE" transform="matrix(1.00012 0 0 1 965.715 402.955)"/><path d="M379.63-278.532C379.63-275.843 377.449-273.662 374.76-273.662 372.07-273.662 369.889-275.843 369.889-278.532 369.889-281.222 372.07-283.402 374.76-283.402 377.449-283.402 379.63-281.222 379.63-278.532Z" stroke="#935690" stroke-width="0.846968" fill="#D27CCE" transform="matrix(1.00012 0 0 1 965.715 402.955)"/><path d="M268.562-359.807C268.562-357.117 266.382-354.937 263.692-354.937 261.002-354.937 258.822-357.117 258.822-359.807 258.822-362.497 261.002-364.677 263.692-364.677 266.382-364.677 268.562-362.497 268.562-359.807Z" stroke="#935690" stroke-width="0.846968" fill="#D27CCE" transform="matrix(1.00012 0 0 1 965.715 402.955)"/><path d="M355.294-121.388C355.294-118.699 353.113-116.518 350.423-116.518 347.734-116.518 345.553-118.699 345.553-121.388 345.553-124.078 347.734-126.258 350.423-126.258 353.113-126.258 355.294-124.078 355.294-121.388Z" stroke="#935690" stroke-width="0.846968" fill="#D27CCE" transform="matrix(1.00012 0 0 1 965.715 402.955)"/><path d="M422.723-162.082C422.723-159.393 420.543-157.212 417.853-157.212 415.163-157.212 412.983-159.393 412.983-162.082 412.983-164.772 415.163-166.952 417.853-166.952 420.543-166.952 422.723-164.772 422.723-162.082Z" stroke="#935690" stroke-width="0.846968" fill="#D27CCE" transform="matrix(1.00012 0 0 1 965.715 402.955)"/><path d="M391.281-357.12C391.281-354.431 389.1-352.25 386.411-352.25 383.721-352.25 381.541-354.431 381.541-357.12 381.541-359.81 383.721-361.99 386.411-361.99 389.1-361.99 391.281-359.81 391.281-357.12Z" stroke="#B2512B" stroke-width="0.846968" fill="#FF743E" transform="matrix(1.00012 0 0 1 965.715 402.955)"/><path d="M31.3484-303.331C31.3484-300.642 29.168-298.461 26.4783-298.461 23.7887-298.461 21.6083-300.642 21.6083-303.331 21.6083-306.021 23.7887-308.201 26.4783-308.201 29.168-308.201 31.3484-306.021 31.3484-303.331Z" stroke="#B2512B" stroke-width="0.846968" fill="#FF743E" transform="matrix(1.00012 0 0 1 965.715 402.955)"/><path d="M384.141-90.8654C384.141-88.1757 381.961-85.9953 379.271-85.9953 376.582-85.9953 374.401-88.1757 374.401-90.8654 374.401-93.5551 376.582-95.7355 379.271-95.7355 381.961-95.7355 384.141-93.5551 384.141-90.8654Z" stroke="#935690" stroke-width="0.846968" fill="#D27CCE" transform="matrix(1.00012 0 0 1 965.715 402.955)"/><path d="M294.034-279.611C294.034-276.921 291.854-274.741 289.164-274.741 286.475-274.741 284.294-276.921 284.294-279.611 284.294-282.3 286.475-284.481 289.164-284.481 291.854-284.481 294.034-282.3 294.034-279.611Z" stroke="#935690" stroke-width="0.846968" fill="#D27CCE" transform="matrix(1.00012 0 0 1 965.715 402.955)"/><path d="M5.78619-261.543C5.78619-258.853 3.60578-256.673 0.916118-256.673-1.77355-256.673-3.95395-258.853-3.95395-261.543-3.95395-264.233-1.77355-266.413 0.916118-266.413 3.60578-266.413 5.78619-264.233 5.78619-261.543Z" stroke="#935690" stroke-width="0.846968" fill="#D27CCE" transform="matrix(1.00012 0 0 1 965.715 402.955)"/><path d="M122.391-80.161C122.391-77.4713 120.211-75.2909 117.521-75.2909 114.832-75.2909 112.651-77.4713 112.651-80.161 112.651-82.8507 114.832-85.0311 117.521-85.0311 120.211-85.0311 122.391-82.8507 122.391-80.161Z" stroke="#935690" stroke-width="0.846968" fill="#D27CCE" transform="matrix(1.00012 0 0 1 965.715 402.955)"/><path d="M-0.0160601-184.069C-0.0160601-181.379-2.19646-179.199-4.88613-179.199-7.57579-179.199-9.75619-181.379-9.75619-184.069-9.75619-186.758-7.57579-188.939-4.88613-188.939-2.19646-188.939-0.0160606-186.758-0.0160601-184.069Z" stroke="#935690" stroke-width="0.846968" fill="#D27CCE" transform="matrix(1.00012 0 0 1 965.715 402.955)"/><path d="M-10.8123-302.039C-10.8123-299.349-12.9927-297.169-15.6824-297.169-18.372-297.169-20.5524-299.349-20.5524-302.039-20.5524-304.728-18.372-306.909-15.6824-306.909-12.9927-306.909-10.8123-304.728-10.8123-302.039Z" stroke="#935690" stroke-width="0.846968" fill="#D27CCE" transform="matrix(1.00012 0 0 1 965.715 402.955)"/><path d="M-49.8593-293.933C-49.8593-291.243-52.0397-289.063-54.7294-289.063-57.419-289.063-59.5994-291.243-59.5994-293.933-59.5994-296.622-57.419-298.803-54.7294-298.803-52.0397-298.803-49.8593-296.622-49.8593-293.933Z" stroke="#B2512B" stroke-width="0.846968" fill="#FF743E" transform="matrix(1.00012 0 0 1 965.715 402.955)"/><path d="M66.8228-145.899C66.8228-143.21 64.6423-141.029 61.9527-141.029 59.263-141.029 57.0826-143.21 57.0826-145.899 57.0826-148.589 59.263-150.769 61.9527-150.769 64.6423-150.769 66.8228-148.589 66.8228-145.899Z" stroke="#935690" stroke-width="0.846968" fill="#D27CCE" transform="matrix(1.00012 0 0 1 965.715 402.955)"/><path d="M245.227-22.7586C245.227-20.0689 243.047-17.8885 240.357-17.8885 237.668-17.8885 235.487-20.0689 235.487-22.7586 235.487-25.4482 237.668-27.6286 240.357-27.6286 243.047-27.6286 245.227-25.4482 245.227-22.7586Z" stroke="#935690" stroke-width="0.846968" fill="#D27CCE" transform="matrix(1.00012 0 0 1 965.715 402.955)"/><path d="M-3.12695-343.224C-3.12695-340.535-5.30735-338.354-7.99702-338.354-10.6867-338.354-12.8671-340.535-12.8671-343.224-12.8671-345.914-10.6867-348.095-7.99702-348.095-5.30735-348.095-3.12695-345.914-3.12695-343.224Z" stroke="#487925" stroke-width="0.846968" fill="#68AD36" transform="matrix(1.00012 0 0 1 965.715 402.955)"/><path d="M-37.4715-255.372C-37.4715-252.683-39.652-250.502-42.3416-250.502-45.0313-250.502-47.2117-252.683-47.2117-255.372-47.2117-258.062-45.0313-260.242-42.3416-260.242-39.652-260.242-37.4715-258.062-37.4715-255.372Z" stroke="#935690" stroke-width="0.846968" fill="#D27CCE" transform="matrix(1.00012 0 0 1 965.715 402.955)"/><path d="M338.051-416.73C338.051-414.04 335.871-411.86 333.181-411.86 330.491-411.86 328.311-414.04 328.311-416.73 328.311-419.42 330.491-421.6 333.181-421.6 335.87-421.6 338.051-419.42 338.051-416.73Z" stroke="#487925" stroke-width="0.846968" fill="#68AD36" transform="matrix(1.00012 0 0 1 965.715 402.955)"/><path d="M128.035-33.5386C128.035-30.8489 125.854-28.6685 123.164-28.6685 120.475-28.6685 118.294-30.8489 118.294-33.5386 118.294-36.2283 120.475-38.4087 123.164-38.4087 125.854-38.4087 128.035-36.2283 128.035-33.5386Z" stroke="#487925" stroke-width="0.846968" fill="#68AD36" transform="matrix(1.00012 0 0 1 965.715 402.955)"/><path d="M-47.6509-334.463C-47.6509-331.773-49.8313-329.593-52.521-329.593-55.2107-329.593-57.3911-331.773-57.3911-334.463-57.3911-337.152-55.2107-339.333-52.521-339.333-49.8313-339.333-47.6509-337.152-47.6509-334.463Z" stroke="#935690" stroke-width="0.846968" fill="#D27CCE" transform="matrix(1.00012 0 0 1 965.715 402.955)"/><path d="M365.585-388.85C365.585-386.16 363.404-383.98 360.715-383.98 358.025-383.98 355.845-386.16 355.845-388.85 355.845-391.54 358.025-393.72 360.715-393.72 363.404-393.72 365.585-391.54 365.585-388.85Z" stroke="#008098" stroke-width="0.846968" fill="#00B7DA" transform="matrix(1.00012 0 0 1 965.715 402.955)"/><path d="M385.935-196.128C385.935-193.438 383.755-191.258 381.065-191.258 378.375-191.258 376.195-193.438 376.195-196.128 376.195-198.817 378.375-200.998 381.065-200.998 383.755-200.998 385.935-198.817 385.935-196.128Z" stroke="#B2512B" stroke-width="0.846968" fill="#FF743E" transform="matrix(1.00012 0 0 1 965.715 402.955)"/><path d="M153.187-485.969C153.187-483.279 151.007-481.099 148.317-481.099 145.628-481.099 143.447-483.279 143.447-485.969 143.447-488.658 145.628-490.839 148.317-490.839 151.007-490.839 153.187-488.658 153.187-485.969Z" stroke="#487925" stroke-width="0.846968" fill="#68AD36" transform="matrix(1.00012 0 0 1 965.715 402.955)"/><path d="M38.7487-110.637C38.7487-107.947 36.5683-105.767 33.8786-105.767 31.1889-105.767 29.0085-107.947 29.0085-110.637 29.0085-113.326 31.1889-115.507 33.8786-115.507 36.5683-115.507 38.7487-113.326 38.7487-110.637Z" stroke="#487925" stroke-width="0.846968" fill="#68AD36" transform="matrix(1.00012 0 0 1 965.715 402.955)"/><path d="M89.1204-106.248C89.1204-103.558 86.94-101.378 84.2504-101.378 81.5607-101.378 79.3803-103.558 79.3803-106.248 79.3803-108.937 81.5607-111.118 84.2504-111.118 86.94-111.118 89.1204-108.937 89.1204-106.248Z" stroke="#935690" stroke-width="0.846968" fill="#D27CCE" transform="matrix(1.00012 0 0 1 965.715 402.955)"/><path d="M60.5148-75.6977C60.5148-73.008 58.3344-70.8276 55.6448-70.8276 52.9551-70.8276 50.7747-73.008 50.7747-75.6977 50.7747-78.3873 52.9551-80.5677 55.6448-80.5677 58.3344-80.5677 60.5148-78.3873 60.5148-75.6977Z" stroke="#487925" stroke-width="0.846968" fill="#68AD36" transform="matrix(1.00012 0 0 1 965.715 402.955)"/></g></svg>