<svg width="960" height="720" xmlns="http://www.w3.org/2000/svg" xmlns:xlink="http://www.w3.org/1999/xlink" xml:space="preserve" overflow="hidden"><defs><clipPath id="clip0"><rect x="160" y="0" width="960" height="720"/></clipPath></defs><g clip-path="url(#clip0)" transform="translate(-160 0)"><path d="M185.53 672.149C185.53 677.225 181.415 681.339 176.34 681.339 171.264 681.339 167.149 677.225 167.149 672.149 167.149 667.073 171.264 662.958 176.34 662.958 181.415 662.958 185.53 667.073 185.53 672.149Z" stroke="#935690" stroke-width="1.59833" fill="#D27CCE" transform="matrix(1 0 0 1.00026 310.843 -415.133)"/><path d="M-34.2373 653.767C-34.2373 658.842-38.352 662.957-43.4277 662.957-48.5035 662.957-52.6182 658.843-52.6182 653.767-52.6182 648.691-48.5035 644.576-43.4277 644.576-38.352 644.576-34.2373 648.691-34.2373 653.767Z" stroke="#935690" stroke-width="1.59833" fill="#D27CCE" transform="matrix(1 0 0 1.00026 310.843 -415.133)"/><path d="M11.559 758.489C11.559 763.565 7.44432 767.68 2.36859 767.68-2.70715 767.68-6.82184 763.565-6.82184 758.489-6.82184 753.414-2.70715 749.299 2.36859 749.299 7.44432 749.299 11.559 753.414 11.559 758.489Z" stroke="#935690" stroke-width="1.59833" fill="#D27CCE" transform="matrix(1 0 0 1.00026 310.843 -415.133)"/><path d="M104.907 502.624C104.907 507.699 100.792 511.814 95.7166 511.814 90.6409 511.814 86.5262 507.699 86.5262 502.624 86.5262 497.548 90.6409 493.433 95.7166 493.433 100.792 493.433 104.907 497.548 104.907 502.624Z" stroke="#487925" stroke-width="1.59833" fill="#68AD36" transform="matrix(1 0 0 1.00026 310.843 -415.133)"/><path d="M398.035 445.341C398.035 450.417 393.921 454.532 388.845 454.532 383.769 454.532 379.655 450.417 379.655 445.341 379.655 440.266 383.769 436.151 388.845 436.151 393.921 436.151 398.035 440.266 398.035 445.341Z" stroke="#487925" stroke-width="1.59833" fill="#68AD36" transform="matrix(1 0 0 1.00026 310.843 -415.133)"/><path d="M401.117 637.169C401.117 642.245 397.002 646.36 391.926 646.36 386.85 646.36 382.736 642.245 382.736 637.169 382.736 632.094 386.85 627.979 391.926 627.979 397.002 627.979 401.117 632.094 401.117 637.169Z" stroke="#B2512B" stroke-width="1.59833" fill="#FF743E" transform="matrix(1 0 0 1.00026 310.843 -415.133)"/><path d="M27.5336 573.943C27.5336 579.018 23.4189 583.133 18.3432 583.133 13.2675 583.133 9.15279 579.018 9.15279 573.943 9.15279 568.867 13.2675 564.752 18.3432 564.752 23.4189 564.752 27.5336 568.867 27.5336 573.943Z" stroke="#487925" stroke-width="1.59833" fill="#68AD36" transform="matrix(1 0 0 1.00026 310.843 -415.133)"/><path d="M249.231 751.049C249.231 756.125 245.116 760.24 240.041 760.24 234.965 760.24 230.85 756.125 230.85 751.049 230.85 745.974 234.965 741.859 240.041 741.859 245.116 741.859 249.231 745.973 249.231 751.049Z" stroke="#B2512B" stroke-width="1.59833" fill="#FF743E" transform="matrix(1 0 0 1.00026 310.843 -415.133)"/><path d="M295.496 647.842C295.496 652.917 291.381 657.032 286.305 657.032 281.23 657.032 277.115 652.918 277.115 647.842 277.115 642.766 281.23 638.651 286.305 638.651 291.381 638.651 295.496 642.766 295.496 647.842Z" stroke="#487925" stroke-width="1.59833" fill="#68AD36" transform="matrix(1 0 0 1.00026 310.843 -415.133)"/><path d="M66.9013 669.981C66.9013 675.057 62.7866 679.172 57.7109 679.172 52.6352 679.172 48.5205 675.057 48.5205 669.981 48.5205 664.906 52.6352 660.791 57.7109 660.791 62.7866 660.791 66.9013 664.906 66.9013 669.981Z" stroke="#B2512B" stroke-width="1.59833" fill="#FF743E" transform="matrix(1 0 0 1.00026 310.843 -415.133)"/><path d="M198.973 468.979C198.973 474.055 194.858 478.169 189.783 478.169 184.707 478.169 180.592 474.055 180.592 468.979 180.592 463.903 184.707 459.788 189.783 459.788 194.858 459.788 198.973 463.903 198.973 468.979Z" stroke="#487925" stroke-width="1.59833" fill="#68AD36" transform="matrix(1 0 0 1.00026 310.843 -415.133)"/><path d="M137.523 588.756C137.523 593.832 133.408 597.947 128.333 597.947 123.257 597.947 119.142 593.832 119.142 588.756 119.142 583.68 123.257 579.566 128.333 579.566 133.408 579.566 137.523 583.68 137.523 588.756Z" stroke="#935690" stroke-width="1.59833" fill="#D27CCE" transform="matrix(1 0 0 1.00026 310.843 -415.133)"/><path d="M361.798 744.339C361.798 749.415 357.683 753.53 352.607 753.53 347.531 753.53 343.417 749.415 343.417 744.339 343.417 739.264 347.531 735.149 352.607 735.149 357.683 735.149 361.798 739.263 361.798 744.339Z" stroke="#487925" stroke-width="1.59833" fill="#68AD36" transform="matrix(1 0 0 1.00026 310.843 -415.133)"/><path d="M607.523 641.492C607.523 646.568 603.409 650.683 598.333 650.683 593.257 650.683 589.142 646.568 589.142 641.492 589.142 636.417 593.257 632.302 598.333 632.302 603.409 632.302 607.523 636.417 607.523 641.492Z" stroke="#487925" stroke-width="1.59833" fill="#68AD36" transform="matrix(1 0 0 1.00026 310.843 -415.133)"/><path d="M344.254 542.982C344.254 548.058 340.139 552.173 335.063 552.173 329.987 552.173 325.873 548.058 325.873 542.982 325.873 537.906 329.987 533.792 335.063 533.792 340.139 533.792 344.254 537.906 344.254 542.982Z" stroke="#487925" stroke-width="1.59833" fill="#68AD36" transform="matrix(1 0 0 1.00026 310.843 -415.133)"/><path d="M-120.487 823.718C-120.487 828.794-124.602 832.909-129.677 832.909-134.753 832.909-138.868 828.794-138.868 823.718-138.868 818.643-134.753 814.528-129.677 814.528-124.602 814.528-120.487 818.643-120.487 823.718Z" stroke="#B2512B" stroke-width="1.59833" fill="#FF743E" transform="matrix(1 0 0 1.00026 310.843 -415.133)"/><path d="M450.192 536.889C450.192 541.965 446.077 546.079 441.002 546.079 435.926 546.079 431.811 541.965 431.811 536.889 431.811 531.813 435.926 527.698 441.002 527.698 446.077 527.698 450.192 531.813 450.192 536.889Z" stroke="#487925" stroke-width="1.59833" fill="#68AD36" transform="matrix(1 0 0 1.00026 310.843 -415.133)"/><path d="M296.645 452.694C296.645 457.77 292.53 461.884 287.454 461.884 282.378 461.884 278.264 457.77 278.264 452.694 278.264 447.618 282.378 443.504 287.454 443.504 292.53 443.504 296.645 447.618 296.645 452.694Z" stroke="#487925" stroke-width="1.59833" fill="#68AD36" transform="matrix(1 0 0 1.00026 310.843 -415.133)"/><path d="M188.739 840.212C188.739 845.288 184.625 849.403 179.549 849.403 174.473 849.403 170.358 845.288 170.358 840.212 170.358 835.137 174.473 831.022 179.549 831.022 184.625 831.022 188.739 835.137 188.739 840.212Z" stroke="#487925" stroke-width="1.59833" fill="#68AD36" transform="matrix(1 0 0 1.00026 310.843 -415.133)"/><path d="M305.705 842.272C305.705 847.347 301.591 851.462 296.515 851.462 291.439 851.462 287.324 847.347 287.324 842.272 287.324 837.196 291.439 833.081 296.515 833.081 301.591 833.081 305.705 837.196 305.705 842.272Z" stroke="#935690" stroke-width="1.59833" fill="#D27CCE" transform="matrix(1 0 0 1.00026 310.843 -415.133)"/><path d="M239.204 559.29C239.204 564.366 235.089 568.481 230.013 568.481 224.938 568.481 220.823 564.366 220.823 559.29 220.823 554.215 224.938 550.1 230.013 550.1 235.089 550.1 239.204 554.215 239.204 559.29Z" stroke="#935690" stroke-width="1.59833" fill="#D27CCE" transform="matrix(1 0 0 1.00026 310.843 -415.133)"/><path d="M554.291 538.243C554.291 543.318 550.177 547.433 545.101 547.433 540.025 547.433 535.91 543.318 535.91 538.243 535.91 533.167 540.025 529.052 545.101 529.052 550.177 529.052 554.291 533.167 554.291 538.243Z" stroke="#935690" stroke-width="1.59833" fill="#D27CCE" transform="matrix(1 0 0 1.00026 310.843 -415.133)"/><path d="M82.2751 1008.17C82.2751 1013.25 78.1604 1017.36 73.0846 1017.36 68.0089 1017.36 63.8942 1013.25 63.8942 1008.17 63.8942 1003.1 68.0089 998.981 73.0846 998.981 78.1604 998.981 82.2751 1003.1 82.2751 1008.17Z" stroke="#487925" stroke-width="1.59833" fill="#68AD36" transform="matrix(1 0 0 1.00026 310.843 -415.133)"/><path d="M-31.7827 851.863C-31.7827 856.939-35.8974 861.054-40.9731 861.054-46.0488 861.054-50.1635 856.939-50.1635 851.863-50.1635 846.787-46.0488 842.673-40.9731 842.673-35.8974 842.673-31.7827 846.787-31.7827 851.863Z" stroke="#935690" stroke-width="1.59833" fill="#D27CCE" transform="matrix(1 0 0 1.00026 310.843 -415.133)"/><path d="M-83.3264 736.776C-83.3264 741.852-87.4411 745.966-92.5168 745.966-97.5925 745.966-101.707 741.852-101.707 736.776-101.707 731.7-97.5925 727.586-92.5168 727.586-87.4411 727.586-83.3264 731.7-83.3264 736.776Z" stroke="#935690" stroke-width="1.59833" fill="#D27CCE" transform="matrix(1 0 0 1.00026 310.843 -415.133)"/><path d="M707.088 637.064C707.088 642.14 702.973 646.255 697.897 646.255 692.822 646.255 688.707 642.14 688.707 637.064 688.707 631.989 692.821 627.874 697.897 627.874 702.973 627.874 707.088 631.989 707.088 637.064Z" stroke="#935690" stroke-width="1.59833" fill="#D27CCE" transform="matrix(1 0 0 1.00026 310.843 -415.133)"/><path d="M121.263 759.36C121.263 764.435 117.149 768.55 112.073 768.55 106.997 768.55 102.883 764.435 102.883 759.36 102.883 754.284 106.997 750.169 112.073 750.169 117.149 750.169 121.263 754.284 121.263 759.36Z" stroke="#B2512B" stroke-width="1.59833" fill="#FF743E" transform="matrix(1 0 0 1.00026 310.843 -415.133)"/><path d="M135.24 929.254C135.24 934.33 131.126 938.444 126.05 938.444 120.974 938.444 116.86 934.33 116.86 929.254 116.86 924.178 120.974 920.063 126.05 920.063 131.126 920.063 135.24 924.178 135.24 929.254Z" stroke="#935690" stroke-width="1.59833" fill="#D27CCE" transform="matrix(1 0 0 1.00026 310.843 -415.133)"/><path d="M795.911 621.831C795.911 626.907 791.796 631.022 786.72 631.022 781.644 631.022 777.53 626.907 777.53 621.831 777.53 616.756 781.644 612.641 786.72 612.641 791.796 612.641 795.911 616.756 795.911 621.831Z" stroke="#935690" stroke-width="1.59833" fill="#D27CCE" transform="matrix(1 0 0 1.00026 310.843 -415.133)"/><path d="M683.715 733.941C683.715 739.017 679.601 743.131 674.525 743.131 669.449 743.131 665.335 739.017 665.335 733.941 665.335 728.865 669.449 724.75 674.525 724.75 679.601 724.75 683.715 728.865 683.715 733.941Z" stroke="#935690" stroke-width="1.59833" fill="#D27CCE" transform="matrix(1 0 0 1.00026 310.843 -415.133)"/><path d="M69.312 852.089C69.312 857.165 65.1973 861.28 60.1215 861.28 55.0458 861.28 50.9311 857.165 50.9311 852.089 50.9311 847.014 55.0458 842.899 60.1215 842.899 65.1973 842.899 69.312 847.013 69.312 852.089Z" stroke="#487925" stroke-width="1.59833" fill="#68AD36" transform="matrix(1 0 0 1.00026 310.843 -415.133)"/><path d="M359.219 933.084C359.219 938.159 355.104 942.274 350.028 942.274 344.953 942.274 340.838 938.16 340.838 933.084 340.838 928.008 344.953 923.893 350.028 923.893 355.104 923.893 359.219 928.008 359.219 933.084Z" stroke="#487925" stroke-width="1.59833" fill="#68AD36" transform="matrix(1 0 0 1.00026 310.843 -415.133)"/><path d="M506.631 633.753C506.631 638.828 502.516 642.943 497.44 642.943 492.365 642.943 488.25 638.828 488.25 633.753 488.25 628.677 492.365 624.562 497.44 624.562 502.516 624.562 506.631 628.677 506.631 633.753Z" stroke="#487925" stroke-width="1.59833" fill="#68AD36" transform="matrix(1 0 0 1.00026 310.843 -415.133)"/><path d="M576.429 736.575C576.429 741.65 572.315 745.765 567.239 745.765 562.163 745.765 558.049 741.65 558.049 736.575 558.049 731.499 562.163 727.384 567.239 727.384 572.315 727.384 576.429 731.499 576.429 736.575Z" stroke="#487925" stroke-width="1.59833" fill="#68AD36" transform="matrix(1 0 0 1.00026 310.843 -415.133)"/><path d="M8.13408 941.569C8.13408 946.645 4.01939 950.76-1.05635 950.76-6.13208 950.76-10.2468 946.645-10.2468 941.569-10.2468 936.493-6.13208 932.379-1.05635 932.379 4.01939 932.379 8.13408 936.493 8.13408 941.569Z" stroke="#487925" stroke-width="1.59833" fill="#68AD36" transform="matrix(1 0 0 1.00026 310.843 -415.133)"/><path d="M499.826 443.534C499.826 448.61 495.711 452.725 490.636 452.725 485.56 452.725 481.445 448.61 481.445 443.534 481.445 438.459 485.56 434.344 490.636 434.344 495.711 434.344 499.826 438.459 499.826 443.534Z" stroke="#935690" stroke-width="1.59833" fill="#D27CCE" transform="matrix(1 0 0 1.00026 310.843 -415.133)"/><path d="M754.651 809.319C754.651 814.395 750.537 818.51 745.461 818.51 740.385 818.51 736.27 814.395 736.27 809.319 736.27 804.244 740.385 800.129 745.461 800.129 750.536 800.129 754.651 804.243 754.651 809.319Z" stroke="#935690" stroke-width="1.59833" fill="#D27CCE" transform="matrix(1 0 0 1.00026 310.843 -415.133)"/><path d="M480.423 945.331C480.423 950.407 476.308 954.522 471.232 954.522 466.156 954.522 462.042 950.407 462.042 945.331 462.042 940.256 466.156 936.141 471.232 936.141 476.308 936.141 480.423 940.256 480.423 945.331Z" stroke="#935690" stroke-width="1.59833" fill="#D27CCE" transform="matrix(1 0 0 1.00026 310.843 -415.133)"/><path d="M654.877 551.076C654.877 556.151 650.762 560.266 645.686 560.266 640.611 560.266 636.496 556.152 636.496 551.076 636.496 546 640.611 541.885 645.686 541.885 650.762 541.885 654.877 546 654.877 551.076Z" stroke="#935690" stroke-width="1.59833" fill="#D27CCE" transform="matrix(1 0 0 1.00026 310.843 -415.133)"/><path d="M521.814 828.246C521.814 833.322 517.7 837.437 512.624 837.437 507.548 837.437 503.433 833.322 503.433 828.246 503.433 823.17 507.548 819.056 512.624 819.056 517.7 819.056 521.814 823.17 521.814 828.246Z" stroke="#487925" stroke-width="1.59833" fill="#68AD36" transform="matrix(1 0 0 1.00026 310.843 -415.133)"/><path d="M646.649 971.089C646.649 976.165 642.534 980.28 637.458 980.28 632.382 980.28 628.268 976.165 628.268 971.089 628.268 966.013 632.382 961.899 637.458 961.899 642.534 961.899 646.649 966.013 646.649 971.089Z" stroke="#487925" stroke-width="1.59833" fill="#68AD36" transform="matrix(1 0 0 1.00026 310.843 -415.133)"/><path d="M245.598 936.862C245.598 941.938 241.483 946.053 236.408 946.053 231.332 946.053 227.217 941.938 227.217 936.862 227.217 931.787 231.332 927.672 236.408 927.672 241.483 927.672 245.598 931.787 245.598 936.862Z" stroke="#935690" stroke-width="1.59833" fill="#D27CCE" transform="matrix(1 0 0 1.00026 310.843 -415.133)"/><path d="M575.957 910.65C575.957 915.726 571.843 919.84 566.767 919.84 561.691 919.84 557.577 915.726 557.577 910.65 557.577 905.574 561.691 901.459 566.767 901.459 571.843 901.459 575.957 905.574 575.957 910.65Z" stroke="#935690" stroke-width="1.59833" fill="#D27CCE" transform="matrix(1 0 0 1.00026 310.843 -415.133)"/><path d="M785.076 718.679C785.076 723.755 780.961 727.87 775.885 727.87 770.809 727.87 766.695 723.755 766.695 718.679 766.695 713.603 770.809 709.489 775.885 709.489 780.961 709.489 785.076 713.603 785.076 718.679Z" stroke="#935690" stroke-width="1.59833" fill="#D27CCE" transform="matrix(1 0 0 1.00026 310.843 -415.133)"/><path d="M466.836 733.86C466.836 738.935 462.722 743.05 457.646 743.05 452.57 743.05 448.455 738.935 448.455 733.86 448.455 728.784 452.57 724.669 457.646 724.669 462.722 724.669 466.836 728.784 466.836 733.86Z" stroke="#935690" stroke-width="1.59833" fill="#D27CCE" transform="matrix(1 0 0 1.00026 310.843 -415.133)"/><path d="M420.859 845.472C420.859 850.547 416.745 854.662 411.669 854.662 406.593 854.662 402.478 850.547 402.478 845.472 402.478 840.396 406.593 836.281 411.669 836.281 416.745 836.281 420.859 840.396 420.859 845.472Z" stroke="#935690" stroke-width="1.59833" fill="#D27CCE" transform="matrix(1 0 0 1.00026 310.843 -415.133)"/><path d="M561.492 1023.18C561.492 1028.26 557.377 1032.37 552.301 1032.37 547.225 1032.37 543.111 1028.26 543.111 1023.18 543.111 1018.11 547.225 1013.99 552.301 1013.99 557.377 1013.99 561.492 1018.11 561.492 1023.18Z" stroke="#935690" stroke-width="1.59833" fill="#D27CCE" transform="matrix(1 0 0 1.00026 310.843 -415.133)"/><path d="M761.166 534.753C761.166 539.829 757.051 543.944 751.975 543.944 746.899 543.944 742.785 539.829 742.785 534.753 742.785 529.678 746.899 525.563 751.975 525.563 757.051 525.563 761.166 529.678 761.166 534.753Z" stroke="#935690" stroke-width="1.59833" fill="#D27CCE" transform="matrix(1 0 0 1.00026 310.843 -415.133)"/><path d="M189.244 1027.28C189.244 1032.36 185.13 1036.47 180.054 1036.47 174.978 1036.47 170.863 1032.36 170.863 1027.28 170.863 1022.2 174.978 1018.09 180.054 1018.09 185.13 1018.09 189.244 1022.2 189.244 1027.28Z" stroke="#935690" stroke-width="1.59833" fill="#D27CCE" transform="matrix(1 0 0 1.00026 310.843 -415.133)"/><path d="M484.926 1077.77C484.926 1082.85 480.811 1086.96 475.736 1086.96 470.66 1086.96 466.545 1082.85 466.545 1077.77 466.545 1072.7 470.66 1068.58 475.736 1068.58 480.811 1068.58 484.926 1072.7 484.926 1077.77Z" stroke="#935690" stroke-width="1.59833" fill="#D27CCE" transform="matrix(1 0 0 1.00026 310.843 -415.133)"/><path d="M-70.6649 997.607C-70.6649 1002.68-74.7796 1006.8-79.8553 1006.8-84.931 1006.8-89.0457 1002.68-89.0457 997.607-89.0457 992.531-84.931 988.416-79.8553 988.416-74.7796 988.416-70.6649 992.531-70.6649 997.607Z" stroke="#935690" stroke-width="1.59833" fill="#D27CCE" transform="matrix(1 0 0 1.00026 310.843 -415.133)"/><path d="M-0.559435 1059.89C-0.559435 1064.96-4.67413 1069.08-9.74986 1069.08-14.8256 1069.08-18.9403 1064.96-18.9403 1059.89-18.9403 1054.81-14.8256 1050.7-9.74986 1050.7-4.67413 1050.7-0.559436 1054.81-0.559435 1059.89Z" stroke="#935690" stroke-width="1.59833" fill="#D27CCE" transform="matrix(1 0 0 1.00026 310.843 -415.133)"/><path d="M282.154 1124.88C282.154 1129.96 278.04 1134.07 272.964 1134.07 267.888 1134.07 263.773 1129.96 263.773 1124.88 263.773 1119.81 267.888 1115.69 272.964 1115.69 278.04 1115.69 282.154 1119.81 282.154 1124.88Z" stroke="#935690" stroke-width="1.59833" fill="#D27CCE" transform="matrix(1 0 0 1.00026 310.843 -415.133)"/><path d="M707.207 892.6C707.207 897.675 703.093 901.79 698.017 901.79 692.941 901.79 688.826 897.676 688.826 892.6 688.826 887.524 692.941 883.409 698.017 883.409 703.093 883.409 707.207 887.524 707.207 892.6Z" stroke="#935690" stroke-width="1.59833" fill="#D27CCE" transform="matrix(1 0 0 1.00026 310.843 -415.133)"/><path d="M91.9118 1103.53C91.9118 1108.61 87.7971 1112.72 82.7214 1112.72 77.6457 1112.72 73.531 1108.61 73.531 1103.53 73.531 1098.46 77.6457 1094.34 82.7214 1094.34 87.7971 1094.34 91.9118 1098.46 91.9118 1103.53Z" stroke="#487925" stroke-width="1.59833" fill="#68AD36" transform="matrix(1 0 0 1.00026 310.843 -415.133)"/><path d="M186.595 1122.61C186.595 1127.68 182.481 1131.8 177.405 1131.8 172.329 1131.8 168.214 1127.68 168.214 1122.61 168.214 1117.53 172.329 1113.42 177.405 1113.42 182.481 1113.42 186.595 1117.53 186.595 1122.61Z" stroke="#935690" stroke-width="1.59833" fill="#D27CCE" transform="matrix(1 0 0 1.00026 310.843 -415.133)"/><path d="M408.979 1017.99C408.979 1023.06 404.864 1027.18 399.789 1027.18 394.713 1027.18 390.598 1023.06 390.598 1017.99 390.598 1012.91 394.713 1008.8 399.789 1008.8 404.864 1008.8 408.979 1012.91 408.979 1017.99Z" stroke="#935690" stroke-width="1.59833" fill="#D27CCE" transform="matrix(1 0 0 1.00026 310.843 -415.133)"/><path d="M298.023 1029.09C298.023 1034.17 293.909 1038.28 288.833 1038.28 283.757 1038.28 279.642 1034.17 279.642 1029.09 279.642 1024.02 283.757 1019.9 288.833 1019.9 293.909 1019.9 298.023 1024.02 298.023 1029.09Z" stroke="#935690" stroke-width="1.59833" fill="#D27CCE" transform="matrix(1 0 0 1.00026 310.843 -415.133)"/><path d="M694.626 468.127C694.626 473.203 690.511 477.318 685.435 477.318 680.36 477.318 676.245 473.203 676.245 468.127 676.245 463.051 680.36 458.937 685.435 458.937 690.511 458.937 694.626 463.051 694.626 468.127Z" stroke="#935690" stroke-width="1.59833" fill="#D27CCE" transform="matrix(1 0 0 1.00026 310.843 -415.133)"/><path d="M638.213 824.606C638.213 829.682 634.099 833.796 629.023 833.796 623.947 833.796 619.832 829.682 619.832 824.606 619.832 819.53 623.947 815.416 629.023 815.416 634.099 815.416 638.213 819.53 638.213 824.606Z" stroke="#935690" stroke-width="1.59833" fill="#D27CCE" transform="matrix(1 0 0 1.00026 310.843 -415.133)"/><path d="M-112.532 918.047C-112.532 923.123-116.647 927.238-121.722 927.238-126.798 927.238-130.913 923.123-130.913 918.047-130.913 912.972-126.798 908.857-121.722 908.857-116.647 908.857-112.532 912.972-112.532 918.047Z" stroke="#935690" stroke-width="1.59833" fill="#D27CCE" transform="matrix(1 0 0 1.00026 310.843 -415.133)"/><path d="M598.932 448.972C598.932 454.048 594.818 458.162 589.742 458.162 584.666 458.162 580.551 454.048 580.551 448.972 580.551 443.896 584.666 439.782 589.742 439.782 594.818 439.782 598.932 443.896 598.932 448.972Z" stroke="#935690" stroke-width="1.59833" fill="#D27CCE" transform="matrix(1 0 0 1.00026 310.843 -415.133)"/><path d="M381.319 1112.92C381.319 1117.99 377.204 1122.11 372.128 1122.11 367.053 1122.11 362.938 1117.99 362.938 1112.92 362.938 1107.84 367.053 1103.73 372.128 1103.73 377.204 1103.73 381.319 1107.84 381.319 1112.92Z" stroke="#935690" stroke-width="1.59833" fill="#D27CCE" transform="matrix(1 0 0 1.00026 310.843 -415.133)"/><path d="M-656.379 375.741C-656.379 380.817-660.494 384.931-665.569 384.931-670.645 384.931-674.76 380.817-674.76 375.741-674.76 370.665-670.645 366.55-665.569 366.55-660.494 366.55-656.379 370.665-656.379 375.741Z" stroke="#935690" stroke-width="1.59833" fill="#D27CCE" transform="matrix(1 0 0 1.00026 310.843 -415.133)"/><path d="M-804.048-49.9888C-804.048-44.9131-808.162-40.7984-813.238-40.7984-818.314-40.7984-822.429-44.9131-822.429-49.9888-822.429-55.0646-818.314-59.1793-813.238-59.1793-808.162-59.1793-804.048-55.0646-804.048-49.9888Z" stroke="#935690" stroke-width="1.59833" fill="#D27CCE" transform="matrix(1 0 0 1.00026 310.843 -415.133)"/><path d="M-748.266 353.175C-748.266 358.251-752.381 362.366-757.457 362.366-762.533 362.366-766.647 358.251-766.647 353.175-766.647 348.1-762.533 343.985-757.457 343.985-752.381 343.985-748.266 348.1-748.266 353.175Z" stroke="#935690" stroke-width="1.59833" fill="#D27CCE" transform="matrix(1 0 0 1.00026 310.843 -415.133)"/><path d="M-574.522 427.371C-574.522 432.446-578.637 436.561-583.713 436.561-588.788 436.561-592.903 432.446-592.903 427.371-592.903 422.295-588.788 418.18-583.713 418.18-578.637 418.18-574.522 422.295-574.522 427.371Z" stroke="#935690" stroke-width="1.59833" fill="#D27CCE" transform="matrix(1 0 0 1.00026 310.843 -415.133)"/><path d="M-581.123 317.92C-581.123 322.996-585.237 327.111-590.313 327.111-595.389 327.111-599.504 322.996-599.504 317.92-599.504 312.845-595.389 308.73-590.313 308.73-585.237 308.73-581.123 312.845-581.123 317.92Z" stroke="#935690" stroke-width="1.59833" fill="#D27CCE" transform="matrix(1 0 0 1.00026 310.843 -415.133)"/><path d="M-897.083 360.148C-897.083 365.223-901.198 369.338-906.273 369.338-911.349 369.338-915.464 365.223-915.464 360.148-915.464 355.072-911.349 350.957-906.273 350.957-901.198 350.957-897.083 355.072-897.083 360.148Z" stroke="#935690" stroke-width="1.59833" fill="#D27CCE" transform="matrix(1 0 0 1.00026 310.843 -415.133)"/><path d="M-896.881-66.0339C-896.881-60.9581-900.996-56.8435-906.072-56.8435-911.147-56.8435-915.262-60.9581-915.262-66.0339-915.262-71.1096-911.147-75.2243-906.072-75.2243-900.996-75.2243-896.881-71.1096-896.881-66.0339Z" stroke="#935690" stroke-width="1.59833" fill="#D27CCE" transform="matrix(1 0 0 1.00026 310.843 -415.133)"/><path d="M-822.699 413.461C-822.699 418.537-826.814 422.652-831.89 422.652-836.965 422.652-841.08 418.537-841.08 413.461-841.08 408.386-836.965 404.271-831.89 404.271-826.814 404.271-822.699 408.386-822.699 413.461Z" stroke="#935690" stroke-width="1.59833" fill="#D27CCE" transform="matrix(1 0 0 1.00026 310.843 -415.133)"/><path d="M-977.005 195.301C-977.005 200.377-981.12 204.492-986.196 204.492-991.271 204.492-995.386 200.377-995.386 195.301-995.386 190.225-991.271 186.111-986.196 186.111-981.12 186.111-977.005 190.225-977.005 195.301Z" stroke="#935690" stroke-width="1.59833" fill="#D27CCE" transform="matrix(1 0 0 1.00026 310.843 -415.133)"/><path d="M-425.368 216.928C-425.368 222.004-429.483 226.118-434.559 226.118-439.634 226.118-443.749 222.004-443.749 216.928-443.749 211.852-439.634 207.738-434.559 207.738-429.483 207.738-425.368 211.852-425.368 216.928Z" stroke="#935690" stroke-width="1.59833" fill="#D27CCE" transform="matrix(1 0 0 1.00026 310.843 -415.133)"/><path d="M-1029.44 302.661C-1029.44 307.737-1033.56 311.851-1038.63 311.851-1043.71 311.851-1047.82 307.737-1047.82 302.661-1047.82 297.585-1043.71 293.47-1038.63 293.47-1033.56 293.47-1029.44 297.585-1029.44 302.661Z" stroke="#B2512B" stroke-width="1.59833" fill="#FF743E" transform="matrix(1 0 0 1.00026 310.843 -415.133)"/><path d="M-740.344 449.266C-740.344 454.342-744.458 458.456-749.534 458.456-754.61 458.456-758.725 454.342-758.725 449.266-758.725 444.19-754.61 440.076-749.534 440.076-744.458 440.076-740.344 444.19-740.344 449.266Z" stroke="#935690" stroke-width="1.59833" fill="#D27CCE" transform="matrix(1 0 0 1.00026 310.843 -415.133)"/><path d="M-905.164 126.466C-905.164 131.542-909.278 135.657-914.354 135.657-919.43 135.657-923.544 131.542-923.544 126.466-923.544 121.391-919.43 117.276-914.354 117.276-909.278 117.276-905.164 121.391-905.164 126.466Z" stroke="#935690" stroke-width="1.59833" fill="#D27CCE" transform="matrix(1 0 0 1.00026 310.843 -415.133)"/><path d="M-1091.8 51.6853C-1091.8 56.761-1095.92 60.8757-1100.99 60.8757-1106.07 60.8757-1110.18 56.761-1110.18 51.6853-1110.18 46.6095-1106.07 42.4948-1100.99 42.4948-1095.92 42.4948-1091.8 46.6095-1091.8 51.6853Z" stroke="#935690" stroke-width="1.59833" fill="#D27CCE" transform="matrix(1 0 0 1.00026 310.843 -415.133)"/><path d="M-1000.39 104.165C-1000.39 109.241-1004.5 113.356-1009.58 113.356-1014.65 113.356-1018.77 109.241-1018.77 104.165-1018.77 99.0897-1014.65 94.975-1009.58 94.975-1004.5 94.975-1000.39 99.0897-1000.39 104.165Z" stroke="#935690" stroke-width="1.59833" fill="#D27CCE" transform="matrix(1 0 0 1.00026 310.843 -415.133)"/><path d="M-1082.57 140.467C-1082.57 145.543-1086.68 149.657-1091.76 149.657-1096.84 149.657-1100.95 145.543-1100.95 140.467-1100.95 135.391-1096.84 131.276-1091.76 131.276-1086.68 131.276-1082.57 135.391-1082.57 140.467Z" stroke="#935690" stroke-width="1.59833" fill="#D27CCE" transform="matrix(1 0 0 1.00026 310.843 -415.133)"/><path d="M-942.337 280.743C-942.337 285.818-946.452 289.933-951.527 289.933-956.603 289.933-960.718 285.818-960.718 280.743-960.718 275.667-956.603 271.552-951.527 271.552-946.452 271.552-942.337 275.667-942.337 280.743Z" stroke="#935690" stroke-width="1.59833" fill="#D27CCE" transform="matrix(1 0 0 1.00026 310.843 -415.133)"/><path d="M-740.619-319.392C-740.619-314.316-744.734-310.201-749.809-310.201-754.885-310.201-759-314.316-759-319.392-759-324.468-754.885-328.582-749.809-328.582-744.734-328.582-740.619-324.468-740.619-319.392Z" stroke="#935690" stroke-width="1.59833" fill="#D27CCE" transform="matrix(1 0 0 1.00026 310.843 -415.133)"/><path d="M-1083.69-44.3C-1083.69-39.2242-1087.81-35.1096-1092.88-35.1096-1097.96-35.1096-1102.07-39.2242-1102.07-44.3-1102.07-49.3757-1097.96-53.4904-1092.88-53.4904-1087.81-53.4904-1083.69-49.3757-1083.69-44.3Z" stroke="#B2512B" stroke-width="1.59833" fill="#FF743E" transform="matrix(1 0 0 1.00026 310.843 -415.133)"/><path d="M-513.077-57.4646C-513.077-52.3888-517.191-48.2741-522.267-48.2741-527.343-48.2741-531.458-52.3888-531.458-57.4646-531.458-62.5403-527.343-66.655-522.267-66.655-517.191-66.655-513.077-62.5403-513.077-57.4646Z" stroke="#935690" stroke-width="1.59833" fill="#D27CCE" transform="matrix(1 0 0 1.00026 310.843 -415.133)"/><path d="M-754.065-137.041C-754.065-131.966-758.18-127.851-763.255-127.851-768.331-127.851-772.446-131.966-772.446-137.041-772.446-142.117-768.331-146.232-763.255-146.232-758.18-146.232-754.065-142.117-754.065-137.041Z" stroke="#935690" stroke-width="1.59833" fill="#D27CCE" transform="matrix(1 0 0 1.00026 310.843 -415.133)"/><path d="M-945.683-165.797C-945.683-160.721-949.798-156.606-954.873-156.606-959.949-156.606-964.064-160.721-964.064-165.797-964.064-170.872-959.949-174.987-954.873-174.987-949.798-174.987-945.683-170.872-945.683-165.797Z" stroke="#935690" stroke-width="1.59833" fill="#D27CCE" transform="matrix(1 0 0 1.00026 310.843 -415.133)"/><path d="M-656.766-143.023C-656.766-137.947-660.881-133.832-665.957-133.832-671.032-133.832-675.147-137.947-675.147-143.023-675.147-148.098-671.032-152.213-665.957-152.213-660.881-152.213-656.766-148.098-656.766-143.023Z" stroke="#935690" stroke-width="1.59833" fill="#D27CCE" transform="matrix(1 0 0 1.00026 310.843 -415.133)"/><path d="M-1011.92 8.23213C-1011.92 13.3079-1016.03 17.4226-1021.11 17.4226-1026.18 17.4226-1030.3 13.3079-1030.3 8.23213-1030.3 3.1564-1026.18-0.958292-1021.11-0.958292-1016.03-0.958292-1011.92 3.1564-1011.92 8.23213Z" stroke="#935690" stroke-width="1.59833" fill="#D27CCE" transform="matrix(1 0 0 1.00026 310.843 -415.133)"/><path d="M-1056.47-134.641C-1056.47-129.566-1060.59-125.451-1065.66-125.451-1070.74-125.451-1074.85-129.566-1074.85-134.641-1074.85-139.717-1070.74-143.832-1065.66-143.832-1060.59-143.832-1056.47-139.717-1056.47-134.641Z" stroke="#B2512B" stroke-width="1.59833" fill="#FF743E" transform="matrix(1 0 0 1.00026 310.843 -415.133)"/><path d="M-557.521-144.747C-557.521-139.671-561.636-135.556-566.712-135.556-571.787-135.556-575.902-139.671-575.902-144.747-575.902-149.822-571.787-153.937-566.712-153.937-561.636-153.937-557.521-149.822-557.521-144.747Z" stroke="#935690" stroke-width="1.59833" fill="#D27CCE" transform="matrix(1 0 0 1.00026 310.843 -415.133)"/><path d="M-708.826-47.9427C-708.826-42.867-712.941-38.7523-718.016-38.7523-723.092-38.7523-727.207-42.867-727.207-47.9427-727.207-53.0184-723.092-57.1331-718.016-57.1331-712.941-57.1331-708.826-53.0184-708.826-47.9427Z" stroke="#935690" stroke-width="1.59833" fill="#D27CCE" transform="matrix(1 0 0 1.00026 310.843 -415.133)"/><path d="M-1019.97-212.44C-1019.97-207.364-1024.08-203.249-1029.16-203.249-1034.24-203.249-1038.35-207.364-1038.35-212.44-1038.35-217.515-1034.24-221.63-1029.16-221.63-1024.08-221.63-1019.97-217.515-1019.97-212.44Z" stroke="#935690" stroke-width="1.59833" fill="#D27CCE" transform="matrix(1 0 0 1.00026 310.843 -415.133)"/><path d="M-609.807-57.2064C-609.807-52.1306-613.922-48.016-618.998-48.016-624.074-48.016-628.188-52.1306-628.188-57.2064-628.188-62.2821-624.074-66.3968-618.998-66.3968-613.922-66.3968-609.807-62.2821-609.807-57.2064Z" stroke="#935690" stroke-width="1.59833" fill="#D27CCE" transform="matrix(1 0 0 1.00026 310.843 -415.133)"/><path d="M-498.263-216.086C-498.263-211.01-502.378-206.895-507.454-206.895-512.53-206.895-516.644-211.01-516.644-216.086-516.644-221.162-512.53-225.276-507.454-225.276-502.378-225.276-498.263-221.162-498.263-216.086Z" stroke="#935690" stroke-width="1.59833" fill="#D27CCE" transform="matrix(1 0 0 1.00026 310.843 -415.133)"/><path d="M-521.229 239.882C-521.229 244.958-525.344 249.072-530.419 249.072-535.495 249.072-539.61 244.958-539.61 239.882-539.61 234.806-535.495 230.691-530.419 230.691-525.344 230.691-521.229 234.806-521.229 239.882Z" stroke="#935690" stroke-width="1.59833" fill="#D27CCE" transform="matrix(1 0 0 1.00026 310.843 -415.133)"/><path d="M-743.421 60.4413C-743.421 65.517-747.536 69.6317-752.612 69.6317-757.688 69.6317-761.802 65.517-761.802 60.4413-761.802 55.3655-757.688 51.2508-752.612 51.2508-747.536 51.2508-743.421 55.3655-743.421 60.4413Z" stroke="#935690" stroke-width="1.59833" fill="#D27CCE" transform="matrix(1 0 0 1.00026 310.843 -415.133)"/><path d="M-872.516 218.241C-872.516 223.317-876.631 227.431-881.707 227.431-886.782 227.431-890.897 223.317-890.897 218.241-890.897 213.165-886.782 209.05-881.707 209.05-876.631 209.05-872.516 213.165-872.516 218.241Z" stroke="#935690" stroke-width="1.59833" fill="#D27CCE" transform="matrix(1 0 0 1.00026 310.843 -415.133)"/><path d="M-335.867 224.887C-335.867 229.963-339.982 234.077-345.058 234.077-350.134 234.077-354.248 229.963-354.248 224.887-354.248 219.811-350.134 215.697-345.058 215.697-339.982 215.697-335.867 219.811-335.867 224.887Z" stroke="#935690" stroke-width="1.59833" fill="#D27CCE" transform="matrix(1 0 0 1.00026 310.843 -415.133)"/><path d="M-836.012 44.3376C-836.012 49.4134-840.127 53.5281-845.203 53.5281-850.279 53.5281-854.393 49.4134-854.393 44.3376-854.393 39.2619-850.279 35.1472-845.203 35.1472-840.127 35.1472-836.012 39.2619-836.012 44.3376Z" stroke="#935690" stroke-width="1.59833" fill="#D27CCE" transform="matrix(1 0 0 1.00026 310.843 -415.133)"/><path d="M-137.459-157.063C-137.459-151.987-141.573-147.872-146.649-147.872-151.725-147.872-155.84-151.987-155.84-157.063-155.84-162.138-151.725-166.253-146.649-166.253-141.573-166.253-137.459-162.138-137.459-157.063Z" stroke="#935690" stroke-width="1.59833" fill="#D27CCE" transform="matrix(1 0 0 1.00026 310.843 -415.133)"/><path d="M-804.815 143.926C-804.815 149.002-808.929 153.117-814.005 153.117-819.081 153.117-823.196 149.002-823.196 143.926-823.196 138.851-819.081 134.736-814.005 134.736-808.93 134.736-804.815 138.851-804.815 143.926Z" stroke="#935690" stroke-width="1.59833" fill="#D27CCE" transform="matrix(1 0 0 1.00026 310.843 -415.133)"/><path d="M-926.261 28.3015C-926.261 33.3773-930.375 37.492-935.451 37.492-940.527 37.492-944.642 33.3773-944.642 28.3015-944.642 23.2258-940.527 19.1111-935.451 19.1111-930.376 19.1111-926.261 23.2258-926.261 28.3015Z" stroke="#935690" stroke-width="1.59833" fill="#D27CCE" transform="matrix(1 0 0 1.00026 310.843 -415.133)"/><path d="M-165.056-207.833C-165.056-202.757-169.171-198.643-174.246-198.643-179.322-198.643-183.437-202.757-183.437-207.833-183.437-212.909-179.322-217.023-174.246-217.023-169.171-217.023-165.056-212.909-165.056-207.833Z" stroke="#935690" stroke-width="1.59833" fill="#D27CCE" transform="matrix(1 0 0 1.00026 310.843 -415.133)"/><path d="M-752.213-405.866C-752.213-400.79-756.328-396.675-761.404-396.675-766.48-396.675-770.594-400.79-770.594-405.866-770.594-410.941-766.48-415.056-761.404-415.056-756.328-415.056-752.213-410.941-752.213-405.866Z" stroke="#B2512B" stroke-width="1.59833" fill="#FF743E" transform="matrix(1 0 0 1.00026 310.843 -415.133)"/><path d="M-702.527-227.487C-702.527-222.412-706.642-218.297-711.718-218.297-716.793-218.297-720.908-222.412-720.908-227.487-720.908-232.563-716.793-236.678-711.718-236.678-706.642-236.678-702.527-232.563-702.527-227.487Z" stroke="#935690" stroke-width="1.59833" fill="#D27CCE" transform="matrix(1 0 0 1.00026 310.843 -415.133)"/><path d="M-653.448-304.674C-653.448-299.598-657.563-295.483-662.639-295.483-667.714-295.483-671.829-299.598-671.829-304.674-671.829-309.749-667.714-313.864-662.639-313.864-657.563-313.864-653.448-309.749-653.448-304.674Z" stroke="#935690" stroke-width="1.59833" fill="#D27CCE" transform="matrix(1 0 0 1.00026 310.843 -415.133)"/><path d="M-828.185-304.495C-828.185-299.42-832.3-295.305-837.376-295.305-842.451-295.305-846.566-299.42-846.566-304.495-846.566-309.571-842.451-313.686-837.376-313.686-832.3-313.686-828.185-309.571-828.185-304.495Z" stroke="#935690" stroke-width="1.59833" fill="#D27CCE" transform="matrix(1 0 0 1.00026 310.843 -415.133)"/><path d="M-191.262-259.805C-191.262-254.729-195.377-250.614-200.452-250.614-205.528-250.614-209.643-254.729-209.643-259.805-209.643-264.88-205.528-268.995-200.452-268.995-195.377-268.995-191.262-264.88-191.262-259.805Z" stroke="#935690" stroke-width="1.59833" fill="#D27CCE" transform="matrix(1 0 0 1.00026 310.843 -415.133)"/><path d="M-793.89-224.622C-793.89-219.546-798.004-215.431-803.08-215.431-808.156-215.431-812.271-219.546-812.271-224.622-812.271-229.697-808.156-233.812-803.08-233.812-798.005-233.812-793.89-229.697-793.89-224.622Z" stroke="#935690" stroke-width="1.59833" fill="#D27CCE" transform="matrix(1 0 0 1.00026 310.843 -415.133)"/><path d="M-370.306 47.5912C-370.306 52.667-374.421 56.7817-379.496 56.7817-384.572 56.7817-388.687 52.667-388.687 47.5912-388.687 42.5155-384.572 38.4008-379.496 38.4008-374.421 38.4008-370.306 42.5155-370.306 47.5912Z" stroke="#935690" stroke-width="1.59833" fill="#D27CCE" transform="matrix(1 0 0 1.00026 310.843 -415.133)"/><path d="M-609.313 126.821C-609.313 131.897-613.428 136.011-618.504 136.011-623.579 136.011-627.694 131.897-627.694 126.821-627.694 121.745-623.58 117.631-618.504 117.631-613.428 117.631-609.313 121.745-609.313 126.821Z" stroke="#935690" stroke-width="1.59833" fill="#D27CCE" transform="matrix(1 0 0 1.00026 310.843 -415.133)"/><path d="M-602.497-227.19C-602.497-222.114-606.611-217.999-611.687-217.999-616.763-217.999-620.878-222.114-620.878-227.19-620.878-232.266-616.763-236.38-611.687-236.38-606.611-236.38-602.497-232.266-602.497-227.19Z" stroke="#935690" stroke-width="1.59833" fill="#D27CCE" transform="matrix(1 0 0 1.00026 310.843 -415.133)"/><path d="M-592.815-363.159C-592.815-358.083-596.93-353.968-602.005-353.968-607.081-353.968-611.196-358.083-611.196-363.159-611.196-368.235-607.081-372.349-602.005-372.349-596.93-372.349-592.815-368.235-592.815-363.159Z" stroke="#935690" stroke-width="1.59833" fill="#D27CCE" transform="matrix(1 0 0 1.00026 310.843 -415.133)"/><path d="M-911.175-340.84C-911.175-335.764-915.29-331.649-920.365-331.649-925.441-331.649-929.556-335.764-929.556-340.84-929.556-345.916-925.441-350.03-920.365-350.03-915.29-350.03-911.175-345.916-911.175-340.84Z" stroke="#935690" stroke-width="1.59833" fill="#D27CCE" transform="matrix(1 0 0 1.00026 310.843 -415.133)"/><path d="M-701.879 158.875C-701.879 163.951-705.993 168.066-711.069 168.066-716.145 168.066-720.259 163.951-720.259 158.875-720.259 153.8-716.145 149.685-711.069 149.685-705.993 149.685-701.879 153.8-701.879 158.875Z" stroke="#935690" stroke-width="1.59833" fill="#D27CCE" transform="matrix(1 0 0 1.00026 310.843 -415.133)"/><path d="M-852.143-148.661C-852.143-143.585-856.258-139.471-861.334-139.471-866.41-139.471-870.524-143.585-870.524-148.661-870.524-153.737-866.41-157.851-861.334-157.851-856.258-157.851-852.143-153.737-852.143-148.661Z" stroke="#935690" stroke-width="1.59833" fill="#D27CCE" transform="matrix(1 0 0 1.00026 310.843 -415.133)"/><path d="M-893.581-239.53C-893.581-234.454-897.696-230.339-902.772-230.339-907.847-230.339-911.962-234.454-911.962-239.53-911.962-244.606-907.848-248.72-902.772-248.72-897.696-248.72-893.581-244.606-893.581-239.53Z" stroke="#935690" stroke-width="1.59833" fill="#D27CCE" transform="matrix(1 0 0 1.00026 310.843 -415.133)"/><path d="M-653.518 40.2737C-653.518 45.3494-657.632 49.4641-662.708 49.4641-667.784 49.4641-671.899 45.3494-671.899 40.2737-671.899 35.1979-667.784 31.0832-662.708 31.0832-657.632 31.0832-653.518 35.1979-653.518 40.2737Z" stroke="#935690" stroke-width="1.59833" fill="#D27CCE" transform="matrix(1 0 0 1.00026 310.843 -415.133)"/><path d="M-427.537 127.525C-427.537 132.601-431.652 136.715-436.727 136.715-441.803 136.715-445.918 132.601-445.918 127.525-445.918 122.449-441.803 118.335-436.727 118.335-431.652 118.335-427.537 122.449-427.537 127.525Z" stroke="#935690" stroke-width="1.59833" fill="#D27CCE" transform="matrix(1 0 0 1.00026 310.843 -415.133)"/><path d="M-682.665 281.472C-682.665 286.548-686.78 290.663-691.856 290.663-696.932 290.663-701.046 286.548-701.046 281.472-701.046 276.397-696.932 272.282-691.856 272.282-686.78 272.282-682.665 276.397-682.665 281.472Z" stroke="#935690" stroke-width="1.59833" fill="#D27CCE" transform="matrix(1 0 0 1.00026 310.843 -415.133)"/><path d="M-834.243-388.155C-834.243-383.08-838.358-378.965-843.434-378.965-848.509-378.965-852.624-383.08-852.624-388.155-852.624-393.231-848.509-397.346-843.434-397.346-838.358-397.346-834.243-393.231-834.243-388.155Z" stroke="#935690" stroke-width="1.59833" fill="#D27CCE" transform="matrix(1 0 0 1.00026 310.843 -415.133)"/><path d="M-670.844-399.348C-670.844-394.272-674.959-390.158-680.035-390.158-685.11-390.158-689.225-394.272-689.225-399.348-689.225-404.424-685.111-408.539-680.035-408.539-674.959-408.539-670.844-404.424-670.844-399.348Z" stroke="#935690" stroke-width="1.59833" fill="#D27CCE" transform="matrix(1 0 0 1.00026 310.843 -415.133)"/><path d="M-971.633-280.925C-971.633-275.849-975.747-271.735-980.823-271.735-985.899-271.735-990.013-275.849-990.013-280.925-990.013-286.001-985.899-290.116-980.823-290.116-975.747-290.116-971.633-286.001-971.633-280.925Z" stroke="#935690" stroke-width="1.59833" fill="#D27CCE" transform="matrix(1 0 0 1.00026 310.843 -415.133)"/><path d="M-985.367-83.9717C-985.367-78.8959-989.482-74.7812-994.557-74.7812-999.633-74.7812-1003.75-78.8959-1003.75-83.9717-1003.75-89.0474-999.633-93.1621-994.557-93.1621-989.482-93.1621-985.367-89.0474-985.367-83.9717Z" stroke="#935690" stroke-width="1.59833" fill="#D27CCE" transform="matrix(1 0 0 1.00026 310.843 -415.133)"/><path d="M-516.84 143.69C-516.84 148.765-520.955 152.88-526.031 152.88-531.106 152.88-535.221 148.765-535.221 143.69-535.221 138.614-531.106 134.499-526.031 134.499-520.955 134.499-516.84 138.614-516.84 143.69Z" stroke="#935690" stroke-width="1.59833" fill="#D27CCE" transform="matrix(1 0 0 1.00026 310.843 -415.133)"/><path d="M-507.603 371.468C-507.603 376.544-511.717 380.659-516.793 380.659-521.869 380.659-525.984 376.544-525.984 371.468-525.984 366.393-521.869 362.278-516.793 362.278-511.718 362.278-507.603 366.393-507.603 371.468Z" stroke="#935690" stroke-width="1.59833" fill="#D27CCE" transform="matrix(1 0 0 1.00026 310.843 -415.133)"/><path d="M-984.903 378.867C-984.903 383.943-989.018 388.057-994.093 388.057-999.169 388.057-1003.28 383.943-1003.28 378.867-1003.28 373.791-999.169 369.676-994.093 369.676-989.018 369.676-984.903 373.791-984.903 378.867Z" stroke="#935690" stroke-width="1.59833" fill="#D27CCE" transform="matrix(1 0 0 1.00026 310.843 -415.133)"/><path d="M-466.454 41.1364C-466.454 46.2121-470.569 50.3268-475.645 50.3268-480.721 50.3268-484.835 46.2121-484.835 41.1364-484.835 36.0607-480.721 31.946-475.645 31.946-470.569 31.946-466.454 36.0607-466.454 41.1364Z" stroke="#935690" stroke-width="1.59833" fill="#D27CCE" transform="matrix(1 0 0 1.00026 310.843 -415.133)"/><path d="M-454.05 303.094C-454.05 308.17-458.165 312.284-463.24 312.284-468.316 312.284-472.431 308.17-472.431 303.094-472.431 298.018-468.316 293.904-463.24 293.904-458.165 293.904-454.05 298.018-454.05 303.094Z" stroke="#935690" stroke-width="1.59833" fill="#D27CCE" transform="matrix(1 0 0 1.00026 310.843 -415.133)"/><path d="M-1062.03 223.661C-1062.03 228.737-1066.15 232.852-1071.23 232.852-1076.3 232.852-1080.42 228.737-1080.42 223.661-1080.42 218.585-1076.3 214.471-1071.23 214.471-1066.15 214.471-1062.03 218.585-1062.03 223.661Z" stroke="#935690" stroke-width="1.59833" fill="#D27CCE" transform="matrix(1 0 0 1.00026 310.843 -415.133)"/><path d="M-415.486-38.3944C-415.486-33.3187-419.601-29.204-424.677-29.204-429.753-29.204-433.867-33.3187-433.867-38.3944-433.867-43.4701-429.753-47.5848-424.677-47.5848-419.601-47.5848-415.486-43.4701-415.486-38.3944Z" stroke="#935690" stroke-width="1.59833" fill="#D27CCE" transform="matrix(1 0 0 1.00026 310.843 -415.133)"/><path d="M-362.068 307.196C-362.068 312.271-366.183 316.386-371.258 316.386-376.334 316.386-380.449 312.271-380.449 307.196-380.449 302.12-376.334 298.005-371.258 298.005-366.183 298.005-362.068 302.12-362.068 307.196Z" stroke="#935690" stroke-width="1.59833" fill="#D27CCE" transform="matrix(1 0 0 1.00026 310.843 -415.133)"/><path d="M-692.73 548.256C-692.73 553.332-696.845 557.447-701.921 557.447-706.996 557.447-711.111 553.332-711.111 548.256-711.111 543.181-706.996 539.066-701.921 539.066-696.845 539.066-692.73 543.181-692.73 548.256Z" stroke="#935690" stroke-width="1.59833" fill="#D27CCE" transform="matrix(1 0 0 1.00026 310.843 -415.133)"/><path d="M-406.928 384.477C-406.928 389.553-411.043 393.668-416.118 393.668-421.194 393.668-425.309 389.553-425.309 384.477-425.309 379.402-421.194 375.287-416.118 375.287-411.043 375.287-406.928 379.402-406.928 384.477Z" stroke="#935690" stroke-width="1.59833" fill="#D27CCE" transform="matrix(1 0 0 1.00026 310.843 -415.133)"/><path d="M-850.428 497.167C-850.428 502.243-854.543 506.358-859.619 506.358-864.695 506.358-868.809 502.243-868.809 497.167-868.809 492.091-864.695 487.977-859.619 487.977-854.543 487.977-850.428 492.091-850.428 497.167Z" stroke="#487925" stroke-width="1.59833" fill="#68AD36" transform="matrix(1 0 0 1.00026 310.843 -415.133)"/><path d="M-464.433 450.273C-464.433 455.349-468.548 459.464-473.623 459.464-478.699 459.464-482.814 455.349-482.814 450.273-482.814 445.198-478.699 441.083-473.623 441.083-468.548 441.083-464.433 445.198-464.433 450.273Z" stroke="#487925" stroke-width="1.59833" fill="#68AD36" transform="matrix(1 0 0 1.00026 310.843 -415.133)"/><path d="M-338.434 137.312C-338.434 142.387-342.548 146.502-347.624 146.502-352.7 146.502-356.815 142.387-356.815 137.312-356.815 132.236-352.7 128.121-347.624 128.121-342.548 128.121-338.434 132.236-338.434 137.312Z" stroke="#487925" stroke-width="1.59833" fill="#68AD36" transform="matrix(1 0 0 1.00026 310.843 -415.133)"/><path d="M-654.912 466.954C-654.912 472.03-659.027 476.144-664.103 476.144-669.178 476.144-673.293 472.03-673.293 466.954-673.293 461.878-669.178 457.764-664.103 457.764-659.027 457.764-654.912 461.878-654.912 466.954Z" stroke="#487925" stroke-width="1.59833" fill="#68AD36" transform="matrix(1 0 0 1.00026 310.843 -415.133)"/><path d="M-774.487 530.823C-774.487 535.899-778.602 540.014-783.678 540.014-788.753 540.014-792.868 535.899-792.868 530.823-792.868 525.748-788.753 521.633-783.678 521.633-778.602 521.633-774.487 525.747-774.487 530.823Z" stroke="#B2512B" stroke-width="1.59833" fill="#FF743E" transform="matrix(1 0 0 1.00026 310.843 -415.133)"/><path d="M-614.037 221.315C-614.037 226.391-618.152 230.506-623.228 230.506-628.303 230.506-632.418 226.391-632.418 221.315-632.418 216.24-628.303 212.125-623.228 212.125-618.152 212.125-614.037 216.24-614.037 221.315Z" stroke="#487925" stroke-width="1.59833" fill="#68AD36" transform="matrix(1 0 0 1.00026 310.843 -415.133)"/><path d="M-457.405-131.238C-457.405-126.163-461.52-122.048-466.596-122.048-471.672-122.048-475.786-126.163-475.786-131.238-475.786-136.314-471.672-140.429-466.596-140.429-461.52-140.429-457.405-136.314-457.405-131.238Z" stroke="#487925" stroke-width="1.59833" fill="#68AD36" transform="matrix(1 0 0 1.00026 310.843 -415.133)"/><path d="M-921.73 447.216C-921.73 452.292-925.844 456.406-930.92 456.406-935.996 456.406-940.111 452.292-940.111 447.216-940.111 442.14-935.996 438.026-930.92 438.026-925.844 438.026-921.73 442.14-921.73 447.216Z" stroke="#935690" stroke-width="1.59833" fill="#D27CCE" transform="matrix(1 0 0 1.00026 310.843 -415.133)"/><path d="M-764.183 235.372C-764.183 240.448-768.297 244.563-773.373 244.563-778.449 244.563-782.564 240.448-782.564 235.372-782.564 230.297-778.449 226.182-773.373 226.182-768.298 226.182-764.183 230.297-764.183 235.372Z" stroke="#935690" stroke-width="1.59833" fill="#D27CCE" transform="matrix(1 0 0 1.00026 310.843 -415.133)"/><path d="M-541.456-293.402C-541.456-288.326-545.571-284.211-550.647-284.211-555.722-284.211-559.837-288.326-559.837-293.402-559.837-298.477-555.723-302.592-550.647-302.592-545.571-302.592-541.456-298.477-541.456-293.402Z" stroke="#935690" stroke-width="1.59833" fill="#D27CCE" transform="matrix(1 0 0 1.00026 310.843 -415.133)"/><path d="M-529.91 503.033C-529.91 508.108-534.024 512.223-539.1 512.223-544.176 512.223-548.291 508.108-548.291 503.033-548.291 497.957-544.176 493.842-539.1 493.842-534.025 493.842-529.91 497.957-529.91 503.033Z" stroke="#935690" stroke-width="1.59833" fill="#D27CCE" transform="matrix(1 0 0 1.00026 310.843 -415.133)"/><path d="M-828.082 303.883C-828.082 308.959-832.196 313.073-837.272 313.073-842.348 313.073-846.463 308.959-846.463 303.883-846.463 298.807-842.348 294.692-837.272 294.692-832.196 294.692-828.082 298.807-828.082 303.883Z" stroke="#487925" stroke-width="1.59833" fill="#68AD36" transform="matrix(1 0 0 1.00026 310.843 -415.133)"/><path d="M-555.319 38.6496C-555.319 43.7253-559.434 47.84-564.51 47.84-569.585 47.84-573.7 43.7253-573.7 38.6496-573.7 33.5739-569.585 29.4592-564.51 29.4592-559.434 29.4592-555.319 33.5739-555.319 38.6496Z" stroke="#935690" stroke-width="1.59833" fill="#D27CCE" transform="matrix(1 0 0 1.00026 310.843 -415.133)"/><path d="M-605.221 539.111C-605.221 544.187-609.336 548.302-614.411 548.302-619.487 548.302-623.602 544.187-623.602 539.111-623.602 534.036-619.487 529.921-614.411 529.921-609.336 529.921-605.221 534.036-605.221 539.111Z" stroke="#935690" stroke-width="1.59833" fill="#D27CCE" transform="matrix(1 0 0 1.00026 310.843 -415.133)"/><path d="M-738.487-733.309C-738.487-728.234-742.601-724.119-747.677-724.119-752.753-724.119-756.868-728.234-756.868-733.309-756.868-738.385-752.753-742.5-747.677-742.5-742.602-742.5-738.487-738.385-738.487-733.309Z" stroke="#935690" stroke-width="1.59833" fill="#D27CCE" transform="matrix(1 0 0 1.00026 310.843 -415.133)"/><path d="M645.909-319.791C645.909-314.716 641.794-310.601 636.719-310.601 631.643-310.601 627.528-314.716 627.528-319.791 627.528-324.867 631.643-328.982 636.719-328.982 641.794-328.982 645.909-324.867 645.909-319.791Z" stroke="#B2512B" stroke-width="1.59833" fill="#FF743E" transform="matrix(1 0 0 1.00026 310.843 -415.133)"/><path d="M768.889-231.221C768.889-226.145 764.774-222.031 759.699-222.031 754.623-222.031 750.508-226.145 750.508-231.221 750.508-236.297 754.623-240.411 759.699-240.411 764.774-240.411 768.889-236.297 768.889-231.221Z" stroke="#487925" stroke-width="1.59833" fill="#68AD36" transform="matrix(1 0 0 1.00026 310.843 -415.133)"/><path d="M444.085-193.852C444.085-188.777 439.97-184.662 434.894-184.662 429.819-184.662 425.704-188.777 425.704-193.852 425.704-198.928 429.819-203.043 434.894-203.043 439.97-203.043 444.085-198.928 444.085-193.852Z" stroke="#487925" stroke-width="1.59833" fill="#68AD36" transform="matrix(1 0 0 1.00026 310.843 -415.133)"/><path d="M324.42-404.709C324.42-399.633 320.306-395.519 315.23-395.519 310.154-395.519 306.039-399.633 306.039-404.709 306.039-409.785 310.154-413.9 315.23-413.9 320.306-413.9 324.42-409.785 324.42-404.709Z" stroke="#935690" stroke-width="1.59833" fill="#D27CCE" transform="matrix(1 0 0 1.00026 310.843 -415.133)"/><path d="M387.403-41.4567C387.403-36.381 383.288-32.2663 378.212-32.2663 373.136-32.2663 369.022-36.381 369.022-41.4567 369.022-46.5325 373.136-50.6471 378.212-50.6471 383.288-50.6471 387.403-46.5325 387.403-41.4567Z" stroke="#935690" stroke-width="1.59833" fill="#D27CCE" transform="matrix(1 0 0 1.00026 310.843 -415.133)"/><path d="M303.603-500.573C303.603-495.497 299.489-491.382 294.413-491.382 289.337-491.382 285.222-495.497 285.222-500.573 285.222-505.649 289.337-509.763 294.413-509.763 299.489-509.763 303.603-505.649 303.603-500.573Z" stroke="#935690" stroke-width="1.59833" fill="#D27CCE" transform="matrix(1 0 0 1.00026 310.843 -415.133)"/><path d="M520.384-221.057C520.384-215.981 516.269-211.867 511.193-211.867 506.118-211.867 502.003-215.981 502.003-221.057 502.003-226.133 506.118-230.247 511.193-230.247 516.269-230.247 520.384-226.133 520.384-221.057Z" stroke="#935690" stroke-width="1.59833" fill="#D27CCE" transform="matrix(1 0 0 1.00026 310.843 -415.133)"/><path d="M313.81-47.0155C313.81-41.9398 309.695-37.8251 304.62-37.8251 299.544-37.8251 295.429-41.9398 295.429-47.0155 295.429-52.0912 299.544-56.2059 304.62-56.2059 309.695-56.2059 313.81-52.0912 313.81-47.0155Z" stroke="#487925" stroke-width="1.59833" fill="#68AD36" transform="matrix(1 0 0 1.00026 310.843 -415.133)"/><path d="M398.842-543.306C398.842-538.231 394.727-534.116 389.651-534.116 384.575-534.116 380.461-538.231 380.461-543.306 380.461-548.382 384.575-552.497 389.651-552.497 394.727-552.497 398.842-548.382 398.842-543.306Z" stroke="#487925" stroke-width="1.59833" fill="#68AD36" transform="matrix(1 0 0 1.00026 310.843 -415.133)"/><path d="M587.761-262.444C587.761-257.368 583.646-253.254 578.571-253.254 573.495-253.254 569.38-257.368 569.38-262.444 569.38-267.52 573.495-271.634 578.571-271.634 583.646-271.634 587.761-267.52 587.761-262.444Z" stroke="#487925" stroke-width="1.59833" fill="#68AD36" transform="matrix(1 0 0 1.00026 310.843 -415.133)"/><path d="M387.792-120.065C387.792-114.989 383.677-110.874 378.601-110.874 373.525-110.874 369.411-114.989 369.411-120.065 369.411-125.141 373.525-129.255 378.601-129.255 383.677-129.255 387.792-125.141 387.792-120.065Z" stroke="#B2512B" stroke-width="1.59833" fill="#FF743E" transform="matrix(1 0 0 1.00026 310.843 -415.133)"/><path d="M561.496-440.149C561.496-435.074 557.382-430.959 552.306-430.959 547.23-430.959 543.116-435.074 543.116-440.149 543.116-445.225 547.23-449.34 552.306-449.34 557.382-449.34 561.496-445.225 561.496-440.149Z" stroke="#935690" stroke-width="1.59833" fill="#D27CCE" transform="matrix(1 0 0 1.00026 310.843 -415.133)"/><path d="M261.902-666.869C261.902-661.793 257.788-657.678 252.712-657.678 247.636-657.678 243.522-661.793 243.522-666.869 243.522-671.944 247.636-676.059 252.712-676.059 257.788-676.059 261.902-671.944 261.902-666.869Z" stroke="#935690" stroke-width="1.59833" fill="#D27CCE" transform="matrix(1 0 0 1.00026 310.843 -415.133)"/><path d="M609.607-85.176C609.607-80.1003 605.493-75.9856 600.417-75.9856 595.341-75.9856 591.226-80.1003 591.226-85.176 591.226-90.2517 595.341-94.3664 600.417-94.3664 605.493-94.3664 609.607-90.2517 609.607-85.176Z" stroke="#B2512B" stroke-width="1.59833" fill="#FF743E" transform="matrix(1 0 0 1.00026 310.843 -415.133)"/><path d="M648.165-402.579C648.165-397.504 644.051-393.389 638.975-393.389 633.899-393.389 629.784-397.504 629.784-402.579 629.784-407.655 633.899-411.77 638.975-411.77 644.05-411.77 648.165-407.655 648.165-402.579Z" stroke="#935690" stroke-width="1.59833" fill="#D27CCE" transform="matrix(1 0 0 1.00026 310.843 -415.133)"/><path d="M393.32-455.56C393.32-450.484 389.205-446.369 384.129-446.369 379.054-446.369 374.939-450.484 374.939-455.56 374.939-460.636 379.054-464.75 384.129-464.75 389.205-464.75 393.32-460.636 393.32-455.56Z" stroke="#487925" stroke-width="1.59833" fill="#68AD36" transform="matrix(1 0 0 1.00026 310.843 -415.133)"/><path d="M613.587-178.28C613.587-173.205 609.472-169.09 604.397-169.09 599.321-169.09 595.206-173.205 595.206-178.28 595.206-183.356 599.321-187.471 604.397-187.471 609.472-187.471 613.587-183.356 613.587-178.28Z" stroke="#935690" stroke-width="1.59833" fill="#D27CCE" transform="matrix(1 0 0 1.00026 310.843 -415.133)"/><path d="M359.758-203.016C359.758-197.94 355.643-193.825 350.568-193.825 345.492-193.825 341.377-197.94 341.377-203.016 341.377-208.092 345.492-212.206 350.568-212.206 355.643-212.206 359.758-208.092 359.758-203.016Z" stroke="#008098" stroke-width="1.59833" fill="#00B7DA" transform="matrix(1 0 0 1.00026 310.843 -415.133)"/><path d="M337.174-292.643C337.174-287.567 333.059-283.453 327.984-283.453 322.908-283.453 318.793-287.567 318.793-292.643 318.793-297.719 322.908-301.834 327.984-301.834 333.059-301.834 337.174-297.719 337.174-292.643Z" stroke="#935690" stroke-width="1.59833" fill="#D27CCE" transform="matrix(1 0 0 1.00026 310.843 -415.133)"/><path d="M123.705-718.617C123.705-713.542 119.59-709.427 114.515-709.427 109.439-709.427 105.324-713.542 105.324-718.617 105.324-723.693 109.439-727.808 114.515-727.808 119.59-727.808 123.705-723.693 123.705-718.617Z" stroke="#487925" stroke-width="1.59833" fill="#68AD36" transform="matrix(1 0 0 1.00026 310.843 -415.133)"/><path d="M471.07-119.098C471.07-114.022 466.956-109.908 461.88-109.908 456.804-109.908 452.69-114.022 452.69-119.098 452.69-124.174 456.804-128.288 461.88-128.288 466.956-128.288 471.07-124.174 471.07-119.098Z" stroke="#487925" stroke-width="1.59833" fill="#68AD36" transform="matrix(1 0 0 1.00026 310.843 -415.133)"/><path d="M641.407-483.325C641.407-478.249 637.293-474.134 632.217-474.134 627.141-474.134 623.026-478.249 623.026-483.325 623.026-488.4 627.141-492.515 632.217-492.515 637.293-492.515 641.407-488.4 641.407-483.325Z" stroke="#935690" stroke-width="1.59833" fill="#D27CCE" transform="matrix(1 0 0 1.00026 310.843 -415.133)"/><path d="M27.1546-716.925C27.1546-711.85 23.0399-707.735 17.9642-707.735 12.8884-707.735 8.77373-711.849 8.77373-716.925 8.77373-722.001 12.8884-726.116 17.9642-726.116 23.0399-726.116 27.1546-722.001 27.1546-716.925Z" stroke="#935690" stroke-width="1.59833" fill="#D27CCE" transform="matrix(1 0 0 1.00026 310.843 -415.133)"/><path d="M499.893-306.807C499.893-301.732 495.778-297.617 490.702-297.617 485.626-297.617 481.512-301.732 481.512-306.807 481.512-311.883 485.626-315.998 490.702-315.998 495.778-315.998 499.893-311.883 499.893-306.807Z" stroke="#935690" stroke-width="1.59833" fill="#D27CCE" transform="matrix(1 0 0 1.00026 310.843 -415.133)"/><path d="M307.584-129.113C307.584-124.038 303.469-119.923 298.393-119.923 293.318-119.923 289.203-124.038 289.203-129.113 289.203-134.189 293.318-138.304 298.393-138.304 303.469-138.304 307.584-134.189 307.584-129.113Z" stroke="#935690" stroke-width="1.59833" fill="#D27CCE" transform="matrix(1 0 0 1.00026 310.843 -415.133)"/><path d="M727.825-447.949C727.825-442.873 723.71-438.758 718.634-438.758 713.559-438.758 709.444-442.873 709.444-447.949 709.444-453.025 713.559-457.139 718.634-457.139 723.71-457.139 727.825-453.025 727.825-447.949Z" stroke="#935690" stroke-width="1.59833" fill="#D27CCE" transform="matrix(1 0 0 1.00026 310.843 -415.133)"/><path d="M423.48-274.837C423.48-269.761 419.365-265.646 414.289-265.646 409.214-265.646 405.099-269.761 405.099-274.837 405.099-279.912 409.214-284.027 414.289-284.027 419.365-284.027 423.48-279.912 423.48-274.837Z" stroke="#B2512B" stroke-width="1.59833" fill="#FF743E" transform="matrix(1 0 0 1.00026 310.843 -415.133)"/><path d="M546.388-142.63C546.388-137.554 542.273-133.439 537.197-133.439 532.122-133.439 528.007-137.554 528.007-142.63 528.007-147.706 532.122-151.82 537.197-151.82 542.273-151.82 546.388-147.706 546.388-142.63Z" stroke="#935690" stroke-width="1.59833" fill="#D27CCE" transform="matrix(1 0 0 1.00026 310.843 -415.133)"/><path d="M267.768-337.532C267.768-332.457 263.653-328.342 258.578-328.342 253.502-328.342 249.387-332.457 249.387-337.532 249.387-342.608 253.502-346.723 258.578-346.723 263.653-346.723 267.768-342.608 267.768-337.532Z" stroke="#935690" stroke-width="1.59833" fill="#D27CCE" transform="matrix(1 0 0 1.00026 310.843 -415.133)"/><path d="M178.266-652.197C178.266-647.121 174.151-643.006 169.076-643.006 164-643.006 159.885-647.121 159.885-652.197 159.885-657.273 164-661.387 169.076-661.387 174.151-661.387 178.266-657.273 178.266-652.197Z" stroke="#B2512B" stroke-width="1.59833" fill="#FF743E" transform="matrix(1 0 0 1.00026 310.843 -415.133)"/><path d="M567.721-354.823C567.721-349.747 563.607-345.632 558.531-345.632 553.455-345.632 549.341-349.747 549.341-354.823 549.341-359.899 553.455-364.013 558.531-364.013 563.607-364.013 567.721-359.899 567.721-354.823Z" stroke="#B2512B" stroke-width="1.59833" fill="#FF743E" transform="matrix(1 0 0 1.00026 310.843 -415.133)"/><path d="M672.435-122.258C672.435-117.182 668.32-113.067 663.244-113.067 658.168-113.067 654.054-117.182 654.054-122.258 654.054-127.334 658.168-131.448 663.244-131.448 668.32-131.448 672.435-127.334 672.435-122.258Z" stroke="#B2512B" stroke-width="1.59833" fill="#FF743E" transform="matrix(1 0 0 1.00026 310.843 -415.133)"/><path d="M346.785-680.144C346.785-675.068 342.67-670.954 337.594-670.954 332.518-670.954 328.404-675.068 328.404-680.144 328.404-685.22 332.518-689.335 337.594-689.335 342.67-689.335 346.785-685.22 346.785-680.144Z" stroke="#935690" stroke-width="1.59833" fill="#D27CCE" transform="matrix(1 0 0 1.00026 310.843 -415.133)"/><path d="M402.859-359.826C402.859-354.75 398.744-350.635 393.668-350.635 388.592-350.635 384.478-354.75 384.478-359.826 384.478-364.901 388.592-369.016 393.668-369.016 398.744-369.016 402.859-364.901 402.859-359.826Z" stroke="#B2512B" stroke-width="1.59833" fill="#FF743E" transform="matrix(1 0 0 1.00026 310.843 -415.133)"/><path d="M539.091-58.886C539.091-53.8103 534.977-49.6956 529.901-49.6956 524.825-49.6956 520.71-53.8103 520.71-58.886 520.71-63.9618 524.825-68.0765 529.901-68.0765 534.977-68.0765 539.091-63.9618 539.091-58.886Z" stroke="#935690" stroke-width="1.59833" fill="#D27CCE" transform="matrix(1 0 0 1.00026 310.843 -415.133)"/><path d="M439.031-723.898C439.031-718.823 434.916-714.708 429.84-714.708 424.764-714.708 420.65-718.823 420.65-723.898 420.65-728.974 424.764-733.089 429.84-733.089 434.916-733.089 439.031-728.974 439.031-723.898Z" stroke="#935690" stroke-width="1.59833" fill="#D27CCE" transform="matrix(1 0 0 1.00026 310.843 -415.133)"/><path d="M147.125-575.482C147.125-570.406 143.011-566.291 137.935-566.291 132.859-566.291 128.745-570.406 128.745-575.482 128.745-580.557 132.859-584.672 137.935-584.672 143.011-584.672 147.125-580.558 147.125-575.482Z" stroke="#935690" stroke-width="1.59833" fill="#D27CCE" transform="matrix(1 0 0 1.00026 310.843 -415.133)"/><path d="M628.779-567.12C628.779-562.045 624.664-557.93 619.589-557.93 614.513-557.93 610.398-562.045 610.398-567.12 610.398-572.196 614.513-576.311 619.589-576.311 624.664-576.311 628.779-572.196 628.779-567.12Z" stroke="#935690" stroke-width="1.59833" fill="#D27CCE" transform="matrix(1 0 0 1.00026 310.843 -415.133)"/><path d="M525.916-768.457C525.916-763.382 521.802-759.267 516.726-759.267 511.65-759.267 507.535-763.382 507.535-768.457 507.535-773.533 511.65-777.648 516.726-777.648 521.802-777.648 525.916-773.533 525.916-768.457Z" stroke="#935690" stroke-width="1.59833" fill="#D27CCE" transform="matrix(1 0 0 1.00026 310.843 -415.133)"/><path d="M200.091-502.814C200.091-497.739 195.976-493.624 190.9-493.624 185.824-493.624 181.71-497.739 181.71-502.814 181.71-507.89 185.824-512.005 190.9-512.005 195.976-512.005 200.091-507.89 200.091-502.814Z" stroke="#935690" stroke-width="1.59833" fill="#D27CCE" transform="matrix(1 0 0 1.00026 310.843 -415.133)"/><path d="M282.497-755.119C282.497-750.043 278.382-745.928 273.307-745.928 268.231-745.928 264.116-750.043 264.116-755.119 264.116-760.195 268.231-764.309 273.307-764.309 278.382-764.309 282.497-760.195 282.497-755.119Z" stroke="#935690" stroke-width="1.59833" fill="#D27CCE" transform="matrix(1 0 0 1.00026 310.843 -415.133)"/><path d="M579.809-830.921C579.809-825.845 575.694-821.731 570.618-821.731 565.542-821.731 561.428-825.845 561.428-830.921 561.428-835.997 565.542-840.111 570.618-840.111 575.694-840.111 579.809-835.997 579.809-830.921Z" stroke="#935690" stroke-width="1.59833" fill="#D27CCE" transform="matrix(1 0 0 1.00026 310.843 -415.133)"/><path d="M215.438-268.841C215.438-263.765 211.323-259.651 206.247-259.651 201.171-259.651 197.057-263.765 197.057-268.841 197.057-273.917 201.171-278.031 206.247-278.031 211.323-278.031 215.438-273.917 215.438-268.841Z" stroke="#B2512B" stroke-width="1.59833" fill="#FF743E" transform="matrix(1 0 0 1.00026 310.843 -415.133)"/><path d="M486.581-583.135C486.581-578.059 482.466-573.945 477.39-573.945 472.315-573.945 468.2-578.059 468.2-583.135 468.2-588.211 472.315-592.325 477.39-592.325 482.466-592.325 486.581-588.211 486.581-583.135Z" stroke="#935690" stroke-width="1.59833" fill="#D27CCE" transform="matrix(1 0 0 1.00026 310.843 -415.133)"/><path d="M588.045-721.072C588.045-715.996 583.93-711.881 578.854-711.881 573.779-711.881 569.664-715.996 569.664-721.072 569.664-726.148 573.779-730.262 578.854-730.262 583.93-730.262 588.045-726.148 588.045-721.072Z" stroke="#B2512B" stroke-width="1.59833" fill="#FF743E" transform="matrix(1 0 0 1.00026 310.843 -415.133)"/><path d="M279.757-220.451C279.757-215.375 275.642-211.26 270.566-211.26 265.491-211.26 261.376-215.375 261.376-220.451 261.376-225.526 265.491-229.641 270.566-229.641 275.642-229.641 279.757-225.526 279.757-220.451Z" stroke="#935690" stroke-width="1.59833" fill="#D27CCE" transform="matrix(1 0 0 1.00026 310.843 -415.133)"/><path d="M480.615-396.724C480.615-391.648 476.5-387.533 471.425-387.533 466.349-387.533 462.234-391.648 462.234-396.724 462.234-401.8 466.349-405.914 471.425-405.914 476.5-405.914 480.615-401.8 480.615-396.724Z" stroke="#935690" stroke-width="1.59833" fill="#D27CCE" transform="matrix(1 0 0 1.00026 310.843 -415.133)"/><path d="M384.281-840.489C384.281-835.414 380.166-831.299 375.09-831.299 370.015-831.299 365.9-835.414 365.9-840.489 365.9-845.565 370.015-849.68 375.09-849.68 380.166-849.68 384.281-845.565 384.281-840.489Z" stroke="#B2512B" stroke-width="1.59833" fill="#FF743E" transform="matrix(1 0 0 1.00026 310.843 -415.133)"/><path d="M796.843-525.173C796.843-520.098 792.728-515.983 787.652-515.983 782.577-515.983 778.462-520.098 778.462-525.173 778.462-530.249 782.577-534.364 787.652-534.364 792.728-534.364 796.843-530.249 796.843-525.173Z" stroke="#B2512B" stroke-width="1.59833" fill="#FF743E" transform="matrix(1 0 0 1.00026 310.843 -415.133)"/><path d="M77.2326-863.661C77.2326-858.586 73.1179-854.471 68.0422-854.471 62.9665-854.471 58.8518-858.586 58.8518-863.661 58.8518-868.737 62.9665-872.852 68.0422-872.852 73.1179-872.852 77.2326-868.737 77.2326-863.661Z" stroke="#935690" stroke-width="1.59833" fill="#D27CCE" transform="matrix(1 0 0 1.00026 310.843 -415.133)"/><path d="M807.916-379.967C807.916-374.891 803.801-370.776 798.726-370.776 793.65-370.776 789.535-374.891 789.535-379.967 789.535-385.043 793.65-389.157 798.726-389.157 803.801-389.157 807.916-385.043 807.916-379.967Z" stroke="#935690" stroke-width="1.59833" fill="#D27CCE" transform="matrix(1 0 0 1.00026 310.843 -415.133)"/><path d="M172.568-94.1173C172.568-89.0415 168.454-84.9269 163.378-84.9269 158.302-84.9269 154.187-89.0415 154.187-94.1173 154.187-99.193 158.302-103.308 163.378-103.308 168.454-103.308 172.568-99.193 172.568-94.1173Z" stroke="#B2512B" stroke-width="1.59833" fill="#FF743E" transform="matrix(1 0 0 1.00026 310.843 -415.133)"/><path d="M11.3125-820.61C11.3125-815.534 7.19778-811.419 2.12205-811.419-2.95368-811.419-7.06838-815.534-7.06838-820.61-7.06838-825.686-2.95368-829.8 2.12205-829.8 7.19778-829.8 11.3125-825.686 11.3125-820.61Z" stroke="#935690" stroke-width="1.59833" fill="#D27CCE" transform="matrix(1 0 0 1.00026 310.843 -415.133)"/><path d="M75.0807-780.014C75.0807-774.938 70.966-770.824 65.8903-770.824 60.8145-770.824 56.6999-774.938 56.6999-780.014 56.6999-785.09 60.8145-789.205 65.8903-789.205 70.966-789.205 75.0807-785.09 75.0807-780.014Z" stroke="#935690" stroke-width="1.59833" fill="#D27CCE" transform="matrix(1 0 0 1.00026 310.843 -415.133)"/><path d="M457.858-807.68C457.858-802.604 453.743-798.489 448.668-798.489 443.592-798.489 439.477-802.604 439.477-807.68 439.477-812.755 443.592-816.87 448.668-816.87 453.743-816.87 457.858-812.755 457.858-807.68Z" stroke="#B2512B" stroke-width="1.59833" fill="#FF743E" transform="matrix(1 0 0 1.00026 310.843 -415.133)"/><path d="M-36.2405-763.96C-36.2405-758.884-40.3552-754.77-45.4309-754.77-50.5066-754.77-54.6213-758.884-54.6213-763.96-54.6213-769.036-50.5066-773.151-45.4309-773.151-40.3552-773.151-36.2405-769.036-36.2405-763.96Z" stroke="#935690" stroke-width="1.59833" fill="#D27CCE" transform="matrix(1 0 0 1.00026 310.843 -415.133)"/><path d="M149.196-810.526C149.196-805.451 145.082-801.336 140.006-801.336 134.93-801.336 130.816-805.451 130.816-810.526 130.816-815.602 134.93-819.717 140.006-819.717 145.082-819.717 149.196-815.602 149.196-810.526Z" stroke="#935690" stroke-width="1.59833" fill="#D27CCE" transform="matrix(1 0 0 1.00026 310.843 -415.133)"/><path d="M365.161-916.288C365.161-911.212 361.046-907.097 355.97-907.097 350.895-907.097 346.78-911.212 346.78-916.288 346.78-921.363 350.895-925.478 355.97-925.478 361.046-925.478 365.161-921.364 365.161-916.288Z" stroke="#935690" stroke-width="1.59833" fill="#D27CCE" transform="matrix(1 0 0 1.00026 310.843 -415.133)"/><path d="M101.502-498.452C101.502-493.376 97.3876-489.261 92.3119-489.261 87.2361-489.261 83.1214-493.376 83.1214-498.452 83.1214-503.528 87.2361-507.642 92.3119-507.642 97.3876-507.642 101.502-503.528 101.502-498.452Z" stroke="#935690" stroke-width="1.59833" fill="#D27CCE" transform="matrix(1 0 0 1.00026 310.843 -415.133)"/><path d="M224.927-830.011C224.927-824.935 220.813-820.821 215.737-820.821 210.661-820.821 206.547-824.935 206.547-830.011 206.547-835.087 210.661-839.202 215.737-839.202 220.813-839.202 224.927-835.087 224.927-830.011Z" stroke="#935690" stroke-width="1.59833" fill="#D27CCE" transform="matrix(1 0 0 1.00026 310.843 -415.133)"/><path d="M145.967-892.189C145.967-887.113 141.853-882.998 136.777-882.998 131.701-882.998 127.587-887.113 127.587-892.189 127.587-897.265 131.701-901.379 136.777-901.379 141.853-901.379 145.967-897.265 145.967-892.189Z" stroke="#935690" stroke-width="1.59833" fill="#D27CCE" transform="matrix(1 0 0 1.00026 310.843 -415.133)"/><path d="M143.629-427.243C143.629-422.168 139.515-418.053 134.439-418.053 129.363-418.053 125.248-422.168 125.248-427.243 125.248-432.319 129.363-436.434 134.439-436.434 139.515-436.434 143.629-432.319 143.629-427.243Z" stroke="#935690" stroke-width="1.59833" fill="#D27CCE" transform="matrix(1 0 0 1.00026 310.843 -415.133)"/><path d="M202.914-742.071C202.914-736.995 198.799-732.88 193.723-732.88 188.647-732.88 184.533-736.995 184.533-742.071 184.533-747.146 188.647-751.261 193.723-751.261 198.799-751.261 202.914-747.146 202.914-742.071Z" stroke="#935690" stroke-width="1.59833" fill="#D27CCE" transform="matrix(1 0 0 1.00026 310.843 -415.133)"/><path d="M216.382-910.148C216.382-905.072 212.267-900.957 207.191-900.957 202.116-900.957 198.001-905.072 198.001-910.148 198.001-915.223 202.116-919.338 207.191-919.338 212.267-919.338 216.382-915.223 216.382-910.148Z" stroke="#935690" stroke-width="1.59833" fill="#D27CCE" transform="matrix(1 0 0 1.00026 310.843 -415.133)"/><path d="M238.841-427.945C238.841-422.869 234.727-418.754 229.651-418.754 224.575-418.754 220.461-422.869 220.461-427.945 220.461-433.021 224.575-437.135 229.651-437.135 234.727-437.135 238.841-433.021 238.841-427.945Z" stroke="#935690" stroke-width="1.59833" fill="#D27CCE" transform="matrix(1 0 0 1.00026 310.843 -415.133)"/><path d="M-71.0313-701.398C-71.0313-696.322-75.146-692.207-80.2217-692.207-85.2974-692.207-89.4121-696.322-89.4121-701.398-89.4121-706.473-85.2974-710.588-80.2217-710.588-75.146-710.588-71.0313-706.474-71.0313-701.398Z" stroke="#935690" stroke-width="1.59833" fill="#D27CCE" transform="matrix(1 0 0 1.00026 310.843 -415.133)"/><path d="M444.831-897.873C444.831-892.797 440.716-888.683 435.64-888.683 430.565-888.683 426.45-892.797 426.45-897.873 426.45-902.949 430.565-907.063 435.64-907.063 440.716-907.063 444.831-902.949 444.831-897.873Z" stroke="#935690" stroke-width="1.59833" fill="#D27CCE" transform="matrix(1 0 0 1.00026 310.843 -415.133)"/><path d="M365.697-762.984C365.697-757.908 361.583-753.793 356.507-753.793 351.431-753.793 347.317-757.908 347.317-762.984 347.317-768.059 351.431-772.174 356.507-772.174 361.583-772.174 365.697-768.059 365.697-762.984Z" stroke="#B2512B" stroke-width="1.59833" fill="#FF743E" transform="matrix(1 0 0 1.00026 310.843 -415.133)"/><path d="M89.0541-350.838C89.0541-345.762 84.9395-341.647 79.8637-341.647 74.788-341.647 70.6733-345.762 70.6733-350.838 70.6733-355.914 74.788-360.028 79.8637-360.028 84.9395-360.028 89.0541-355.914 89.0541-350.838Z" stroke="#935690" stroke-width="1.59833" fill="#D27CCE" transform="matrix(1 0 0 1.00026 310.843 -415.133)"/><path d="M515.538-867.789C515.538-862.713 511.423-858.598 506.347-858.598 501.271-858.598 497.157-862.713 497.157-867.789 497.157-872.864 501.271-876.979 506.347-876.979 511.423-876.979 515.538-872.864 515.538-867.789Z" stroke="#935690" stroke-width="1.59833" fill="#D27CCE" transform="matrix(1 0 0 1.00026 310.843 -415.133)"/><path d="M419.69-635.314C419.69-630.239 415.575-626.124 410.499-626.124 405.424-626.124 401.309-630.238 401.309-635.314 401.309-640.39 405.424-644.505 410.499-644.505 415.575-644.505 419.69-640.39 419.69-635.314Z" stroke="#935690" stroke-width="1.59833" fill="#D27CCE" transform="matrix(1 0 0 1.00026 310.843 -415.133)"/><path d="M179.152-350.735C179.152-345.659 175.037-341.545 169.962-341.545 164.886-341.545 160.771-345.659 160.771-350.735 160.771-355.811 164.886-359.925 169.962-359.925 175.037-359.925 179.152-355.811 179.152-350.735Z" stroke="#935690" stroke-width="1.59833" fill="#D27CCE" transform="matrix(1 0 0 1.00026 310.843 -415.133)"/><path d="M-38.2-413.817C-38.2-408.741-42.3147-404.627-47.3904-404.627-52.4662-404.627-56.5808-408.741-56.5808-413.817-56.5808-418.893-52.4662-423.008-47.3904-423.008-42.3147-423.008-38.2-418.893-38.2-413.817Z" stroke="#935690" stroke-width="1.59833" fill="#D27CCE" transform="matrix(1 0 0 1.00026 310.843 -415.133)"/><path d="M476.315-487.341C476.315-482.266 472.201-478.151 467.125-478.151 462.049-478.151 457.934-482.266 457.934-487.341 457.934-492.417 462.049-496.532 467.125-496.532 472.201-496.532 476.315-492.417 476.315-487.341Z" stroke="#935690" stroke-width="1.59833" fill="#D27CCE" transform="matrix(1 0 0 1.00026 310.843 -415.133)"/><path d="M242.212-577.474C242.212-572.398 238.097-568.283 233.022-568.283 227.946-568.283 223.831-572.398 223.831-577.474 223.831-582.55 227.946-586.664 233.022-586.664 238.097-586.664 242.212-582.55 242.212-577.474Z" stroke="#B2512B" stroke-width="1.59833" fill="#FF743E" transform="matrix(1 0 0 1.00026 310.843 -415.133)"/><path d="M36.8612-278.447C36.8612-273.372 32.7465-269.257 27.6708-269.257 22.595-269.257 18.4803-273.372 18.4803-278.447 18.4803-283.523 22.595-287.638 27.6708-287.638 32.7465-287.638 36.8612-283.523 36.8612-278.447Z" stroke="#935690" stroke-width="1.59833" fill="#D27CCE" transform="matrix(1 0 0 1.00026 310.843 -415.133)"/><path d="M643.876-665.836C643.876-660.761 639.761-656.646 634.685-656.646 629.61-656.646 625.495-660.761 625.495-665.836 625.495-670.912 629.61-675.027 634.685-675.027 639.761-675.027 643.876-670.912 643.876-665.836Z" stroke="#935690" stroke-width="1.59833" fill="#D27CCE" transform="matrix(1 0 0 1.00026 310.843 -415.133)"/><path d="M327.792-591.546C327.792-586.47 323.677-582.356 318.602-582.356 313.526-582.356 309.411-586.47 309.411-591.546 309.411-596.622 313.526-600.737 318.602-600.737 323.677-600.737 327.792-596.622 327.792-591.546Z" stroke="#935690" stroke-width="1.59833" fill="#D27CCE" transform="matrix(1 0 0 1.00026 310.843 -415.133)"/><path d="M82.7155-648.946C82.7155-643.87 78.6008-639.756 73.5251-639.756 68.4493-639.756 64.3346-643.87 64.3346-648.946 64.3346-654.022 68.4493-658.136 73.5251-658.136 78.6008-658.136 82.7155-654.022 82.7155-648.946Z" stroke="#935690" stroke-width="1.59833" fill="#D27CCE" transform="matrix(1 0 0 1.00026 310.843 -415.133)"/><path d="M776.727-599.295C776.727-594.219 772.612-590.104 767.536-590.104 762.46-590.104 758.346-594.219 758.346-599.295 758.346-604.37 762.46-608.485 767.536-608.485 772.612-608.485 776.727-604.37 776.727-599.295Z" stroke="#B2512B" stroke-width="1.59833" fill="#FF743E" transform="matrix(1 0 0 1.00026 310.843 -415.133)"/><path d="M567.671-625.512C567.671-620.436 563.556-616.321 558.481-616.321 553.405-616.321 549.29-620.436 549.29-625.512 549.29-630.588 553.405-634.702 558.481-634.702 563.556-634.702 567.671-630.588 567.671-625.512Z" stroke="#935690" stroke-width="1.59833" fill="#D27CCE" transform="matrix(1 0 0 1.00026 310.843 -415.133)"/><path d="M49.8748-422.735C49.8748-417.659 45.7601-413.544 40.6844-413.544 35.6086-413.544 31.4939-417.659 31.4939-422.735 31.4939-427.81 35.6086-431.925 40.6844-431.925 45.7601-431.925 49.8748-427.81 49.8748-422.735Z" stroke="#935690" stroke-width="1.59833" fill="#D27CCE" transform="matrix(1 0 0 1.00026 310.843 -415.133)"/><path d="M808.133-452.689C808.133-447.614 804.019-443.499 798.943-443.499 793.867-443.499 789.752-447.614 789.752-452.689 789.752-457.765 793.867-461.88 798.943-461.88 804.019-461.88 808.133-457.765 808.133-452.689Z" stroke="#487925" stroke-width="1.59833" fill="#68AD36" transform="matrix(1 0 0 1.00026 310.843 -415.133)"/><path d="M698.009-605.255C698.009-600.179 693.895-596.064 688.819-596.064 683.743-596.064 679.628-600.179 679.628-605.255 679.628-610.33 683.743-614.445 688.819-614.445 693.895-614.445 698.009-610.33 698.009-605.255Z" stroke="#487925" stroke-width="1.59833" fill="#68AD36" transform="matrix(1 0 0 1.00026 310.843 -415.133)"/><path d="M303.05-838.473C303.05-833.398 298.935-829.283 293.859-829.283 288.784-829.283 284.669-833.397 284.669-838.473 284.669-843.549 288.784-847.664 293.859-847.664 298.935-847.664 303.05-843.549 303.05-838.473Z" stroke="#935690" stroke-width="1.59833" fill="#D27CCE" transform="matrix(1 0 0 1.00026 310.843 -415.133)"/><path d="M719.552-291.232C719.552-286.157 715.437-282.042 710.361-282.042 705.286-282.042 701.171-286.157 701.171-291.232 701.171-296.308 705.286-300.423 710.361-300.423 715.437-300.423 719.552-296.308 719.552-291.232Z" stroke="#935690" stroke-width="1.59833" fill="#D27CCE" transform="matrix(1 0 0 1.00026 310.843 -415.133)"/><path d="M716.409-525.625C716.409-520.55 712.294-516.435 707.218-516.435 702.142-516.435 698.028-520.55 698.028-525.625 698.028-530.701 702.142-534.816 707.218-534.816 712.294-534.816 716.409-530.701 716.409-525.625Z" stroke="#935690" stroke-width="1.59833" fill="#D27CCE" transform="matrix(1 0 0 1.00026 310.843 -415.133)"/><path d="M506.81-679.001C506.81-673.925 502.695-669.81 497.62-669.81 492.544-669.81 488.429-673.925 488.429-679.001 488.429-684.077 492.544-688.191 497.62-688.191 502.695-688.191 506.81-684.077 506.81-679.001Z" stroke="#935690" stroke-width="1.59833" fill="#D27CCE" transform="matrix(1 0 0 1.00026 310.843 -415.133)"/><path d="M670.483-229.075C670.483-223.999 666.369-219.885 661.293-219.885 656.217-219.885 652.103-223.999 652.103-229.075 652.103-234.151 656.217-238.265 661.293-238.265 666.369-238.265 670.483-234.151 670.483-229.075Z" stroke="#935690" stroke-width="1.59833" fill="#D27CCE" transform="matrix(1 0 0 1.00026 310.843 -415.133)"/><path d="M797.731-305.87C797.731-300.794 793.617-296.679 788.541-296.679 783.465-296.679 779.35-300.794 779.35-305.87 779.35-310.946 783.465-315.06 788.541-315.06 793.617-315.06 797.731-310.946 797.731-305.87Z" stroke="#935690" stroke-width="1.59833" fill="#D27CCE" transform="matrix(1 0 0 1.00026 310.843 -415.133)"/><path d="M738.396-673.931C738.396-668.855 734.281-664.74 729.205-664.74 724.13-664.74 720.015-668.855 720.015-673.931 720.015-679.006 724.129-683.121 729.205-683.121 734.281-683.121 738.396-679.007 738.396-673.931Z" stroke="#B2512B" stroke-width="1.59833" fill="#FF743E" transform="matrix(1 0 0 1.00026 310.843 -415.133)"/><path d="M59.1583-572.424C59.1583-567.349 55.0436-563.234 49.9679-563.234 44.8922-563.234 40.7775-567.349 40.7775-572.424 40.7775-577.5 44.8922-581.615 49.9679-581.615 55.0436-581.615 59.1583-577.5 59.1583-572.424Z" stroke="#B2512B" stroke-width="1.59833" fill="#FF743E" transform="matrix(1 0 0 1.00026 310.843 -415.133)"/><path d="M724.923-171.474C724.923-166.399 720.808-162.284 715.733-162.284 710.657-162.284 706.542-166.399 706.542-171.474 706.542-176.55 710.657-180.665 715.733-180.665 720.808-180.665 724.923-176.55 724.923-171.474Z" stroke="#935690" stroke-width="1.59833" fill="#D27CCE" transform="matrix(1 0 0 1.00026 310.843 -415.133)"/><path d="M554.88-527.66C554.88-522.585 550.765-518.47 545.689-518.47 540.613-518.47 536.499-522.585 536.499-527.66 536.499-532.736 540.613-536.851 545.689-536.851 550.765-536.851 554.88-532.736 554.88-527.66Z" stroke="#935690" stroke-width="1.59833" fill="#D27CCE" transform="matrix(1 0 0 1.00026 310.843 -415.133)"/><path d="M10.9193-493.565C10.9193-488.489 6.80456-484.374 1.72883-484.374-3.3469-484.374-7.4616-488.489-7.4616-493.565-7.4616-498.64-3.3469-502.755 1.72883-502.755 6.80456-502.755 10.9193-498.64 10.9193-493.565Z" stroke="#935690" stroke-width="1.59833" fill="#D27CCE" transform="matrix(1 0 0 1.00026 310.843 -415.133)"/><path d="M230.968-151.274C230.968-146.198 226.853-142.083 221.778-142.083 216.702-142.083 212.587-146.198 212.587-151.274 212.587-156.35 216.702-160.464 221.778-160.464 226.853-160.464 230.968-156.35 230.968-151.274Z" stroke="#935690" stroke-width="1.59833" fill="#D27CCE" transform="matrix(1 0 0 1.00026 310.843 -415.133)"/><path d="M-0.0303074-347.361C-0.0303074-342.285-4.145-338.17-9.22073-338.17-14.2965-338.17-18.4112-342.285-18.4112-347.361-18.4112-352.436-14.2965-356.551-9.22074-356.551-4.145-356.551-0.0303084-352.436-0.0303074-347.361Z" stroke="#935690" stroke-width="1.59833" fill="#D27CCE" transform="matrix(1 0 0 1.00026 310.843 -415.133)"/><path d="M-20.4041-569.985C-20.4041-564.909-24.5188-560.794-29.5946-560.794-34.6703-560.794-38.785-564.909-38.785-569.985-38.785-575.061-34.6703-579.175-29.5946-579.175-24.5188-579.175-20.4041-575.061-20.4041-569.985Z" stroke="#935690" stroke-width="1.59833" fill="#D27CCE" transform="matrix(1 0 0 1.00026 310.843 -415.133)"/><path d="M-94.0907-554.688C-94.0907-549.612-98.2054-545.497-103.281-545.497-108.357-545.497-112.472-549.612-112.472-554.688-112.472-559.764-108.357-563.878-103.281-563.878-98.2054-563.878-94.0907-559.764-94.0907-554.688Z" stroke="#B2512B" stroke-width="1.59833" fill="#FF743E" transform="matrix(1 0 0 1.00026 310.843 -415.133)"/><path d="M126.103-275.33C126.103-270.255 121.988-266.14 116.912-266.14 111.837-266.14 107.722-270.255 107.722-275.33 107.722-280.406 111.837-284.521 116.912-284.521 121.988-284.521 126.103-280.406 126.103-275.33Z" stroke="#935690" stroke-width="1.59833" fill="#D27CCE" transform="matrix(1 0 0 1.00026 310.843 -415.133)"/><path d="M462.775-42.9483C462.775-37.8725 458.66-33.7578 453.584-33.7578 448.509-33.7578 444.394-37.8725 444.394-42.9483 444.394-48.024 448.509-52.1387 453.584-52.1387 458.66-52.1387 462.775-48.024 462.775-42.9483Z" stroke="#935690" stroke-width="1.59833" fill="#D27CCE" transform="matrix(1 0 0 1.00026 310.843 -415.133)"/><path d="M-5.90094-647.708C-5.90094-642.632-10.0156-638.517-15.0914-638.517-20.1671-638.517-24.2818-642.632-24.2818-647.708-24.2818-652.783-20.1671-656.898-15.0914-656.898-10.0156-656.898-5.90094-652.783-5.90094-647.708Z" stroke="#487925" stroke-width="1.59833" fill="#68AD36" transform="matrix(1 0 0 1.00026 310.843 -415.133)"/><path d="M-70.7135-481.92C-70.7135-476.844-74.8282-472.729-79.9039-472.729-84.9797-472.729-89.0944-476.844-89.0944-481.92-89.0944-486.995-84.9797-491.11-79.9039-491.11-74.8282-491.11-70.7135-486.995-70.7135-481.92Z" stroke="#935690" stroke-width="1.59833" fill="#D27CCE" transform="matrix(1 0 0 1.00026 310.843 -415.133)"/><path d="M637.944-786.422C637.944-781.346 633.83-777.232 628.754-777.232 623.678-777.232 619.564-781.346 619.564-786.422 619.564-791.498 623.678-795.612 628.754-795.612 633.83-795.612 637.944-791.498 637.944-786.422Z" stroke="#487925" stroke-width="1.59833" fill="#68AD36" transform="matrix(1 0 0 1.00026 310.843 -415.133)"/><path d="M241.617-63.2915C241.617-58.2158 237.502-54.1011 232.427-54.1011 227.351-54.1011 223.236-58.2158 223.236-63.2915 223.236-68.3673 227.351-72.482 232.427-72.482 237.502-72.482 241.617-68.3673 241.617-63.2915Z" stroke="#487925" stroke-width="1.59833" fill="#68AD36" transform="matrix(1 0 0 1.00026 310.843 -415.133)"/><path d="M-89.9233-631.173C-89.9233-626.097-94.038-621.982-99.1137-621.982-104.189-621.982-108.304-626.097-108.304-631.173-108.304-636.249-104.189-640.363-99.1137-640.363-94.038-640.363-89.9233-636.249-89.9233-631.173Z" stroke="#935690" stroke-width="1.59833" fill="#D27CCE" transform="matrix(1 0 0 1.00026 310.843 -415.133)"/><path d="M689.904-733.808C689.904-728.733 685.79-724.618 680.714-724.618 675.638-724.618 671.523-728.733 671.523-733.808 671.523-738.884 675.638-742.999 680.714-742.999 685.79-742.999 689.904-738.884 689.904-733.808Z" stroke="#008098" stroke-width="1.59833" fill="#00B7DA" transform="matrix(1 0 0 1.00026 310.843 -415.133)"/><path d="M728.308-370.118C728.308-365.042 724.193-360.927 719.118-360.927 714.042-360.927 709.927-365.042 709.927-370.118 709.927-375.194 714.042-379.308 719.118-379.308 724.193-379.308 728.308-375.194 728.308-370.118Z" stroke="#B2512B" stroke-width="1.59833" fill="#FF743E" transform="matrix(1 0 0 1.00026 310.843 -415.133)"/><path d="M289.084-917.084C289.084-912.008 284.969-907.893 279.893-907.893 274.818-907.893 270.703-912.008 270.703-917.084 270.703-922.159 274.818-926.274 279.893-926.274 284.969-926.274 289.084-922.159 289.084-917.084Z" stroke="#487925" stroke-width="1.59833" fill="#68AD36" transform="matrix(1 0 0 1.00026 310.843 -415.133)"/><path d="M73.1236-208.785C73.1236-203.71 69.0089-199.595 63.9332-199.595 58.8574-199.595 54.7428-203.71 54.7428-208.785 54.7428-213.861 58.8574-217.976 63.9332-217.976 69.0089-217.976 73.1236-213.861 73.1236-208.785Z" stroke="#487925" stroke-width="1.59833" fill="#68AD36" transform="matrix(1 0 0 1.00026 310.843 -415.133)"/><path d="M168.181-200.503C168.181-195.427 164.067-191.312 158.991-191.312 153.915-191.312 149.801-195.427 149.801-200.503 149.801-205.578 153.915-209.693 158.991-209.693 164.067-209.693 168.181-205.578 168.181-200.503Z" stroke="#935690" stroke-width="1.59833" fill="#D27CCE" transform="matrix(1 0 0 1.00026 310.843 -415.133)"/><path d="M114.199-142.851C114.199-137.775 110.084-133.661 105.009-133.661 99.9329-133.661 95.8182-137.775 95.8182-142.851 95.8182-147.927 99.9329-152.041 105.009-152.041 110.084-152.041 114.199-147.927 114.199-142.851Z" stroke="#487925" stroke-width="1.59833" fill="#68AD36" transform="matrix(1 0 0 1.00026 310.843 -415.133)"/></g></svg>