<svg width="794" height="721" xmlns="http://www.w3.org/2000/svg" xmlns:xlink="http://www.w3.org/1999/xlink" xml:space="preserve" overflow="hidden"><defs><clipPath id="clip0"><rect x="243" y="0" width="794" height="721"/></clipPath></defs><g clip-path="url(#clip0)" transform="translate(-243 0)"><path d="M144.114 522.104C144.114 526.047 140.918 529.243 136.975 529.243 133.032 529.243 129.836 526.047 129.836 522.104 129.836 518.161 133.032 514.965 136.975 514.965 140.918 514.965 144.114 518.161 144.114 522.104Z" stroke="#935690" stroke-width="1.24154" fill="#D27CCE" transform="matrix(1.00011 0 0 1 408.405 720.091)"/><path d="M-26.5944 507.825C-26.5944 511.768-29.7906 514.964-33.7333 514.964-37.676 514.964-40.8721 511.768-40.8721 507.825-40.8721 503.883-37.676 500.686-33.7333 500.686-29.7906 500.686-26.5944 503.883-26.5944 507.825Z" stroke="#935690" stroke-width="1.24154" fill="#D27CCE" transform="matrix(1.00011 0 0 1 408.405 720.091)"/><path d="M8.97867 589.171C8.97867 593.113 5.78251 596.309 1.83984 596.309-2.10283 596.309-5.29899 593.113-5.29899 589.171-5.29899 585.228-2.10283 582.032 1.83984 582.032 5.78251 582.032 8.97867 585.228 8.97867 589.171Z" stroke="#935690" stroke-width="1.24154" fill="#D27CCE" transform="matrix(1.00011 0 0 1 408.405 720.091)"/><path d="M81.4884 390.422C81.4884 394.365 78.2923 397.561 74.3496 397.561 70.4069 397.561 67.2108 394.365 67.2108 390.422 67.2108 386.479 70.4069 383.283 74.3496 383.283 78.2923 383.283 81.4884 386.479 81.4884 390.422Z" stroke="#487925" stroke-width="1.24154" fill="#68AD36" transform="matrix(1.00011 0 0 1 408.405 720.091)"/><path d="M309.181 345.927C309.181 349.87 305.985 353.066 302.042 353.066 298.1 353.066 294.904 349.87 294.904 345.927 294.904 341.984 298.1 338.788 302.042 338.788 305.985 338.788 309.181 341.984 309.181 345.927Z" stroke="#487925" stroke-width="1.24154" fill="#68AD36" transform="matrix(1.00011 0 0 1 408.405 720.091)"/><path d="M311.575 494.933C311.575 498.876 308.378 502.072 304.436 502.072 300.493 502.072 297.297 498.876 297.297 494.933 297.297 490.99 300.493 487.794 304.436 487.794 308.378 487.794 311.575 490.99 311.575 494.933Z" stroke="#B2512B" stroke-width="1.24154" fill="#FF743E" transform="matrix(1.00011 0 0 1 408.405 720.091)"/><path d="M21.3873 445.821C21.3873 449.763 18.1911 452.959 14.2484 452.959 10.3058 452.959 7.1096 449.763 7.1096 445.821 7.1096 441.878 10.3058 438.682 14.2484 438.682 18.1911 438.682 21.3873 441.878 21.3873 445.821Z" stroke="#487925" stroke-width="1.24154" fill="#68AD36" transform="matrix(1.00011 0 0 1 408.405 720.091)"/><path d="M193.595 583.391C193.595 587.334 190.399 590.53 186.456 590.53 182.513 590.53 179.317 587.334 179.317 583.391 179.317 579.449 182.513 576.252 186.456 576.252 190.399 576.252 193.595 579.449 193.595 583.391Z" stroke="#B2512B" stroke-width="1.24154" fill="#FF743E" transform="matrix(1.00011 0 0 1 408.405 720.091)"/><path d="M229.532 503.223C229.532 507.166 226.336 510.362 222.393 510.362 218.45 510.362 215.254 507.166 215.254 503.223 215.254 499.28 218.45 496.084 222.393 496.084 226.336 496.084 229.532 499.28 229.532 503.223Z" stroke="#487925" stroke-width="1.24154" fill="#68AD36" transform="matrix(1.00011 0 0 1 408.405 720.091)"/><path d="M51.9668 520.42C51.9668 524.363 48.7707 527.559 44.828 527.559 40.8853 527.559 37.6892 524.363 37.6892 520.42 37.6892 516.478 40.8853 513.281 44.828 513.281 48.7707 513.281 51.9668 516.478 51.9668 520.42Z" stroke="#B2512B" stroke-width="1.24154" fill="#FF743E" transform="matrix(1.00011 0 0 1 408.405 720.091)"/><path d="M154.556 364.288C154.556 368.231 151.36 371.427 147.417 371.427 143.475 371.427 140.278 368.231 140.278 364.288 140.278 360.345 143.475 357.149 147.417 357.149 151.36 357.149 154.556 360.345 154.556 364.288Z" stroke="#487925" stroke-width="1.24154" fill="#68AD36" transform="matrix(1.00011 0 0 1 408.405 720.091)"/><path d="M106.823 457.327C106.823 461.27 103.627 464.466 99.6847 464.466 95.742 464.466 92.5458 461.27 92.5458 457.327 92.5458 453.384 95.742 450.188 99.6847 450.188 103.627 450.188 106.823 453.384 106.823 457.327Z" stroke="#935690" stroke-width="1.24154" fill="#D27CCE" transform="matrix(1.00011 0 0 1 408.405 720.091)"/><path d="M281.033 578.179C281.033 582.122 277.837 585.318 273.894 585.318 269.951 585.318 266.755 582.122 266.755 578.179 266.755 574.237 269.951 571.04 273.894 571.04 277.837 571.04 281.033 574.237 281.033 578.179Z" stroke="#487925" stroke-width="1.24154" fill="#68AD36" transform="matrix(1.00011 0 0 1 408.405 720.091)"/><path d="M471.905 498.291C471.905 502.234 468.709 505.43 464.766 505.43 460.823 505.43 457.627 502.234 457.627 498.291 457.627 494.348 460.823 491.152 464.766 491.152 468.709 491.152 471.905 494.348 471.905 498.291Z" stroke="#487925" stroke-width="1.24154" fill="#68AD36" transform="matrix(1.00011 0 0 1 408.405 720.091)"/><path d="M267.405 421.771C267.405 425.714 264.209 428.91 260.267 428.91 256.324 428.91 253.128 425.714 253.128 421.771 253.128 417.829 256.324 414.633 260.267 414.633 264.209 414.633 267.405 417.829 267.405 421.771Z" stroke="#487925" stroke-width="1.24154" fill="#68AD36" transform="matrix(1.00011 0 0 1 408.405 720.091)"/><path d="M-93.5904 639.838C-93.5904 643.781-96.7866 646.977-100.729 646.977-104.672 646.977-107.868 643.781-107.868 639.838-107.868 635.896-104.672 632.7-100.729 632.7-96.7866 632.7-93.5905 635.896-93.5904 639.838Z" stroke="#B2512B" stroke-width="1.24154" fill="#FF743E" transform="matrix(1.00011 0 0 1 408.405 720.091)"/><path d="M349.695 417.038C349.695 420.981 346.499 424.177 342.556 424.177 338.613 424.177 335.417 420.981 335.417 417.038 335.417 413.096 338.613 409.9 342.556 409.9 346.499 409.9 349.695 413.096 349.695 417.038Z" stroke="#487925" stroke-width="1.24154" fill="#68AD36" transform="matrix(1.00011 0 0 1 408.405 720.091)"/><path d="M230.424 351.638C230.424 355.581 227.228 358.777 223.285 358.777 219.343 358.777 216.146 355.581 216.146 351.638 216.146 347.696 219.343 344.5 223.285 344.5 227.228 344.5 230.424 347.696 230.424 351.638Z" stroke="#487925" stroke-width="1.24154" fill="#68AD36" transform="matrix(1.00011 0 0 1 408.405 720.091)"/><path d="M146.607 652.65C146.607 656.593 143.411 659.789 139.468 659.789 135.525 659.789 132.329 656.593 132.329 652.65 132.329 648.708 135.525 645.512 139.468 645.512 143.411 645.512 146.607 648.708 146.607 652.65Z" stroke="#487925" stroke-width="1.24154" fill="#68AD36" transform="matrix(1.00011 0 0 1 408.405 720.091)"/><path d="M237.462 654.25C237.462 658.193 234.266 661.389 230.323 661.389 226.381 661.389 223.184 658.193 223.184 654.25 223.184 650.307 226.381 647.111 230.323 647.111 234.266 647.111 237.462 650.307 237.462 654.25Z" stroke="#935690" stroke-width="1.24154" fill="#D27CCE" transform="matrix(1.00011 0 0 1 408.405 720.091)"/><path d="M185.806 434.439C185.806 438.382 182.61 441.578 178.667 441.578 174.724 441.578 171.528 438.382 171.528 434.439 171.528 430.496 174.724 427.3 178.667 427.3 182.61 427.3 185.806 430.496 185.806 434.439Z" stroke="#935690" stroke-width="1.24154" fill="#D27CCE" transform="matrix(1.00011 0 0 1 408.405 720.091)"/><path d="M430.556 418.09C430.556 422.032 427.36 425.229 423.417 425.229 419.474 425.229 416.278 422.033 416.278 418.09 416.278 414.147 419.474 410.951 423.417 410.951 427.36 410.951 430.556 414.147 430.556 418.09Z" stroke="#935690" stroke-width="1.24154" fill="#D27CCE" transform="matrix(1.00011 0 0 1 408.405 720.091)"/><path d="M63.9087 783.115C63.9087 787.058 60.7125 790.254 56.7698 790.254 52.8272 790.254 49.631 787.058 49.631 783.115 49.631 779.173 52.8272 775.977 56.7698 775.977 60.7125 775.977 63.9087 779.173 63.9087 783.115Z" stroke="#487925" stroke-width="1.24154" fill="#68AD36" transform="matrix(1.00011 0 0 1 408.405 720.091)"/><path d="M-24.6878 661.7C-24.6878 665.643-27.8839 668.839-31.8266 668.839-35.7693 668.839-38.9654 665.643-38.9654 661.7-38.9654 657.758-35.7693 654.562-31.8266 654.562-27.8839 654.562-24.6878 657.758-24.6878 661.7Z" stroke="#935690" stroke-width="1.24154" fill="#D27CCE" transform="matrix(1.00011 0 0 1 408.405 720.091)"/><path d="M-64.7253 572.304C-64.7253 576.247-67.9214 579.443-71.8641 579.443-75.8068 579.443-79.0029 576.247-79.0029 572.304-79.0029 568.362-75.8068 565.165-71.8641 565.165-67.9214 565.165-64.7253 568.362-64.7253 572.304Z" stroke="#935690" stroke-width="1.24154" fill="#D27CCE" transform="matrix(1.00011 0 0 1 408.405 720.091)"/><path d="M549.243 494.852C549.243 498.794 546.047 501.99 542.104 501.99 538.162 501.99 534.966 498.794 534.966 494.852 534.966 490.909 538.162 487.713 542.104 487.713 546.047 487.713 549.243 490.909 549.243 494.852Z" stroke="#935690" stroke-width="1.24154" fill="#D27CCE" transform="matrix(1.00011 0 0 1 408.405 720.091)"/><path d="M94.1936 589.847C94.1936 593.789 90.9974 596.985 87.0547 596.985 83.1121 596.985 79.9159 593.789 79.9159 589.847 79.9159 585.904 83.1121 582.708 87.0547 582.708 90.9974 582.708 94.1936 585.904 94.1936 589.847Z" stroke="#B2512B" stroke-width="1.24154" fill="#FF743E" transform="matrix(1.00011 0 0 1 408.405 720.091)"/><path d="M105.051 721.815C105.051 725.758 101.854 728.954 97.9117 728.954 93.969 728.954 90.7729 725.758 90.7729 721.815 90.7729 717.872 93.969 714.676 97.9117 714.676 101.854 714.676 105.051 717.872 105.051 721.815Z" stroke="#935690" stroke-width="1.24154" fill="#D27CCE" transform="matrix(1.00011 0 0 1 408.405 720.091)"/><path d="M618.238 483.019C618.238 486.962 615.042 490.158 611.099 490.158 607.157 490.158 603.96 486.962 603.96 483.019 603.96 479.076 607.157 475.88 611.099 475.88 615.042 475.88 618.238 479.076 618.238 483.019Z" stroke="#935690" stroke-width="1.24154" fill="#D27CCE" transform="matrix(1.00011 0 0 1 408.405 720.091)"/><path d="M531.089 570.102C531.089 574.045 527.892 577.241 523.95 577.241 520.007 577.241 516.811 574.045 516.811 570.102 516.811 566.159 520.007 562.963 523.95 562.963 527.892 562.963 531.089 566.159 531.089 570.102Z" stroke="#935690" stroke-width="1.24154" fill="#D27CCE" transform="matrix(1.00011 0 0 1 408.405 720.091)"/><path d="M53.8393 661.876C53.8393 665.819 50.6432 669.015 46.7005 669.015 42.7578 669.015 39.5617 665.819 39.5617 661.876 39.5617 657.933 42.7578 654.737 46.7005 654.737 50.6432 654.737 53.8393 657.933 53.8393 661.876Z" stroke="#487925" stroke-width="1.24154" fill="#68AD36" transform="matrix(1.00011 0 0 1 408.405 720.091)"/><path d="M279.03 724.79C279.03 728.733 275.834 731.929 271.891 731.929 267.948 731.929 264.752 728.733 264.752 724.79 264.752 720.847 267.948 717.651 271.891 717.651 275.834 717.651 279.03 720.847 279.03 724.79Z" stroke="#487925" stroke-width="1.24154" fill="#68AD36" transform="matrix(1.00011 0 0 1 408.405 720.091)"/><path d="M393.535 492.279C393.535 496.222 390.339 499.418 386.396 499.418 382.453 499.418 379.257 496.222 379.257 492.279 379.257 488.336 382.453 485.14 386.396 485.14 390.339 485.14 393.535 488.336 393.535 492.279Z" stroke="#487925" stroke-width="1.24154" fill="#68AD36" transform="matrix(1.00011 0 0 1 408.405 720.091)"/><path d="M447.752 572.148C447.752 576.09 444.556 579.287 440.613 579.287 436.671 579.287 433.474 576.091 433.474 572.148 433.474 568.205 436.671 565.009 440.613 565.009 444.556 565.009 447.752 568.205 447.752 572.148Z" stroke="#487925" stroke-width="1.24154" fill="#68AD36" transform="matrix(1.00011 0 0 1 408.405 720.091)"/><path d="M6.3183 731.381C6.3183 735.324 3.12213 738.52-0.820537 738.52-4.76321 738.52-7.95937 735.324-7.95937 731.381-7.95937 727.438-4.76321 724.242-0.820537 724.242 3.12213 724.242 6.3183 727.438 6.3183 731.381Z" stroke="#487925" stroke-width="1.24154" fill="#68AD36" transform="matrix(1.00011 0 0 1 408.405 720.091)"/><path d="M388.249 344.523C388.249 348.466 385.053 351.662 381.11 351.662 377.168 351.662 373.971 348.466 373.971 344.523 373.971 340.581 377.168 337.385 381.11 337.385 385.053 337.385 388.249 340.581 388.249 344.523Z" stroke="#935690" stroke-width="1.24154" fill="#D27CCE" transform="matrix(1.00011 0 0 1 408.405 720.091)"/><path d="M586.189 628.654C586.189 632.596 582.993 635.792 579.05 635.792 575.108 635.792 571.911 632.596 571.911 628.654 571.911 624.711 575.108 621.515 579.05 621.515 582.993 621.515 586.189 624.711 586.189 628.654Z" stroke="#935690" stroke-width="1.24154" fill="#D27CCE" transform="matrix(1.00011 0 0 1 408.405 720.091)"/><path d="M373.177 734.303C373.177 738.246 369.981 741.442 366.038 741.442 362.096 741.442 358.899 738.246 358.899 734.303 358.899 730.361 362.096 727.165 366.038 727.165 369.981 727.165 373.177 730.361 373.177 734.303Z" stroke="#935690" stroke-width="1.24154" fill="#D27CCE" transform="matrix(1.00011 0 0 1 408.405 720.091)"/><path d="M508.688 428.058C508.688 432.001 505.491 435.197 501.549 435.197 497.606 435.197 494.41 432.001 494.41 428.058 494.41 424.116 497.606 420.919 501.549 420.919 505.491 420.919 508.688 424.116 508.688 428.058Z" stroke="#935690" stroke-width="1.24154" fill="#D27CCE" transform="matrix(1.00011 0 0 1 408.405 720.091)"/><path d="M405.329 643.355C405.329 647.298 402.133 650.494 398.19 650.494 394.247 650.494 391.051 647.298 391.051 643.355 391.051 639.413 394.247 636.217 398.19 636.217 402.133 636.217 405.329 639.413 405.329 643.355Z" stroke="#487925" stroke-width="1.24154" fill="#68AD36" transform="matrix(1.00011 0 0 1 408.405 720.091)"/><path d="M502.296 754.311C502.296 758.254 499.1 761.45 495.157 761.45 491.215 761.45 488.019 758.254 488.019 754.311 488.019 750.369 491.215 747.173 495.157 747.173 499.1 747.173 502.296 750.369 502.296 754.311Z" stroke="#487925" stroke-width="1.24154" fill="#68AD36" transform="matrix(1.00011 0 0 1 408.405 720.091)"/><path d="M190.773 727.725C190.773 731.668 187.577 734.864 183.634 734.864 179.691 734.864 176.495 731.668 176.495 727.725 176.495 723.783 179.691 720.586 183.634 720.586 187.577 720.586 190.773 723.782 190.773 727.725Z" stroke="#935690" stroke-width="1.24154" fill="#D27CCE" transform="matrix(1.00011 0 0 1 408.405 720.091)"/><path d="M447.385 707.364C447.385 711.307 444.189 714.503 440.247 714.503 436.304 714.503 433.108 711.307 433.108 707.364 433.108 703.421 436.304 700.225 440.247 700.225 444.189 700.225 447.385 703.421 447.385 707.364Z" stroke="#935690" stroke-width="1.24154" fill="#D27CCE" transform="matrix(1.00011 0 0 1 408.405 720.091)"/><path d="M609.822 558.247C609.822 562.19 606.626 565.386 602.683 565.386 598.74 565.386 595.544 562.19 595.544 558.247 595.544 554.305 598.74 551.108 602.683 551.108 606.626 551.108 609.822 554.305 609.822 558.247Z" stroke="#935690" stroke-width="1.24154" fill="#D27CCE" transform="matrix(1.00011 0 0 1 408.405 720.091)"/><path d="M362.624 570.039C362.624 573.982 359.427 577.178 355.485 577.178 351.542 577.178 348.346 573.982 348.346 570.039 348.346 566.096 351.542 562.9 355.485 562.9 359.427 562.9 362.624 566.096 362.624 570.039Z" stroke="#935690" stroke-width="1.24154" fill="#D27CCE" transform="matrix(1.00011 0 0 1 408.405 720.091)"/><path d="M326.91 656.736C326.91 660.678 323.714 663.874 319.771 663.874 315.829 663.874 312.632 660.678 312.632 656.736 312.632 652.793 315.829 649.597 319.771 649.597 323.714 649.597 326.91 652.793 326.91 656.736Z" stroke="#935690" stroke-width="1.24154" fill="#D27CCE" transform="matrix(1.00011 0 0 1 408.405 720.091)"/><path d="M436.149 794.777C436.149 798.719 432.953 801.915 429.01 801.915 425.067 801.915 421.871 798.719 421.871 794.777 421.871 790.834 425.067 787.638 429.01 787.638 432.953 787.638 436.149 790.834 436.149 794.777Z" stroke="#935690" stroke-width="1.24154" fill="#D27CCE" transform="matrix(1.00011 0 0 1 408.405 720.091)"/><path d="M591.249 415.38C591.249 419.322 588.053 422.518 584.111 422.518 580.168 422.518 576.972 419.322 576.972 415.38 576.972 411.437 580.168 408.241 584.111 408.241 588.053 408.241 591.249 411.437 591.249 415.38Z" stroke="#935690" stroke-width="1.24154" fill="#D27CCE" transform="matrix(1.00011 0 0 1 408.405 720.091)"/><path d="M146.999 797.958C146.999 801.901 143.803 805.097 139.86 805.097 135.917 805.097 132.721 801.901 132.721 797.958 132.721 794.016 135.917 790.82 139.86 790.82 143.803 790.82 146.999 794.016 146.999 797.958Z" stroke="#935690" stroke-width="1.24154" fill="#D27CCE" transform="matrix(1.00011 0 0 1 408.405 720.091)"/><path d="M376.675 837.179C376.675 841.121 373.479 844.318 369.536 844.318 365.594 844.318 362.398 841.121 362.398 837.179 362.398 833.236 365.594 830.04 369.536 830.04 373.479 830.04 376.675 833.236 376.675 837.179Z" stroke="#935690" stroke-width="1.24154" fill="#D27CCE" transform="matrix(1.00011 0 0 1 408.405 720.091)"/><path d="M-54.8903 774.909C-54.8903 778.852-58.0864 782.048-62.0291 782.048-65.9717 782.048-69.1679 778.852-69.1679 774.909-69.1679 770.967-65.9717 767.771-62.0291 767.771-58.0864 767.771-54.8903 770.967-54.8903 774.909Z" stroke="#935690" stroke-width="1.24154" fill="#D27CCE" transform="matrix(1.00011 0 0 1 408.405 720.091)"/><path d="M-0.434552 823.286C-0.434552 827.228-3.63072 830.424-7.57338 830.424-11.5161 830.424-14.7122 827.228-14.7122 823.286-14.7122 819.343-11.5161 816.147-7.57338 816.147-3.63072 816.147-0.434552 819.343-0.434552 823.286Z" stroke="#935690" stroke-width="1.24154" fill="#D27CCE" transform="matrix(1.00011 0 0 1 408.405 720.091)"/><path d="M219.169 873.773C219.169 877.716 215.972 880.912 212.03 880.912 208.087 880.912 204.891 877.716 204.891 873.773 204.891 869.83 208.087 866.634 212.03 866.634 215.972 866.634 219.169 869.831 219.169 873.773Z" stroke="#935690" stroke-width="1.24154" fill="#D27CCE" transform="matrix(1.00011 0 0 1 408.405 720.091)"/><path d="M549.336 693.343C549.336 697.286 546.14 700.482 542.197 700.482 538.255 700.482 535.059 697.286 535.059 693.343 535.059 689.401 538.255 686.204 542.197 686.204 546.14 686.204 549.336 689.401 549.336 693.343Z" stroke="#935690" stroke-width="1.24154" fill="#D27CCE" transform="matrix(1.00011 0 0 1 408.405 720.091)"/><path d="M71.3942 857.188C71.3942 861.131 68.198 864.327 64.2554 864.327 60.3127 864.327 57.1165 861.131 57.1165 857.188 57.1165 853.246 60.3127 850.05 64.2554 850.05 68.198 850.05 71.3942 853.246 71.3942 857.188Z" stroke="#487925" stroke-width="1.24154" fill="#68AD36" transform="matrix(1.00011 0 0 1 408.405 720.091)"/><path d="M144.941 872.007C144.941 875.949 141.745 879.146 137.803 879.146 133.86 879.146 130.664 875.949 130.664 872.007 130.664 868.064 133.86 864.868 137.803 864.868 141.745 864.868 144.941 868.064 144.941 872.007Z" stroke="#935690" stroke-width="1.24154" fill="#D27CCE" transform="matrix(1.00011 0 0 1 408.405 720.091)"/><path d="M317.682 790.741C317.682 794.684 314.486 797.88 310.543 797.88 306.6 797.88 303.404 794.684 303.404 790.741 303.404 786.798 306.6 783.602 310.543 783.602 314.486 783.602 317.682 786.798 317.682 790.741Z" stroke="#935690" stroke-width="1.24154" fill="#D27CCE" transform="matrix(1.00011 0 0 1 408.405 720.091)"/><path d="M231.495 799.367C231.495 803.309 228.299 806.505 224.356 806.505 220.414 806.505 217.217 803.309 217.217 799.367 217.217 795.424 220.414 792.228 224.356 792.228 228.299 792.228 231.495 795.424 231.495 799.367Z" stroke="#935690" stroke-width="1.24154" fill="#D27CCE" transform="matrix(1.00011 0 0 1 408.405 720.091)"/><path d="M539.563 363.626C539.563 367.569 536.367 370.765 532.425 370.765 528.482 370.765 525.286 367.569 525.286 363.626 525.286 359.684 528.482 356.488 532.425 356.488 536.367 356.488 539.563 359.684 539.563 363.626Z" stroke="#935690" stroke-width="1.24154" fill="#D27CCE" transform="matrix(1.00011 0 0 1 408.405 720.091)"/><path d="M495.744 640.528C495.744 644.471 492.548 647.667 488.605 647.667 484.662 647.667 481.466 644.471 481.466 640.528 481.466 636.585 484.662 633.389 488.605 633.389 492.548 633.389 495.744 636.585 495.744 640.528Z" stroke="#935690" stroke-width="1.24154" fill="#D27CCE" transform="matrix(1.00011 0 0 1 408.405 720.091)"/><path d="M-87.4112 713.11C-87.4112 717.053-90.6074 720.249-94.55 720.249-98.4927 720.249-101.689 717.053-101.689 713.11-101.689 709.168-98.4927 705.971-94.55 705.971-90.6074 705.971-87.4112 709.168-87.4112 713.11Z" stroke="#935690" stroke-width="1.24154" fill="#D27CCE" transform="matrix(1.00011 0 0 1 408.405 720.091)"/><path d="M465.232 348.747C465.232 352.69 462.035 355.886 458.093 355.886 454.15 355.886 450.954 352.69 450.954 348.747 450.954 344.805 454.15 341.608 458.093 341.608 462.035 341.608 465.232 344.805 465.232 348.747Z" stroke="#935690" stroke-width="1.24154" fill="#D27CCE" transform="matrix(1.00011 0 0 1 408.405 720.091)"/><path d="M296.196 864.477C296.196 868.42 293 871.616 289.058 871.616 285.115 871.616 281.919 868.42 281.919 864.477 281.919 860.535 285.115 857.339 289.058 857.339 293 857.339 296.196 860.535 296.196 864.477Z" stroke="#935690" stroke-width="1.24154" fill="#D27CCE" transform="matrix(1.00011 0 0 1 408.405 720.091)"/><path d="M-509.854 291.864C-509.854 295.806-513.051 299.003-516.993 299.003-520.936 299.003-524.132 295.806-524.132 291.864-524.132 287.921-520.936 284.725-516.993 284.725-513.051 284.725-509.854 287.921-509.854 291.864Z" stroke="#935690" stroke-width="1.24154" fill="#D27CCE" transform="matrix(1.00011 0 0 1 408.405 720.091)"/><path d="M-624.559-38.8298C-624.559-34.8871-627.755-31.6909-631.698-31.6909-635.64-31.6909-638.836-34.8871-638.836-38.8298-638.836-42.7724-635.64-45.9686-631.698-45.9686-627.755-45.9686-624.559-42.7724-624.559-38.8298Z" stroke="#935690" stroke-width="1.24154" fill="#D27CCE" transform="matrix(1.00011 0 0 1 408.405 720.091)"/><path d="M-581.23 274.335C-581.23 278.278-584.426 281.474-588.369 281.474-592.311 281.474-595.507 278.278-595.507 274.335-595.507 270.393-592.311 267.197-588.369 267.197-584.426 267.197-581.23 270.393-581.23 274.335Z" stroke="#935690" stroke-width="1.24154" fill="#D27CCE" transform="matrix(1.00011 0 0 1 408.405 720.091)"/><path d="M-446.271 331.968C-446.271 335.911-449.467 339.107-453.41 339.107-457.352 339.107-460.548 335.911-460.548 331.968-460.548 328.025-457.352 324.829-453.41 324.829-449.467 324.829-446.271 328.025-446.271 331.968Z" stroke="#935690" stroke-width="1.24154" fill="#D27CCE" transform="matrix(1.00011 0 0 1 408.405 720.091)"/><path d="M-451.398 246.95C-451.398 250.893-454.594 254.089-458.537 254.089-462.479 254.089-465.675 250.893-465.675 246.95-465.675 243.008-462.479 239.812-458.537 239.812-454.594 239.812-451.398 243.008-451.398 246.95Z" stroke="#935690" stroke-width="1.24154" fill="#D27CCE" transform="matrix(1.00011 0 0 1 408.405 720.091)"/><path d="M-696.826 279.751C-696.826 283.694-700.022 286.89-703.965 286.89-707.907 286.89-711.103 283.694-711.103 279.751-711.103 275.809-707.907 272.612-703.965 272.612-700.022 272.612-696.826 275.809-696.826 279.751Z" stroke="#935690" stroke-width="1.24154" fill="#D27CCE" transform="matrix(1.00011 0 0 1 408.405 720.091)"/><path d="M-696.669-51.293C-696.669-47.3504-699.865-44.1542-703.808-44.1542-707.75-44.1542-710.947-47.3504-710.947-51.293-710.947-55.2357-707.75-58.4319-703.808-58.4319-699.865-58.4319-696.669-55.2357-696.669-51.293Z" stroke="#935690" stroke-width="1.24154" fill="#D27CCE" transform="matrix(1.00011 0 0 1 408.405 720.091)"/><path d="M-639.047 321.164C-639.047 325.106-642.243 328.303-646.185 328.303-650.128 328.303-653.324 325.106-653.324 321.164-653.324 317.221-650.128 314.025-646.185 314.025-642.243 314.025-639.047 317.221-639.047 321.164Z" stroke="#935690" stroke-width="1.24154" fill="#D27CCE" transform="matrix(1.00011 0 0 1 408.405 720.091)"/><path d="M-758.907 151.704C-758.907 155.646-762.103 158.843-766.046 158.843-769.988 158.843-773.184 155.646-773.184 151.704-773.184 147.761-769.988 144.565-766.046 144.565-762.103 144.565-758.907 147.761-758.907 151.704Z" stroke="#935690" stroke-width="1.24154" fill="#D27CCE" transform="matrix(1.00011 0 0 1 408.405 720.091)"/><path d="M-330.413 168.503C-330.413 172.445-333.609 175.642-337.551 175.642-341.494 175.642-344.69 172.445-344.69 168.503-344.69 164.56-341.494 161.364-337.551 161.364-333.609 161.364-330.413 164.56-330.413 168.503Z" stroke="#935690" stroke-width="1.24154" fill="#D27CCE" transform="matrix(1.00011 0 0 1 408.405 720.091)"/><path d="M-799.638 235.097C-799.638 239.04-802.834 242.236-806.776 242.236-810.719 242.236-813.915 239.04-813.915 235.097-813.915 231.155-810.719 227.959-806.776 227.959-802.834 227.959-799.638 231.155-799.638 235.097Z" stroke="#B2512B" stroke-width="1.24154" fill="#FF743E" transform="matrix(1.00011 0 0 1 408.405 720.091)"/><path d="M-575.076 348.976C-575.076 352.918-578.272 356.114-582.214 356.114-586.157 356.114-589.353 352.918-589.353 348.976-589.353 345.033-586.157 341.837-582.214 341.837-578.272 341.837-575.076 345.033-575.076 348.976Z" stroke="#935690" stroke-width="1.24154" fill="#D27CCE" transform="matrix(1.00011 0 0 1 408.405 720.091)"/><path d="M-703.102 98.2352C-703.102 102.178-706.299 105.374-710.241 105.374-714.184 105.374-717.38 102.178-717.38 98.2352-717.38 94.2925-714.184 91.0964-710.241 91.0964-706.299 91.0964-703.102 94.2925-703.102 98.2352Z" stroke="#935690" stroke-width="1.24154" fill="#D27CCE" transform="matrix(1.00011 0 0 1 408.405 720.091)"/><path d="M-848.077 40.1475C-848.077 44.0901-851.273 47.2863-855.216 47.2863-859.158 47.2863-862.354 44.0901-862.354 40.1475-862.354 36.2048-859.158 33.0086-855.216 33.0086-851.273 33.0086-848.077 36.2048-848.077 40.1475Z" stroke="#935690" stroke-width="1.24154" fill="#D27CCE" transform="matrix(1.00011 0 0 1 408.405 720.091)"/><path d="M-777.07 80.9124C-777.07 84.8551-780.266 88.0512-784.209 88.0512-788.152 88.0512-791.348 84.8551-791.348 80.9124-791.348 76.9697-788.152 73.7736-784.209 73.7736-780.266 73.7736-777.07 76.9697-777.07 80.9124Z" stroke="#935690" stroke-width="1.24154" fill="#D27CCE" transform="matrix(1.00011 0 0 1 408.405 720.091)"/><path d="M-840.906 109.11C-840.906 113.053-844.102 116.249-848.044 116.249-851.987 116.249-855.183 113.053-855.183 109.11-855.183 105.168-851.987 101.971-848.044 101.971-844.102 101.971-840.906 105.168-840.906 109.11Z" stroke="#935690" stroke-width="1.24154" fill="#D27CCE" transform="matrix(1.00011 0 0 1 408.405 720.091)"/><path d="M-731.977 218.072C-731.977 222.015-735.174 225.211-739.116 225.211-743.059 225.211-746.255 222.015-746.255 218.072-746.255 214.129-743.059 210.933-739.116 210.933-735.174 210.933-731.977 214.129-731.977 218.072Z" stroke="#935690" stroke-width="1.24154" fill="#D27CCE" transform="matrix(1.00011 0 0 1 408.405 720.091)"/><path d="M-575.289-248.093C-575.289-244.151-578.486-240.955-582.428-240.955-586.371-240.955-589.567-244.151-589.567-248.093-589.567-252.036-586.371-255.232-582.428-255.232-578.486-255.232-575.289-252.036-575.289-248.093Z" stroke="#935690" stroke-width="1.24154" fill="#D27CCE" transform="matrix(1.00011 0 0 1 408.405 720.091)"/><path d="M-841.778-34.4108C-841.778-30.4682-844.974-27.272-848.917-27.272-852.859-27.272-856.055-30.4682-856.055-34.4108-856.055-38.3535-852.859-41.5497-848.917-41.5497-844.974-41.5497-841.778-38.3535-841.778-34.4108Z" stroke="#B2512B" stroke-width="1.24154" fill="#FF743E" transform="matrix(1.00011 0 0 1 408.405 720.091)"/><path d="M-398.542-44.6367C-398.542-40.694-401.738-37.4978-405.681-37.4978-409.623-37.4978-412.819-40.694-412.819-44.6367-412.819-48.5793-409.623-51.7755-405.681-51.7755-401.738-51.7755-398.542-48.5793-398.542-44.6367Z" stroke="#935690" stroke-width="1.24154" fill="#D27CCE" transform="matrix(1.00011 0 0 1 408.405 720.091)"/><path d="M-585.734-106.449C-585.734-102.507-588.93-99.3105-592.873-99.3105-596.815-99.3105-600.011-102.507-600.011-106.449-600.011-110.392-596.815-113.588-592.873-113.588-588.93-113.588-585.734-110.392-585.734-106.449Z" stroke="#935690" stroke-width="1.24154" fill="#D27CCE" transform="matrix(1.00011 0 0 1 408.405 720.091)"/><path d="M-734.577-128.786C-734.577-124.843-737.773-121.647-741.715-121.647-745.658-121.647-748.854-124.843-748.854-128.786-748.854-132.728-745.658-135.924-741.715-135.924-737.773-135.924-734.577-132.728-734.577-128.786Z" stroke="#935690" stroke-width="1.24154" fill="#D27CCE" transform="matrix(1.00011 0 0 1 408.405 720.091)"/><path d="M-510.155-111.095C-510.155-107.153-513.351-103.957-517.294-103.957-521.237-103.957-524.433-107.153-524.433-111.095-524.433-115.038-521.237-118.234-517.294-118.234-513.351-118.234-510.155-115.038-510.155-111.095Z" stroke="#935690" stroke-width="1.24154" fill="#D27CCE" transform="matrix(1.00011 0 0 1 408.405 720.091)"/><path d="M-786.024 6.39446C-786.024 10.3371-789.22 13.5333-793.163 13.5333-797.105 13.5333-800.302 10.3371-800.302 6.39446-800.302 2.45179-797.105-0.744371-793.163-0.744371-789.22-0.744371-786.024 2.45179-786.024 6.39446Z" stroke="#935690" stroke-width="1.24154" fill="#D27CCE" transform="matrix(1.00011 0 0 1 408.405 720.091)"/><path d="M-820.636-104.585C-820.636-100.642-823.832-97.4462-827.774-97.4462-831.717-97.4462-834.913-100.642-834.913-104.585-834.913-108.528-831.717-111.724-827.774-111.724-823.832-111.724-820.636-108.528-820.636-104.585Z" stroke="#B2512B" stroke-width="1.24154" fill="#FF743E" transform="matrix(1.00011 0 0 1 408.405 720.091)"/><path d="M-433.065-112.435C-433.065-108.492-436.261-105.296-440.204-105.296-444.146-105.296-447.342-108.492-447.342-112.435-447.342-116.377-444.146-119.573-440.204-119.573-436.261-119.573-433.065-116.377-433.065-112.435Z" stroke="#935690" stroke-width="1.24154" fill="#D27CCE" transform="matrix(1.00011 0 0 1 408.405 720.091)"/><path d="M-550.594-37.2404C-550.594-33.2977-553.79-30.1015-557.732-30.1015-561.675-30.1015-564.871-33.2977-564.871-37.2404-564.871-41.183-561.675-44.3792-557.732-44.3792-553.79-44.3792-550.594-41.183-550.594-37.2404Z" stroke="#935690" stroke-width="1.24154" fill="#D27CCE" transform="matrix(1.00011 0 0 1 408.405 720.091)"/><path d="M-792.28-165.016C-792.28-161.074-795.477-157.878-799.419-157.878-803.362-157.878-806.558-161.074-806.558-165.016-806.558-168.959-803.362-172.155-799.419-172.155-795.477-172.155-792.28-168.959-792.28-165.016Z" stroke="#935690" stroke-width="1.24154" fill="#D27CCE" transform="matrix(1.00011 0 0 1 408.405 720.091)"/><path d="M-473.679-44.4361C-473.679-40.4934-476.875-37.2973-480.818-37.2973-484.761-37.2973-487.957-40.4934-487.957-44.4361-487.957-48.3788-484.761-51.5749-480.818-51.5749-476.875-51.5749-473.679-48.3788-473.679-44.4361Z" stroke="#935690" stroke-width="1.24154" fill="#D27CCE" transform="matrix(1.00011 0 0 1 408.405 720.091)"/><path d="M-387.035-167.849C-387.035-163.906-390.231-160.71-394.174-160.71-398.117-160.71-401.313-163.906-401.313-167.849-401.313-171.791-398.117-174.987-394.174-174.987-390.231-174.987-387.035-171.791-387.035-167.849Z" stroke="#935690" stroke-width="1.24154" fill="#D27CCE" transform="matrix(1.00011 0 0 1 408.405 720.091)"/><path d="M-404.874 186.333C-404.874 190.275-408.07 193.471-412.013 193.471-415.956 193.471-419.152 190.275-419.152 186.333-419.152 182.39-415.956 179.194-412.013 179.194-408.07 179.194-404.874 182.39-404.874 186.333Z" stroke="#935690" stroke-width="1.24154" fill="#D27CCE" transform="matrix(1.00011 0 0 1 408.405 720.091)"/><path d="M-577.466 46.9489C-577.466 50.8915-580.662 54.0877-584.605 54.0877-588.548 54.0877-591.744 50.8915-591.744 46.9489-591.744 43.0062-588.548 39.81-584.605 39.81-580.662 39.81-577.466 43.0062-577.466 46.9489Z" stroke="#935690" stroke-width="1.24154" fill="#D27CCE" transform="matrix(1.00011 0 0 1 408.405 720.091)"/><path d="M-677.743 169.523C-677.743 173.465-680.939 176.661-684.882 176.661-688.824 176.661-692.021 173.465-692.021 169.523-692.021 165.58-688.824 162.384-684.882 162.384-680.939 162.384-677.743 165.58-677.743 169.523Z" stroke="#935690" stroke-width="1.24154" fill="#D27CCE" transform="matrix(1.00011 0 0 1 408.405 720.091)"/><path d="M-260.891 174.685C-260.891 178.628-264.087 181.824-268.03 181.824-271.973 181.824-275.169 178.628-275.169 174.685-275.169 170.742-271.973 167.546-268.03 167.546-264.087 167.546-260.891 170.742-260.891 174.685Z" stroke="#935690" stroke-width="1.24154" fill="#D27CCE" transform="matrix(1.00011 0 0 1 408.405 720.091)"/><path d="M-649.388 34.4401C-649.388 38.3827-652.584 41.5789-656.527 41.5789-660.469 41.5789-663.666 38.3827-663.666 34.4401-663.666 30.4974-660.469 27.3012-656.527 27.3012-652.584 27.3012-649.388 30.4974-649.388 34.4401Z" stroke="#935690" stroke-width="1.24154" fill="#D27CCE" transform="matrix(1.00011 0 0 1 408.405 720.091)"/><path d="M-106.774-122.001C-106.774-118.059-109.97-114.863-113.912-114.863-117.855-114.863-121.051-118.059-121.051-122.001-121.051-125.944-117.855-129.14-113.912-129.14-109.97-129.14-106.774-125.944-106.774-122.001Z" stroke="#935690" stroke-width="1.24154" fill="#D27CCE" transform="matrix(1.00011 0 0 1 408.405 720.091)"/><path d="M-625.155 111.797C-625.155 115.74-628.351 118.936-632.294 118.936-636.236 118.936-639.432 115.74-639.432 111.797-639.432 107.855-636.236 104.659-632.294 104.659-628.351 104.659-625.155 107.855-625.155 111.797Z" stroke="#935690" stroke-width="1.24154" fill="#D27CCE" transform="matrix(1.00011 0 0 1 408.405 720.091)"/><path d="M-719.49 21.9837C-719.49 25.9264-722.686 29.1226-726.629 29.1226-730.572 29.1226-733.768 25.9264-733.768 21.9837-733.768 18.0411-730.572 14.8449-726.629 14.8449-722.686 14.8449-719.49 18.0411-719.49 21.9837Z" stroke="#935690" stroke-width="1.24154" fill="#D27CCE" transform="matrix(1.00011 0 0 1 408.405 720.091)"/><path d="M-128.21-161.438C-128.21-157.495-131.406-154.299-135.349-154.299-139.292-154.299-142.488-157.495-142.488-161.438-142.488-165.381-139.292-168.577-135.349-168.577-131.406-168.577-128.21-165.381-128.21-161.438Z" stroke="#935690" stroke-width="1.24154" fill="#D27CCE" transform="matrix(1.00011 0 0 1 408.405 720.091)"/><path d="M-584.296-315.264C-584.296-311.321-587.492-308.125-591.434-308.125-595.377-308.125-598.573-311.321-598.573-315.264-598.573-319.206-595.377-322.402-591.434-322.402-587.492-322.402-584.296-319.206-584.296-315.264Z" stroke="#B2512B" stroke-width="1.24154" fill="#FF743E" transform="matrix(1.00011 0 0 1 408.405 720.091)"/><path d="M-545.701-176.705C-545.701-172.762-548.897-169.566-552.84-169.566-556.782-169.566-559.979-172.762-559.979-176.705-559.979-180.648-556.782-183.844-552.84-183.844-548.897-183.844-545.701-180.648-545.701-176.705Z" stroke="#935690" stroke-width="1.24154" fill="#D27CCE" transform="matrix(1.00011 0 0 1 408.405 720.091)"/><path d="M-507.578-236.661C-507.578-232.718-510.774-229.522-514.717-229.522-518.659-229.522-521.856-232.718-521.856-236.661-521.856-240.604-518.659-243.8-514.717-243.8-510.774-243.8-507.578-240.604-507.578-236.661Z" stroke="#935690" stroke-width="1.24154" fill="#D27CCE" transform="matrix(1.00011 0 0 1 408.405 720.091)"/><path d="M-643.308-236.522C-643.308-232.58-646.504-229.383-650.447-229.383-654.389-229.383-657.586-232.58-657.586-236.522-657.586-240.465-654.39-243.661-650.447-243.661-646.504-243.661-643.308-240.465-643.308-236.522Z" stroke="#935690" stroke-width="1.24154" fill="#D27CCE" transform="matrix(1.00011 0 0 1 408.405 720.091)"/><path d="M-148.566-201.808C-148.566-197.865-151.762-194.669-155.705-194.669-159.648-194.669-162.844-197.865-162.844-201.808-162.844-205.751-159.648-208.947-155.705-208.947-151.762-208.947-148.566-205.751-148.566-201.808Z" stroke="#935690" stroke-width="1.24154" fill="#D27CCE" transform="matrix(1.00011 0 0 1 408.405 720.091)"/><path d="M-616.668-174.479C-616.668-170.536-619.865-167.34-623.807-167.34-627.75-167.34-630.946-170.536-630.946-174.479-630.946-178.422-627.75-181.618-623.807-181.618-619.865-181.618-616.668-178.422-616.668-174.479Z" stroke="#935690" stroke-width="1.24154" fill="#D27CCE" transform="matrix(1.00011 0 0 1 408.405 720.091)"/><path d="M-287.642 36.9674C-287.642 40.91-290.838 44.1062-294.781 44.1062-298.723 44.1062-301.92 40.91-301.92 36.9674-301.92 33.0247-298.723 29.8285-294.781 29.8285-290.838 29.8285-287.642 33.0247-287.642 36.9674Z" stroke="#935690" stroke-width="1.24154" fill="#D27CCE" transform="matrix(1.00011 0 0 1 408.405 720.091)"/><path d="M-473.295 98.5105C-473.295 102.453-476.491 105.649-480.434 105.649-484.377 105.649-487.573 102.453-487.573 98.5105-487.573 94.5679-484.377 91.3717-480.434 91.3717-476.491 91.3717-473.295 94.5679-473.295 98.5105Z" stroke="#935690" stroke-width="1.24154" fill="#D27CCE" transform="matrix(1.00011 0 0 1 408.405 720.091)"/><path d="M-468-176.474C-468-172.531-471.197-169.335-475.139-169.335-479.082-169.335-482.278-172.531-482.278-176.474-482.278-180.417-479.082-183.613-475.139-183.613-471.197-183.613-468-180.417-468-176.474Z" stroke="#935690" stroke-width="1.24154" fill="#D27CCE" transform="matrix(1.00011 0 0 1 408.405 720.091)"/><path d="M-460.48-282.09C-460.48-278.148-463.676-274.952-467.619-274.952-471.561-274.952-474.758-278.148-474.758-282.09-474.758-286.033-471.561-289.229-467.619-289.229-463.676-289.229-460.48-286.033-460.48-282.09Z" stroke="#935690" stroke-width="1.24154" fill="#D27CCE" transform="matrix(1.00011 0 0 1 408.405 720.091)"/><path d="M-707.772-264.754C-707.772-260.811-710.968-257.615-714.911-257.615-718.853-257.615-722.049-260.811-722.049-264.754-722.049-268.696-718.853-271.892-714.911-271.892-710.968-271.892-707.772-268.696-707.772-264.754Z" stroke="#935690" stroke-width="1.24154" fill="#D27CCE" transform="matrix(1.00011 0 0 1 408.405 720.091)"/><path d="M-545.197 123.409C-545.197 127.352-548.393 130.548-552.336 130.548-556.279 130.548-559.475 127.352-559.475 123.409-559.475 119.467-556.279 116.271-552.336 116.271-548.393 116.271-545.197 119.467-545.197 123.409Z" stroke="#935690" stroke-width="1.24154" fill="#D27CCE" transform="matrix(1.00011 0 0 1 408.405 720.091)"/><path d="M-661.918-115.475C-661.918-111.533-665.114-108.336-669.057-108.336-673-108.336-676.196-111.533-676.196-115.475-676.196-119.418-673-122.614-669.057-122.614-665.114-122.614-661.918-119.418-661.918-115.475Z" stroke="#935690" stroke-width="1.24154" fill="#D27CCE" transform="matrix(1.00011 0 0 1 408.405 720.091)"/><path d="M-694.106-186.059C-694.106-182.117-697.302-178.92-701.245-178.92-705.187-178.92-708.383-182.117-708.383-186.059-708.383-190.002-705.187-193.198-701.245-193.198-697.302-193.198-694.106-190.002-694.106-186.059Z" stroke="#935690" stroke-width="1.24154" fill="#D27CCE" transform="matrix(1.00011 0 0 1 408.405 720.091)"/><path d="M-507.632 31.2833C-507.632 35.226-510.828 38.4221-514.771 38.4221-518.713 38.4221-521.91 35.226-521.91 31.2833-521.91 27.3406-518.713 24.1445-514.771 24.1445-510.828 24.1445-507.632 27.3406-507.632 31.2833Z" stroke="#935690" stroke-width="1.24154" fill="#D27CCE" transform="matrix(1.00011 0 0 1 408.405 720.091)"/><path d="M-332.097 99.0574C-332.097 103-335.293 106.196-339.236 106.196-343.179 106.196-346.375 103-346.375 99.0574-346.375 95.1147-343.179 91.9186-339.236 91.9186-335.293 91.9186-332.097 95.1147-332.097 99.0574Z" stroke="#935690" stroke-width="1.24154" fill="#D27CCE" transform="matrix(1.00011 0 0 1 408.405 720.091)"/><path d="M-530.273 218.639C-530.273 222.581-533.469 225.778-537.412 225.778-541.354 225.778-544.551 222.581-544.551 218.639-544.551 214.696-541.354 211.5-537.412 211.5-533.469 211.5-530.273 214.696-530.273 218.639Z" stroke="#935690" stroke-width="1.24154" fill="#D27CCE" transform="matrix(1.00011 0 0 1 408.405 720.091)"/><path d="M-648.014-301.507C-648.014-297.564-651.21-294.368-655.153-294.368-659.095-294.368-662.291-297.564-662.291-301.507-662.291-305.449-659.095-308.646-655.153-308.646-651.21-308.646-648.014-305.449-648.014-301.507Z" stroke="#935690" stroke-width="1.24154" fill="#D27CCE" transform="matrix(1.00011 0 0 1 408.405 720.091)"/><path d="M-521.091-310.201C-521.091-306.258-524.287-303.062-528.229-303.062-532.172-303.062-535.368-306.258-535.368-310.201-535.368-314.144-532.172-317.34-528.229-317.34-524.287-317.34-521.091-314.144-521.091-310.201Z" stroke="#935690" stroke-width="1.24154" fill="#D27CCE" transform="matrix(1.00011 0 0 1 408.405 720.091)"/><path d="M-754.733-218.214C-754.733-214.271-757.93-211.075-761.872-211.075-765.815-211.075-769.011-214.271-769.011-218.214-769.011-222.156-765.815-225.353-761.872-225.353-757.93-225.353-754.733-222.156-754.733-218.214Z" stroke="#935690" stroke-width="1.24154" fill="#D27CCE" transform="matrix(1.00011 0 0 1 408.405 720.091)"/><path d="M-765.402-65.2265C-765.402-61.2839-768.598-58.0877-772.541-58.0877-776.483-58.0877-779.68-61.2839-779.68-65.2265-779.68-69.1692-776.483-72.3654-772.541-72.3654-768.598-72.3654-765.402-69.1692-765.402-65.2265Z" stroke="#935690" stroke-width="1.24154" fill="#D27CCE" transform="matrix(1.00011 0 0 1 408.405 720.091)"/><path d="M-401.465 111.614C-401.465 115.556-404.661 118.752-408.604 118.752-412.547 118.752-415.743 115.556-415.743 111.614-415.743 107.671-412.547 104.475-408.604 104.475-404.661 104.475-401.465 107.671-401.465 111.614Z" stroke="#935690" stroke-width="1.24154" fill="#D27CCE" transform="matrix(1.00011 0 0 1 408.405 720.091)"/><path d="M-394.29 288.545C-394.29 292.488-397.486 295.684-401.429 295.684-405.371 295.684-408.568 292.488-408.568 288.545-408.568 284.602-405.371 281.406-401.429 281.406-397.486 281.406-394.29 284.602-394.29 288.545Z" stroke="#935690" stroke-width="1.24154" fill="#D27CCE" transform="matrix(1.00011 0 0 1 408.405 720.091)"/><path d="M-765.042 294.292C-765.042 298.234-768.238 301.431-772.18 301.431-776.123 301.431-779.319 298.234-779.319 294.292-779.319 290.349-776.123 287.153-772.18 287.153-768.238 287.153-765.042 290.349-765.042 294.292Z" stroke="#935690" stroke-width="1.24154" fill="#D27CCE" transform="matrix(1.00011 0 0 1 408.405 720.091)"/><path d="M-362.327 31.9535C-362.327 35.8961-365.523 39.0923-369.466 39.0923-373.409 39.0923-376.605 35.8961-376.605 31.9535-376.605 28.0108-373.409 24.8146-369.466 24.8146-365.523 24.8146-362.327 28.0108-362.327 31.9535Z" stroke="#935690" stroke-width="1.24154" fill="#D27CCE" transform="matrix(1.00011 0 0 1 408.405 720.091)"/><path d="M-352.692 235.434C-352.692 239.377-355.888 242.573-359.83 242.573-363.773 242.573-366.969 239.377-366.969 235.434-366.969 231.491-363.773 228.295-359.83 228.295-355.888 228.295-352.692 231.491-352.692 235.434Z" stroke="#935690" stroke-width="1.24154" fill="#D27CCE" transform="matrix(1.00011 0 0 1 408.405 720.091)"/><path d="M-824.955 173.733C-824.955 177.676-828.151 180.872-832.094 180.872-836.037 180.872-839.233 177.676-839.233 173.733-839.233 169.79-836.037 166.594-832.094 166.594-828.151 166.594-824.955 169.79-824.955 173.733Z" stroke="#935690" stroke-width="1.24154" fill="#D27CCE" transform="matrix(1.00011 0 0 1 408.405 720.091)"/><path d="M-322.737-29.8236C-322.737-25.8809-325.933-22.6847-329.876-22.6847-333.818-22.6847-337.014-25.8809-337.014-29.8236-337.014-33.7662-333.818-36.9624-329.876-36.9624-325.933-36.9624-322.737-33.7662-322.737-29.8236Z" stroke="#935690" stroke-width="1.24154" fill="#D27CCE" transform="matrix(1.00011 0 0 1 408.405 720.091)"/><path d="M-281.243 238.62C-281.243 242.563-284.439 245.759-288.382 245.759-292.324 245.759-295.521 242.563-295.521 238.62-295.521 234.677-292.324 231.481-288.382 231.481-284.439 231.481-281.243 234.677-281.243 238.62Z" stroke="#935690" stroke-width="1.24154" fill="#D27CCE" transform="matrix(1.00011 0 0 1 408.405 720.091)"/><path d="M-538.091 425.868C-538.091 429.811-541.287 433.007-545.23 433.007-549.172 433.007-552.369 429.811-552.369 425.868-552.369 421.926-549.172 418.729-545.23 418.729-541.287 418.729-538.091 421.926-538.091 425.868Z" stroke="#935690" stroke-width="1.24154" fill="#D27CCE" transform="matrix(1.00011 0 0 1 408.405 720.091)"/><path d="M-316.089 298.65C-316.089 302.593-319.285 305.789-323.228 305.789-327.17 305.789-330.366 302.593-330.366 298.65-330.366 294.707-327.17 291.511-323.228 291.511-319.285 291.511-316.089 294.707-316.089 298.65Z" stroke="#935690" stroke-width="1.24154" fill="#D27CCE" transform="matrix(1.00011 0 0 1 408.405 720.091)"/><path d="M-660.586 386.184C-660.586 390.126-663.782 393.323-667.725 393.323-671.667 393.323-674.864 390.126-674.864 386.184-674.864 382.241-671.667 379.045-667.725 379.045-663.782 379.045-660.586 382.241-660.586 386.184Z" stroke="#487925" stroke-width="1.24154" fill="#68AD36" transform="matrix(1.00011 0 0 1 408.405 720.091)"/><path d="M-360.757 349.758C-360.757 353.701-363.953 356.897-367.896 356.897-371.838 356.897-375.034 353.701-375.034 349.758-375.034 345.815-371.838 342.619-367.896 342.619-363.953 342.619-360.757 345.815-360.757 349.758Z" stroke="#487925" stroke-width="1.24154" fill="#68AD36" transform="matrix(1.00011 0 0 1 408.405 720.091)"/><path d="M-262.885 106.659C-262.885 110.602-266.081 113.798-270.023 113.798-273.966 113.798-277.162 110.602-277.162 106.659-277.162 102.717-273.966 99.5204-270.023 99.5204-266.081 99.5204-262.885 102.717-262.885 106.659Z" stroke="#487925" stroke-width="1.24154" fill="#68AD36" transform="matrix(1.00011 0 0 1 408.405 720.091)"/><path d="M-508.715 362.715C-508.715 366.658-511.911 369.854-515.854 369.854-519.797 369.854-522.993 366.658-522.993 362.715-522.993 358.772-519.797 355.576-515.854 355.576-511.911 355.576-508.715 358.772-508.715 362.715Z" stroke="#487925" stroke-width="1.24154" fill="#68AD36" transform="matrix(1.00011 0 0 1 408.405 720.091)"/><path d="M-601.597 412.327C-601.597 416.269-604.793 419.466-608.736 419.466-612.679 419.466-615.875 416.269-615.875 412.327-615.875 408.384-612.679 405.188-608.736 405.188-604.793 405.188-601.597 408.384-601.597 412.327Z" stroke="#B2512B" stroke-width="1.24154" fill="#FF743E" transform="matrix(1.00011 0 0 1 408.405 720.091)"/><path d="M-476.965 171.911C-476.965 175.853-480.161 179.05-484.103 179.05-488.046 179.05-491.242 175.853-491.242 171.911-491.242 167.968-488.046 164.772-484.103 164.772-480.161 164.772-476.965 167.968-476.965 171.911Z" stroke="#487925" stroke-width="1.24154" fill="#68AD36" transform="matrix(1.00011 0 0 1 408.405 720.091)"/><path d="M-355.298-101.942C-355.298-97.9991-358.494-94.803-362.437-94.803-366.38-94.803-369.576-97.9991-369.576-101.942-369.576-105.884-366.38-109.081-362.437-109.081-358.494-109.081-355.298-105.884-355.298-101.942Z" stroke="#487925" stroke-width="1.24154" fill="#68AD36" transform="matrix(1.00011 0 0 1 408.405 720.091)"/><path d="M-715.97 347.383C-715.97 351.326-719.167 354.522-723.109 354.522-727.052 354.522-730.248 351.326-730.248 347.383-730.248 343.441-727.052 340.244-723.109 340.244-719.167 340.244-715.97 343.441-715.97 347.383Z" stroke="#935690" stroke-width="1.24154" fill="#D27CCE" transform="matrix(1.00011 0 0 1 408.405 720.091)"/><path d="M-593.593 182.83C-593.593 186.772-596.789 189.969-600.732 189.969-604.674 189.969-607.871 186.772-607.871 182.83-607.871 178.887-604.675 175.691-600.732 175.691-596.789 175.691-593.593 178.887-593.593 182.83Z" stroke="#935690" stroke-width="1.24154" fill="#D27CCE" transform="matrix(1.00011 0 0 1 408.405 720.091)"/><path d="M-420.586-227.905C-420.586-223.963-423.782-220.766-427.725-220.766-431.668-220.766-434.864-223.963-434.864-227.905-434.864-231.848-431.668-235.044-427.725-235.044-423.782-235.044-420.586-231.848-420.586-227.905Z" stroke="#935690" stroke-width="1.24154" fill="#D27CCE" transform="matrix(1.00011 0 0 1 408.405 720.091)"/><path d="M-411.617 390.74C-411.617 394.682-414.813 397.879-418.756 397.879-422.699 397.879-425.895 394.682-425.895 390.74-425.895 386.797-422.699 383.601-418.756 383.601-414.813 383.601-411.617 386.797-411.617 390.74Z" stroke="#935690" stroke-width="1.24154" fill="#D27CCE" transform="matrix(1.00011 0 0 1 408.405 720.091)"/><path d="M-643.228 236.047C-643.228 239.989-646.424 243.185-650.367 243.185-654.309 243.185-657.505 239.989-657.505 236.047-657.505 232.104-654.309 228.908-650.367 228.908-646.424 228.908-643.228 232.104-643.228 236.047Z" stroke="#487925" stroke-width="1.24154" fill="#68AD36" transform="matrix(1.00011 0 0 1 408.405 720.091)"/><path d="M-431.354 30.0218C-431.354 33.9645-434.551 37.1606-438.493 37.1606-442.436 37.1606-445.632 33.9645-445.632 30.0218-445.632 26.0791-442.436 22.883-438.493 22.883-434.551 22.883-431.354 26.0791-431.354 30.0218Z" stroke="#935690" stroke-width="1.24154" fill="#D27CCE" transform="matrix(1.00011 0 0 1 408.405 720.091)"/><path d="M-470.116 418.765C-470.116 422.707-473.313 425.903-477.255 425.903-481.198 425.903-484.394 422.707-484.394 418.765-484.394 414.822-481.198 411.626-477.255 411.626-473.313 411.626-470.116 414.822-470.116 418.765Z" stroke="#935690" stroke-width="1.24154" fill="#D27CCE" transform="matrix(1.00011 0 0 1 408.405 720.091)"/><path d="M-573.633-569.612C-573.633-565.669-576.829-562.473-580.772-562.473-584.715-562.473-587.911-565.669-587.911-569.612-587.911-573.554-584.715-576.75-580.772-576.75-576.829-576.75-573.633-573.554-573.633-569.612Z" stroke="#935690" stroke-width="1.24154" fill="#D27CCE" transform="matrix(1.00011 0 0 1 408.405 720.091)"/><path d="M501.722-248.404C501.722-244.461 498.526-241.265 494.583-241.265 490.64-241.265 487.444-244.461 487.444-248.404 487.444-252.346 490.64-255.543 494.583-255.543 498.526-255.543 501.722-252.346 501.722-248.404Z" stroke="#B2512B" stroke-width="1.24154" fill="#FF743E" transform="matrix(1.00011 0 0 1 408.405 720.091)"/><path d="M597.249-179.605C597.249-175.662 594.052-172.466 590.11-172.466 586.167-172.466 582.971-175.662 582.971-179.605 582.971-183.548 586.167-186.744 590.11-186.744 594.052-186.744 597.249-183.548 597.249-179.605Z" stroke="#487925" stroke-width="1.24154" fill="#68AD36" transform="matrix(1.00011 0 0 1 408.405 720.091)"/><path d="M344.951-150.578C344.951-146.636 341.755-143.44 337.812-143.44 333.869-143.44 330.673-146.636 330.673-150.578 330.673-154.521 333.869-157.717 337.812-157.717 341.755-157.717 344.951-154.521 344.951-150.578Z" stroke="#487925" stroke-width="1.24154" fill="#68AD36" transform="matrix(1.00011 0 0 1 408.405 720.091)"/><path d="M251.999-314.365C251.999-310.423 248.803-307.226 244.861-307.226 240.918-307.226 237.722-310.423 237.722-314.365 237.722-318.308 240.918-321.504 244.861-321.504 248.803-321.504 251.999-318.308 251.999-314.365Z" stroke="#935690" stroke-width="1.24154" fill="#D27CCE" transform="matrix(1.00011 0 0 1 408.405 720.091)"/><path d="M300.922-32.2023C300.922-28.2596 297.726-25.0634 293.783-25.0634 289.841-25.0634 286.644-28.2596 286.644-32.2023 286.644-36.1449 289.841-39.3411 293.783-39.3411 297.726-39.3411 300.922-36.1449 300.922-32.2023Z" stroke="#935690" stroke-width="1.24154" fill="#D27CCE" transform="matrix(1.00011 0 0 1 408.405 720.091)"/><path d="M235.829-388.829C235.829-384.886 232.633-381.69 228.691-381.69 224.748-381.69 221.552-384.886 221.552-388.829 221.552-392.772 224.748-395.968 228.691-395.968 232.633-395.968 235.829-392.772 235.829-388.829Z" stroke="#935690" stroke-width="1.24154" fill="#D27CCE" transform="matrix(1.00011 0 0 1 408.405 720.091)"/><path d="M404.218-171.71C404.218-167.767 401.022-164.571 397.079-164.571 393.136-164.571 389.94-167.767 389.94-171.71 389.94-175.653 393.136-178.849 397.079-178.849 401.021-178.849 404.218-175.653 404.218-171.71Z" stroke="#935690" stroke-width="1.24154" fill="#D27CCE" transform="matrix(1.00011 0 0 1 408.405 720.091)"/><path d="M243.758-36.5202C243.758-32.5775 240.562-29.3813 236.619-29.3813 232.676-29.3813 229.48-32.5775 229.48-36.5202 229.48-40.4628 232.676-43.659 236.619-43.659 240.562-43.659 243.758-40.4628 243.758-36.5202Z" stroke="#487925" stroke-width="1.24154" fill="#68AD36" transform="matrix(1.00011 0 0 1 408.405 720.091)"/><path d="M309.808-422.023C309.808-418.081 306.611-414.884 302.669-414.884 298.726-414.884 295.53-418.081 295.53-422.023 295.53-425.966 298.726-429.162 302.669-429.162 306.611-429.162 309.808-425.966 309.808-422.023Z" stroke="#487925" stroke-width="1.24154" fill="#68AD36" transform="matrix(1.00011 0 0 1 408.405 720.091)"/><path d="M456.554-203.858C456.554-199.916 453.358-196.719 449.415-196.719 445.473-196.719 442.277-199.916 442.277-203.858 442.277-207.801 445.473-210.997 449.415-210.997 453.358-210.997 456.554-207.801 456.554-203.858Z" stroke="#487925" stroke-width="1.24154" fill="#68AD36" transform="matrix(1.00011 0 0 1 408.405 720.091)"/><path d="M301.224-93.2626C301.224-89.3199 298.028-86.1237 294.085-86.1237 290.143-86.1237 286.947-89.3199 286.947-93.2626 286.947-97.2052 290.143-100.401 294.085-100.401 298.028-100.401 301.224-97.2053 301.224-93.2626Z" stroke="#B2512B" stroke-width="1.24154" fill="#FF743E" transform="matrix(1.00011 0 0 1 408.405 720.091)"/><path d="M436.153-341.894C436.153-337.952 432.957-334.755 429.014-334.755 425.071-334.755 421.875-337.952 421.875-341.894 421.875-345.837 425.071-349.033 429.014-349.033 432.957-349.033 436.153-345.837 436.153-341.894Z" stroke="#935690" stroke-width="1.24154" fill="#D27CCE" transform="matrix(1.00011 0 0 1 408.405 720.091)"/><path d="M203.438-518.002C203.438-514.06 200.241-510.864 196.299-510.864 192.356-510.864 189.16-514.06 189.16-518.002 189.16-521.945 192.356-525.141 196.299-525.141 200.241-525.141 203.438-521.945 203.438-518.002Z" stroke="#935690" stroke-width="1.24154" fill="#D27CCE" transform="matrix(1.00011 0 0 1 408.405 720.091)"/><path d="M473.524-66.162C473.524-62.2194 470.328-59.0232 466.385-59.0232 462.442-59.0232 459.246-62.2194 459.246-66.162 459.246-70.1047 462.442-73.3009 466.385-73.3009 470.327-73.3009 473.524-70.1047 473.524-66.162Z" stroke="#B2512B" stroke-width="1.24154" fill="#FF743E" transform="matrix(1.00011 0 0 1 408.405 720.091)"/><path d="M503.474-312.711C503.474-308.768 500.278-305.572 496.335-305.572 492.393-305.572 489.197-308.768 489.197-312.711 489.197-316.654 492.393-319.85 496.335-319.85 500.278-319.85 503.474-316.654 503.474-312.711Z" stroke="#935690" stroke-width="1.24154" fill="#D27CCE" transform="matrix(1.00011 0 0 1 408.405 720.091)"/><path d="M305.518-353.864C305.518-349.922 302.322-346.726 298.38-346.726 294.437-346.726 291.241-349.922 291.241-353.864 291.241-357.807 294.437-361.003 298.38-361.003 302.322-361.003 305.518-357.807 305.518-353.864Z" stroke="#487925" stroke-width="1.24154" fill="#68AD36" transform="matrix(1.00011 0 0 1 408.405 720.091)"/><path d="M476.615-138.483C476.615-134.54 473.419-131.344 469.476-131.344 465.534-131.344 462.337-134.54 462.337-138.483 462.337-142.425 465.534-145.621 469.476-145.621 473.419-145.621 476.615-142.425 476.615-138.483Z" stroke="#935690" stroke-width="1.24154" fill="#D27CCE" transform="matrix(1.00011 0 0 1 408.405 720.091)"/><path d="M279.449-157.696C279.449-153.754 276.253-150.557 272.31-150.557 268.367-150.557 265.171-153.754 265.171-157.696 265.171-161.639 268.367-164.835 272.31-164.835 276.253-164.835 279.449-161.639 279.449-157.696Z" stroke="#008098" stroke-width="1.24154" fill="#00B7DA" transform="matrix(1.00011 0 0 1 408.405 720.091)"/><path d="M261.906-227.316C261.906-223.373 258.71-220.177 254.767-220.177 250.825-220.177 247.628-223.373 247.628-227.316 247.628-231.259 250.825-234.455 254.767-234.455 258.71-234.455 261.906-231.259 261.906-227.316Z" stroke="#935690" stroke-width="1.24154" fill="#D27CCE" transform="matrix(1.00011 0 0 1 408.405 720.091)"/><path d="M96.0902-558.199C96.0902-554.257 92.894-551.06 88.9514-551.06 85.0087-551.06 81.8125-554.256 81.8125-558.199 81.8125-562.142 85.0087-565.338 88.9514-565.338 92.894-565.338 96.0902-562.142 96.0902-558.199Z" stroke="#487925" stroke-width="1.24154" fill="#68AD36" transform="matrix(1.00011 0 0 1 408.405 720.091)"/><path d="M365.913-92.5116C365.913-88.5689 362.716-85.3728 358.774-85.3728 354.831-85.3728 351.635-88.5689 351.635-92.5116 351.635-96.4543 354.831-99.6504 358.774-99.6504 362.716-99.6504 365.913-96.4543 365.913-92.5116Z" stroke="#487925" stroke-width="1.24154" fill="#68AD36" transform="matrix(1.00011 0 0 1 408.405 720.091)"/><path d="M498.225-375.431C498.225-371.489 495.029-368.292 491.086-368.292 487.143-368.292 483.947-371.489 483.947-375.431 483.947-379.374 487.143-382.57 491.086-382.57 495.029-382.57 498.225-379.374 498.225-375.431Z" stroke="#935690" stroke-width="1.24154" fill="#D27CCE" transform="matrix(1.00011 0 0 1 408.405 720.091)"/><path d="M21.0928-556.885C21.0928-552.942 17.8967-549.746 13.954-549.746 10.0113-549.746 6.81515-552.942 6.81515-556.885 6.81515-560.828 10.0113-564.024 13.954-564.024 17.8967-564.024 21.0928-560.828 21.0928-556.885Z" stroke="#935690" stroke-width="1.24154" fill="#D27CCE" transform="matrix(1.00011 0 0 1 408.405 720.091)"/><path d="M388.301-238.318C388.301-234.376 385.105-231.179 381.162-231.179 377.219-231.179 374.023-234.376 374.023-238.318 374.023-242.261 377.219-245.457 381.162-245.457 385.105-245.457 388.301-242.261 388.301-238.318Z" stroke="#935690" stroke-width="1.24154" fill="#D27CCE" transform="matrix(1.00011 0 0 1 408.405 720.091)"/><path d="M238.921-100.291C238.921-96.3484 235.725-93.1522 231.783-93.1522 227.84-93.1522 224.644-96.3484 224.644-100.291 224.644-104.234 227.84-107.43 231.783-107.43 235.725-107.43 238.921-104.234 238.921-100.291Z" stroke="#935690" stroke-width="1.24154" fill="#D27CCE" transform="matrix(1.00011 0 0 1 408.405 720.091)"/><path d="M565.351-347.953C565.351-344.01 562.155-340.814 558.212-340.814 554.27-340.814 551.074-344.01 551.074-347.953 551.074-351.895 554.27-355.091 558.212-355.091 562.155-355.091 565.351-351.895 565.351-347.953Z" stroke="#935690" stroke-width="1.24154" fill="#D27CCE" transform="matrix(1.00011 0 0 1 408.405 720.091)"/><path d="M328.946-213.484C328.946-209.542 325.749-206.346 321.807-206.346 317.864-206.346 314.668-209.542 314.668-213.484 314.668-217.427 317.864-220.623 321.807-220.623 325.749-220.623 328.946-217.427 328.946-213.484Z" stroke="#B2512B" stroke-width="1.24154" fill="#FF743E" transform="matrix(1.00011 0 0 1 408.405 720.091)"/><path d="M424.417-110.79C424.417-106.848 421.221-103.652 417.278-103.652 413.335-103.652 410.139-106.848 410.139-110.79 410.139-114.733 413.335-117.929 417.278-117.929 421.221-117.929 424.417-114.733 424.417-110.79Z" stroke="#935690" stroke-width="1.24154" fill="#D27CCE" transform="matrix(1.00011 0 0 1 408.405 720.091)"/><path d="M207.994-262.185C207.994-258.242 204.798-255.046 200.855-255.046 196.912-255.046 193.716-258.242 193.716-262.185 193.716-266.127 196.912-269.323 200.855-269.323 204.798-269.323 207.994-266.127 207.994-262.185Z" stroke="#935690" stroke-width="1.24154" fill="#D27CCE" transform="matrix(1.00011 0 0 1 408.405 720.091)"/><path d="M138.471-506.606C138.471-502.663 135.275-499.467 131.333-499.467 127.39-499.467 124.194-502.663 124.194-506.606 124.194-510.548 127.39-513.745 131.333-513.745 135.275-513.745 138.471-510.549 138.471-506.606Z" stroke="#B2512B" stroke-width="1.24154" fill="#FF743E" transform="matrix(1.00011 0 0 1 408.405 720.091)"/><path d="M440.988-275.615C440.988-271.672 437.792-268.476 433.849-268.476 429.907-268.476 426.71-271.672 426.71-275.615 426.71-279.558 429.907-282.754 433.849-282.754 437.792-282.754 440.988-279.558 440.988-275.615Z" stroke="#B2512B" stroke-width="1.24154" fill="#FF743E" transform="matrix(1.00011 0 0 1 408.405 720.091)"/><path d="M522.326-94.9661C522.326-91.0234 519.13-87.8272 515.187-87.8272 511.244-87.8272 508.048-91.0234 508.048-94.9661 508.048-98.9087 511.244-102.105 515.187-102.105 519.13-102.105 522.326-98.9088 522.326-94.9661Z" stroke="#B2512B" stroke-width="1.24154" fill="#FF743E" transform="matrix(1.00011 0 0 1 408.405 720.091)"/><path d="M269.371-528.314C269.371-524.372 266.175-521.176 262.232-521.176 258.29-521.176 255.094-524.372 255.094-528.314 255.094-532.257 258.29-535.453 262.232-535.453 266.175-535.453 269.371-532.257 269.371-528.314Z" stroke="#935690" stroke-width="1.24154" fill="#D27CCE" transform="matrix(1.00011 0 0 1 408.405 720.091)"/><path d="M312.928-279.501C312.928-275.559 309.732-272.362 305.789-272.362 301.846-272.362 298.65-275.559 298.65-279.501 298.65-283.444 301.846-286.64 305.789-286.64 309.732-286.64 312.928-283.444 312.928-279.501Z" stroke="#B2512B" stroke-width="1.24154" fill="#FF743E" transform="matrix(1.00011 0 0 1 408.405 720.091)"/><path d="M418.749-45.7408C418.749-41.7981 415.553-38.602 411.61-38.602 407.668-38.602 404.471-41.7981 404.471-45.7408 404.471-49.6835 407.667-52.8796 411.61-52.8796 415.553-52.8796 418.749-49.6835 418.749-45.7408Z" stroke="#935690" stroke-width="1.24154" fill="#D27CCE" transform="matrix(1.00011 0 0 1 408.405 720.091)"/><path d="M341.025-562.301C341.025-558.359 337.829-555.163 333.886-555.163 329.944-555.163 326.747-558.359 326.747-562.301 326.747-566.244 329.944-569.44 333.886-569.44 337.829-569.44 341.025-566.244 341.025-562.301Z" stroke="#935690" stroke-width="1.24154" fill="#D27CCE" transform="matrix(1.00011 0 0 1 408.405 720.091)"/><path d="M114.282-447.016C114.282-443.073 111.086-439.877 107.144-439.877 103.201-439.877 100.005-443.073 100.005-447.016 100.005-450.959 103.201-454.155 107.144-454.155 111.086-454.155 114.282-450.959 114.282-447.016Z" stroke="#935690" stroke-width="1.24154" fill="#D27CCE" transform="matrix(1.00011 0 0 1 408.405 720.091)"/><path d="M488.416-440.521C488.416-436.579 485.22-433.382 481.277-433.382 477.334-433.382 474.138-436.579 474.138-440.521 474.138-444.464 477.334-447.66 481.277-447.66 485.219-447.66 488.416-444.464 488.416-440.521Z" stroke="#935690" stroke-width="1.24154" fill="#D27CCE" transform="matrix(1.00011 0 0 1 408.405 720.091)"/><path d="M408.515-596.913C408.515-592.971 405.319-589.775 401.376-589.775 397.434-589.775 394.237-592.971 394.237-596.913 394.237-600.856 397.434-604.052 401.376-604.052 405.319-604.052 408.515-600.856 408.515-596.913Z" stroke="#935690" stroke-width="1.24154" fill="#D27CCE" transform="matrix(1.00011 0 0 1 408.405 720.091)"/><path d="M155.424-390.57C155.424-386.628 152.228-383.432 148.285-383.432 144.343-383.432 141.146-386.628 141.146-390.57 141.146-394.513 144.343-397.709 148.285-397.709 152.228-397.709 155.424-394.513 155.424-390.57Z" stroke="#935690" stroke-width="1.24154" fill="#D27CCE" transform="matrix(1.00011 0 0 1 408.405 720.091)"/><path d="M219.435-586.552C219.435-582.61 216.239-579.414 212.296-579.414 208.353-579.414 205.157-582.61 205.157-586.552 205.157-590.495 208.353-593.691 212.296-593.691 216.239-593.691 219.435-590.495 219.435-586.552Z" stroke="#935690" stroke-width="1.24154" fill="#D27CCE" transform="matrix(1.00011 0 0 1 408.405 720.091)"/><path d="M450.377-645.433C450.377-641.491 447.181-638.294 443.238-638.294 439.295-638.294 436.099-641.49 436.099-645.433 436.099-649.376 439.295-652.572 443.238-652.572 447.181-652.572 450.377-649.376 450.377-645.433Z" stroke="#935690" stroke-width="1.24154" fill="#D27CCE" transform="matrix(1.00011 0 0 1 408.405 720.091)"/><path d="M167.345-208.827C167.345-204.885 164.149-201.688 160.206-201.688 156.264-201.688 153.067-204.885 153.067-208.827 153.067-212.77 156.264-215.966 160.206-215.966 164.149-215.966 167.345-212.77 167.345-208.827Z" stroke="#B2512B" stroke-width="1.24154" fill="#FF743E" transform="matrix(1.00011 0 0 1 408.405 720.091)"/><path d="M377.961-452.961C377.961-449.018 374.764-445.822 370.822-445.822 366.879-445.822 363.683-449.018 363.683-452.961 363.683-456.903 366.879-460.1 370.822-460.1 374.764-460.1 377.961-456.904 377.961-452.961Z" stroke="#935690" stroke-width="1.24154" fill="#D27CCE" transform="matrix(1.00011 0 0 1 408.405 720.091)"/><path d="M456.775-560.106C456.775-556.163 453.578-552.967 449.636-552.967 445.693-552.967 442.497-556.163 442.497-560.106 442.497-564.048 445.693-567.245 449.636-567.245 453.578-567.245 456.775-564.049 456.775-560.106Z" stroke="#B2512B" stroke-width="1.24154" fill="#FF743E" transform="matrix(1.00011 0 0 1 408.405 720.091)"/><path d="M217.306-171.239C217.306-167.296 214.11-164.1 210.167-164.1 206.225-164.1 203.029-167.296 203.029-171.239 203.029-175.182 206.225-178.378 210.167-178.378 214.11-178.378 217.306-175.182 217.306-171.239Z" stroke="#935690" stroke-width="1.24154" fill="#D27CCE" transform="matrix(1.00011 0 0 1 408.405 720.091)"/><path d="M373.327-308.163C373.327-304.22 370.13-301.024 366.188-301.024 362.245-301.024 359.049-304.22 359.049-308.163 359.049-312.105 362.245-315.301 366.188-315.301 370.13-315.301 373.327-312.105 373.327-308.163Z" stroke="#935690" stroke-width="1.24154" fill="#D27CCE" transform="matrix(1.00011 0 0 1 408.405 720.091)"/><path d="M298.497-652.866C298.497-648.923 295.301-645.727 291.358-645.727 287.416-645.727 284.219-648.923 284.219-652.866 284.219-656.808 287.416-660.004 291.358-660.004 295.301-660.004 298.497-656.808 298.497-652.866Z" stroke="#B2512B" stroke-width="1.24154" fill="#FF743E" transform="matrix(1.00011 0 0 1 408.405 720.091)"/><path d="M618.962-407.938C618.962-403.995 615.766-400.799 611.823-400.799 607.881-400.799 604.685-403.995 604.685-407.938 604.685-411.881 607.881-415.077 611.823-415.077 615.766-415.077 618.962-411.881 618.962-407.938Z" stroke="#B2512B" stroke-width="1.24154" fill="#FF743E" transform="matrix(1.00011 0 0 1 408.405 720.091)"/><path d="M59.9919-670.865C59.9919-666.922 56.7957-663.726 52.853-663.726 48.9104-663.726 45.7142-666.922 45.7142-670.865 45.7142-674.807 48.9104-678.004 52.853-678.004 56.7957-678.004 59.9919-674.807 59.9919-670.865Z" stroke="#935690" stroke-width="1.24154" fill="#D27CCE" transform="matrix(1.00011 0 0 1 408.405 720.091)"/><path d="M627.564-295.146C627.564-291.204 624.367-288.007 620.425-288.007 616.482-288.007 613.286-291.204 613.286-295.146 613.286-299.089 616.482-302.285 620.425-302.285 624.367-302.285 627.564-299.089 627.564-295.146Z" stroke="#935690" stroke-width="1.24154" fill="#D27CCE" transform="matrix(1.00011 0 0 1 408.405 720.091)"/><path d="M134.046-73.1073C134.046-69.1647 130.849-65.9685 126.907-65.9685 122.964-65.9685 119.768-69.1647 119.768-73.1073 119.768-77.05 122.964-80.2462 126.907-80.2462 130.849-80.2462 134.046-77.05 134.046-73.1073Z" stroke="#B2512B" stroke-width="1.24154" fill="#FF743E" transform="matrix(1.00011 0 0 1 408.405 720.091)"/><path d="M8.78717-637.424C8.78717-633.481 5.59101-630.285 1.64834-630.285-2.29433-630.285-5.49049-633.481-5.49049-637.424-5.49049-641.366-2.29433-644.563 1.64834-644.563 5.59101-644.563 8.78717-641.367 8.78717-637.424Z" stroke="#935690" stroke-width="1.24154" fill="#D27CCE" transform="matrix(1.00011 0 0 1 408.405 720.091)"/><path d="M58.3203-605.89C58.3203-601.948 55.1242-598.752 51.1815-598.752 47.2388-598.752 44.0427-601.948 44.0427-605.89 44.0427-609.833 47.2388-613.029 51.1815-613.029 55.1242-613.029 58.3203-609.833 58.3203-605.89Z" stroke="#935690" stroke-width="1.24154" fill="#D27CCE" transform="matrix(1.00011 0 0 1 408.405 720.091)"/><path d="M355.65-627.38C355.65-623.437 352.453-620.241 348.511-620.241 344.568-620.241 341.372-623.437 341.372-627.38 341.372-631.323 344.568-634.519 348.511-634.519 352.453-634.519 355.65-631.323 355.65-627.38Z" stroke="#B2512B" stroke-width="1.24154" fill="#FF743E" transform="matrix(1.00011 0 0 1 408.405 720.091)"/><path d="M-28.1505-593.42C-28.1505-589.477-31.3466-586.281-35.2893-586.281-39.232-586.281-42.4281-589.477-42.4281-593.42-42.4281-597.363-39.232-600.559-35.2893-600.559-31.3466-600.559-28.1505-597.363-28.1505-593.42Z" stroke="#935690" stroke-width="1.24154" fill="#D27CCE" transform="matrix(1.00011 0 0 1 408.405 720.091)"/><path d="M115.891-629.591C115.891-625.649 112.695-622.452 108.752-622.452 104.81-622.452 101.613-625.649 101.613-629.591 101.613-633.534 104.81-636.73 108.752-636.73 112.695-636.73 115.891-633.534 115.891-629.591Z" stroke="#935690" stroke-width="1.24154" fill="#D27CCE" transform="matrix(1.00011 0 0 1 408.405 720.091)"/><path d="M283.645-711.743C283.645-707.801 280.449-704.605 276.507-704.605 272.564-704.605 269.368-707.801 269.368-711.743 269.368-715.686 272.564-718.882 276.507-718.882 280.449-718.882 283.645-715.686 283.645-711.743Z" stroke="#935690" stroke-width="1.24154" fill="#D27CCE" transform="matrix(1.00011 0 0 1 408.405 720.091)"/><path d="M78.8438-387.182C78.8438-383.239 75.6476-380.043 71.7049-380.043 67.7623-380.043 64.5661-383.239 64.5661-387.182 64.5661-391.124 67.7623-394.32 71.7049-394.32 75.6476-394.32 78.8438-391.124 78.8438-387.182Z" stroke="#935690" stroke-width="1.24154" fill="#D27CCE" transform="matrix(1.00011 0 0 1 408.405 720.091)"/><path d="M174.716-644.726C174.716-640.784 171.52-637.588 167.578-637.588 163.635-637.588 160.439-640.784 160.439-644.726 160.439-648.669 163.635-651.865 167.578-651.865 171.52-651.865 174.716-648.669 174.716-644.726Z" stroke="#935690" stroke-width="1.24154" fill="#D27CCE" transform="matrix(1.00011 0 0 1 408.405 720.091)"/><path d="M113.383-693.024C113.383-689.081 110.187-685.885 106.244-685.885 102.301-685.885 99.1052-689.081 99.1052-693.024 99.1052-696.967 102.301-700.163 106.244-700.163 110.187-700.163 113.383-696.967 113.383-693.024Z" stroke="#935690" stroke-width="1.24154" fill="#D27CCE" transform="matrix(1.00011 0 0 1 408.405 720.091)"/><path d="M111.567-331.869C111.567-327.927 108.37-324.73 104.428-324.73 100.485-324.73 97.289-327.927 97.289-331.869 97.289-335.812 100.485-339.008 104.428-339.008 108.37-339.008 111.567-335.812 111.567-331.869Z" stroke="#935690" stroke-width="1.24154" fill="#D27CCE" transform="matrix(1.00011 0 0 1 408.405 720.091)"/><path d="M157.617-576.417C157.617-572.474 154.421-569.278 150.478-569.278 146.535-569.278 143.339-572.474 143.339-576.417 143.339-580.36 146.535-583.556 150.478-583.556 154.421-583.556 157.617-580.36 157.617-576.417Z" stroke="#935690" stroke-width="1.24154" fill="#D27CCE" transform="matrix(1.00011 0 0 1 408.405 720.091)"/><path d="M168.078-706.974C168.078-703.031 164.882-699.835 160.94-699.835 156.997-699.835 153.801-703.031 153.801-706.974 153.801-710.917 156.997-714.113 160.94-714.113 164.882-714.113 168.078-710.917 168.078-706.974Z" stroke="#935690" stroke-width="1.24154" fill="#D27CCE" transform="matrix(1.00011 0 0 1 408.405 720.091)"/><path d="M185.524-332.414C185.524-328.471 182.328-325.275 178.386-325.275 174.443-325.275 171.247-328.471 171.247-332.414 171.247-336.357 174.443-339.553 178.386-339.553 182.328-339.553 185.524-336.357 185.524-332.414Z" stroke="#935690" stroke-width="1.24154" fill="#D27CCE" transform="matrix(1.00011 0 0 1 408.405 720.091)"/><path d="M-55.1748-544.824C-55.1748-540.881-58.371-537.685-62.3137-537.685-66.2563-537.685-69.4525-540.881-69.4525-544.824-69.4525-548.766-66.2563-551.962-62.3137-551.962-58.371-551.962-55.1748-548.766-55.1748-544.824Z" stroke="#935690" stroke-width="1.24154" fill="#D27CCE" transform="matrix(1.00011 0 0 1 408.405 720.091)"/><path d="M345.531-697.439C345.531-693.497 342.334-690.301 338.392-690.301 334.449-690.301 331.253-693.497 331.253-697.439 331.253-701.382 334.449-704.578 338.392-704.578 342.334-704.578 345.531-701.382 345.531-697.439Z" stroke="#935690" stroke-width="1.24154" fill="#D27CCE" transform="matrix(1.00011 0 0 1 408.405 720.091)"/><path d="M284.062-592.661C284.062-588.719 280.866-585.523 276.923-585.523 272.981-585.523 269.785-588.719 269.785-592.661 269.785-596.604 272.981-599.8 276.923-599.8 280.866-599.8 284.062-596.604 284.062-592.661Z" stroke="#B2512B" stroke-width="1.24154" fill="#FF743E" transform="matrix(1.00011 0 0 1 408.405 720.091)"/><path d="M69.1744-272.52C69.1744-268.577 65.9783-265.381 62.0356-265.381 58.0929-265.381 54.8968-268.577 54.8968-272.52 54.8968-276.462 58.0929-279.659 62.0356-279.659 65.9783-279.659 69.1744-276.462 69.1744-272.52Z" stroke="#935690" stroke-width="1.24154" fill="#D27CCE" transform="matrix(1.00011 0 0 1 408.405 720.091)"/><path d="M400.453-674.071C400.453-670.128 397.257-666.932 393.314-666.932 389.372-666.932 386.176-670.128 386.176-674.071 386.176-678.013 389.372-681.21 393.314-681.21 397.257-681.21 400.453-678.013 400.453-674.071Z" stroke="#935690" stroke-width="1.24154" fill="#D27CCE" transform="matrix(1.00011 0 0 1 408.405 720.091)"/><path d="M326.002-493.492C326.002-489.549 322.806-486.353 318.863-486.353 314.92-486.353 311.724-489.549 311.724-493.492 311.724-497.435 314.92-500.631 318.863-500.631 322.806-500.631 326.002-497.435 326.002-493.492Z" stroke="#935690" stroke-width="1.24154" fill="#D27CCE" transform="matrix(1.00011 0 0 1 408.405 720.091)"/><path d="M139.16-272.44C139.16-268.497 135.963-265.301 132.021-265.301 128.078-265.301 124.882-268.497 124.882-272.44 124.882-276.383 128.078-279.579 132.021-279.579 135.963-279.579 139.16-276.383 139.16-272.44Z" stroke="#935690" stroke-width="1.24154" fill="#D27CCE" transform="matrix(1.00011 0 0 1 408.405 720.091)"/><path d="M-29.6725-321.44C-29.6725-317.497-32.8687-314.301-36.8114-314.301-40.754-314.301-43.9502-317.497-43.9502-321.44-43.9502-325.383-40.754-328.579-36.8114-328.579-32.8687-328.579-29.6725-325.383-29.6725-321.44Z" stroke="#935690" stroke-width="1.24154" fill="#D27CCE" transform="matrix(1.00011 0 0 1 408.405 720.091)"/><path d="M369.987-378.551C369.987-374.609 366.79-371.412 362.848-371.412 358.905-371.412 355.709-374.609 355.709-378.551 355.709-382.494 358.905-385.69 362.848-385.69 366.79-385.69 369.987-382.494 369.987-378.551Z" stroke="#935690" stroke-width="1.24154" fill="#D27CCE" transform="matrix(1.00011 0 0 1 408.405 720.091)"/><path d="M188.143-448.563C188.143-444.621 184.947-441.425 181.004-441.425 177.061-441.425 173.865-444.621 173.865-448.563 173.865-452.506 177.061-455.702 181.004-455.702 184.947-455.702 188.143-452.506 188.143-448.563Z" stroke="#B2512B" stroke-width="1.24154" fill="#FF743E" transform="matrix(1.00011 0 0 1 408.405 720.091)"/><path d="M28.6326-216.289C28.6326-212.346 25.4364-209.15 21.4938-209.15 17.5511-209.15 14.3549-212.346 14.3549-216.289 14.3549-220.232 17.5511-223.428 21.4938-223.428 25.4364-223.428 28.6326-220.232 28.6326-216.289Z" stroke="#935690" stroke-width="1.24154" fill="#D27CCE" transform="matrix(1.00011 0 0 1 408.405 720.091)"/><path d="M500.142-517.201C500.142-513.258 496.946-510.062 493.003-510.062 489.061-510.062 485.865-513.258 485.865-517.201 485.865-521.143 489.061-524.339 493.003-524.339 496.946-524.339 500.142-521.143 500.142-517.201Z" stroke="#935690" stroke-width="1.24154" fill="#D27CCE" transform="matrix(1.00011 0 0 1 408.405 720.091)"/><path d="M254.618-459.494C254.618-455.552 251.422-452.355 247.48-452.355 243.537-452.355 240.341-455.552 240.341-459.494 240.341-463.437 243.537-466.633 247.48-466.633 251.422-466.633 254.618-463.437 254.618-459.494Z" stroke="#935690" stroke-width="1.24154" fill="#D27CCE" transform="matrix(1.00011 0 0 1 408.405 720.091)"/><path d="M64.2508-504.081C64.2508-500.138 61.0546-496.942 57.1119-496.942 53.1693-496.942 49.9731-500.138 49.9731-504.081 49.9731-508.023 53.1693-511.22 57.1119-511.22 61.0546-511.22 64.2508-508.023 64.2508-504.081Z" stroke="#935690" stroke-width="1.24154" fill="#D27CCE" transform="matrix(1.00011 0 0 1 408.405 720.091)"/><path d="M603.337-465.513C603.337-461.57 600.141-458.374 596.198-458.374 592.255-458.374 589.059-461.57 589.059-465.513 589.059-469.456 592.255-472.652 596.198-472.652 600.141-472.652 603.337-469.456 603.337-465.513Z" stroke="#B2512B" stroke-width="1.24154" fill="#FF743E" transform="matrix(1.00011 0 0 1 408.405 720.091)"/><path d="M440.949-485.878C440.949-481.935 437.753-478.739 433.81-478.739 429.867-478.739 426.671-481.935 426.671-485.878 426.671-489.821 429.867-493.017 433.81-493.017 437.753-493.017 440.949-489.821 440.949-485.878Z" stroke="#935690" stroke-width="1.24154" fill="#D27CCE" transform="matrix(1.00011 0 0 1 408.405 720.091)"/><path d="M38.7412-328.367C38.7412-324.424 35.545-321.228 31.6023-321.228 27.6597-321.228 24.4635-324.424 24.4635-328.367 24.4635-332.31 27.6597-335.506 31.6023-335.506 35.545-335.506 38.7412-332.31 38.7412-328.367Z" stroke="#935690" stroke-width="1.24154" fill="#D27CCE" transform="matrix(1.00011 0 0 1 408.405 720.091)"/><path d="M627.732-351.635C627.732-347.692 624.536-344.496 620.594-344.496 616.651-344.496 613.455-347.692 613.455-351.635 613.455-355.577 616.651-358.774 620.594-358.774 624.536-358.774 627.732-355.577 627.732-351.635Z" stroke="#487925" stroke-width="1.24154" fill="#68AD36" transform="matrix(1.00011 0 0 1 408.405 720.091)"/><path d="M542.192-470.143C542.192-466.2 538.995-463.004 535.053-463.004 531.11-463.004 527.914-466.2 527.914-470.143 527.914-474.085 531.11-477.282 535.053-477.282 538.995-477.282 542.192-474.085 542.192-470.143Z" stroke="#487925" stroke-width="1.24154" fill="#68AD36" transform="matrix(1.00011 0 0 1 408.405 720.091)"/><path d="M235.399-651.299C235.399-647.357 232.203-644.161 228.261-644.161 224.318-644.161 221.122-647.357 221.122-651.299 221.122-655.242 224.318-658.438 228.261-658.438 232.203-658.438 235.399-655.242 235.399-651.299Z" stroke="#935690" stroke-width="1.24154" fill="#D27CCE" transform="matrix(1.00011 0 0 1 408.405 720.091)"/><path d="M558.925-226.22C558.925-222.277 555.729-219.081 551.786-219.081 547.844-219.081 544.647-222.277 544.647-226.22 544.647-230.163 547.844-233.359 551.786-233.359 555.729-233.359 558.925-230.163 558.925-226.22Z" stroke="#935690" stroke-width="1.24154" fill="#D27CCE" transform="matrix(1.00011 0 0 1 408.405 720.091)"/><path d="M556.484-408.289C556.484-404.347 553.287-401.15 549.345-401.15 545.402-401.15 542.206-404.346 542.206-408.289 542.206-412.232 545.402-415.428 549.345-415.428 553.287-415.428 556.484-412.232 556.484-408.289Z" stroke="#935690" stroke-width="1.24154" fill="#D27CCE" transform="matrix(1.00011 0 0 1 408.405 720.091)"/><path d="M393.674-527.426C393.674-523.484 390.478-520.288 386.535-520.288 382.592-520.288 379.396-523.484 379.396-527.426 379.396-531.369 382.592-534.565 386.535-534.565 390.478-534.565 393.674-531.369 393.674-527.426Z" stroke="#935690" stroke-width="1.24154" fill="#D27CCE" transform="matrix(1.00011 0 0 1 408.405 720.091)"/><path d="M520.81-177.938C520.81-173.996 517.614-170.799 513.672-170.799 509.729-170.799 506.533-173.996 506.533-177.938 506.533-181.881 509.729-185.077 513.672-185.077 517.614-185.077 520.81-181.881 520.81-177.938Z" stroke="#935690" stroke-width="1.24154" fill="#D27CCE" transform="matrix(1.00011 0 0 1 408.405 720.091)"/><path d="M619.652-237.59C619.652-233.647 616.456-230.451 612.514-230.451 608.571-230.451 605.375-233.647 605.375-237.59 605.375-241.533 608.571-244.729 612.514-244.729 616.456-244.729 619.652-241.533 619.652-237.59Z" stroke="#935690" stroke-width="1.24154" fill="#D27CCE" transform="matrix(1.00011 0 0 1 408.405 720.091)"/><path d="M573.562-523.488C573.562-519.545 570.366-516.349 566.424-516.349 562.481-516.349 559.285-519.545 559.285-523.488 559.285-527.431 562.481-530.627 566.424-530.627 570.366-530.627 573.562-527.431 573.562-523.488Z" stroke="#B2512B" stroke-width="1.24154" fill="#FF743E" transform="matrix(1.00011 0 0 1 408.405 720.091)"/><path d="M45.9523-444.641C45.9523-440.698 42.7562-437.502 38.8135-437.502 34.8708-437.502 31.6747-440.698 31.6747-444.641 31.6747-448.584 34.8708-451.78 38.8135-451.78 42.7562-451.78 45.9523-448.584 45.9523-444.641Z" stroke="#B2512B" stroke-width="1.24154" fill="#FF743E" transform="matrix(1.00011 0 0 1 408.405 720.091)"/><path d="M563.097-133.196C563.097-129.253 559.901-126.057 555.958-126.057 552.016-126.057 548.82-129.253 548.82-133.196 548.82-137.139 552.016-140.335 555.958-140.335 559.901-140.335 563.097-137.139 563.097-133.196Z" stroke="#935690" stroke-width="1.24154" fill="#D27CCE" transform="matrix(1.00011 0 0 1 408.405 720.091)"/><path d="M431.013-409.87C431.013-405.927 427.817-402.731 423.874-402.731 419.931-402.731 416.735-405.927 416.735-409.87 416.735-413.813 419.931-417.009 423.874-417.009 427.817-417.009 431.013-413.813 431.013-409.87Z" stroke="#935690" stroke-width="1.24154" fill="#D27CCE" transform="matrix(1.00011 0 0 1 408.405 720.091)"/><path d="M8.48173-383.385C8.48173-379.443 5.28557-376.247 1.3429-376.247-2.59977-376.247-5.79593-379.443-5.79593-383.385-5.79593-387.328-2.59977-390.524 1.3429-390.524 5.28557-390.524 8.48173-387.328 8.48173-383.385Z" stroke="#935690" stroke-width="1.24154" fill="#D27CCE" transform="matrix(1.00011 0 0 1 408.405 720.091)"/><path d="M179.409-117.505C179.409-113.562 176.212-110.366 172.27-110.366 168.327-110.366 165.131-113.562 165.131-117.505 165.131-121.447 168.327-124.644 172.27-124.644 176.212-124.644 179.409-121.447 179.409-117.505Z" stroke="#935690" stroke-width="1.24154" fill="#D27CCE" transform="matrix(1.00011 0 0 1 408.405 720.091)"/><path d="M-0.0235419-269.819C-0.0235419-265.876-3.21971-262.68-7.16237-262.68-11.105-262.68-14.3012-265.876-14.3012-269.819-14.3012-273.761-11.105-276.958-7.16238-276.958-3.21971-276.958-0.0235426-273.761-0.0235419-269.819Z" stroke="#935690" stroke-width="1.24154" fill="#D27CCE" transform="matrix(1.00011 0 0 1 408.405 720.091)"/><path d="M-15.8493-442.746C-15.8493-438.804-19.0455-435.607-22.9881-435.607-26.9308-435.607-30.127-438.803-30.127-442.746-30.127-446.689-26.9308-449.885-22.9881-449.885-19.0455-449.885-15.8493-446.689-15.8493-442.746Z" stroke="#935690" stroke-width="1.24154" fill="#D27CCE" transform="matrix(1.00011 0 0 1 408.405 720.091)"/><path d="M-73.0867-430.864C-73.0867-426.921-76.2829-423.725-80.2255-423.725-84.1682-423.725-87.3644-426.921-87.3644-430.864-87.3644-434.807-84.1682-438.003-80.2255-438.003-76.2829-438.003-73.0867-434.807-73.0867-430.864Z" stroke="#B2512B" stroke-width="1.24154" fill="#FF743E" transform="matrix(1.00011 0 0 1 408.405 720.091)"/><path d="M97.9528-213.868C97.9528-209.925 94.7566-206.729 90.8139-206.729 86.8713-206.729 83.6751-209.925 83.6751-213.868 83.6751-217.811 86.8713-221.007 90.8139-221.007 94.7566-221.007 97.9528-217.811 97.9528-213.868Z" stroke="#935690" stroke-width="1.24154" fill="#D27CCE" transform="matrix(1.00011 0 0 1 408.405 720.091)"/><path d="M359.469-33.3609C359.469-29.4182 356.273-26.222 352.33-26.222 348.387-26.222 345.191-29.4182 345.191-33.3609 345.191-37.3035 348.387-40.4997 352.33-40.4997 356.273-40.4997 359.469-37.3035 359.469-33.3609Z" stroke="#935690" stroke-width="1.24154" fill="#D27CCE" transform="matrix(1.00011 0 0 1 408.405 720.091)"/><path d="M-4.58367-503.119C-4.58367-499.176-7.77983-495.98-11.7225-495.98-15.6652-495.98-18.8613-499.176-18.8613-503.119-18.8613-507.061-15.6652-510.258-11.7225-510.258-7.77983-510.258-4.58367-507.061-4.58367-503.119Z" stroke="#487925" stroke-width="1.24154" fill="#68AD36" transform="matrix(1.00011 0 0 1 408.405 720.091)"/><path d="M-54.928-374.34C-54.928-370.397-58.1242-367.201-62.0668-367.201-66.0095-367.201-69.2057-370.397-69.2057-374.34-69.2057-378.283-66.0095-381.479-62.0668-381.479-58.1242-381.479-54.928-378.283-54.928-374.34Z" stroke="#935690" stroke-width="1.24154" fill="#D27CCE" transform="matrix(1.00011 0 0 1 408.405 720.091)"/><path d="M495.535-610.868C495.535-606.925 492.339-603.729 488.396-603.729 484.454-603.729 481.257-606.925 481.257-610.868 481.257-614.81 484.454-618.007 488.396-618.007 492.339-618.007 495.535-614.81 495.535-610.868Z" stroke="#487925" stroke-width="1.24154" fill="#68AD36" transform="matrix(1.00011 0 0 1 408.405 720.091)"/><path d="M187.681-49.1629C187.681-45.2202 184.484-42.024 180.542-42.024 176.599-42.024 173.403-45.2202 173.403-49.1629 173.403-53.1055 176.599-56.3017 180.542-56.3017 184.484-56.3017 187.681-53.1055 187.681-49.1629Z" stroke="#487925" stroke-width="1.24154" fill="#68AD36" transform="matrix(1.00011 0 0 1 408.405 720.091)"/><path d="M-69.8495-490.275C-69.8495-486.333-73.0457-483.136-76.9884-483.136-80.931-483.136-84.1272-486.332-84.1272-490.275-84.1272-494.218-80.931-497.414-76.9884-497.414-73.0457-497.414-69.8495-494.218-69.8495-490.275Z" stroke="#935690" stroke-width="1.24154" fill="#D27CCE" transform="matrix(1.00011 0 0 1 408.405 720.091)"/><path d="M535.896-569.999C535.896-566.057 532.7-562.86 528.757-562.86 524.814-562.86 521.618-566.057 521.618-569.999 521.618-573.942 524.814-577.138 528.757-577.138 532.7-577.138 535.896-573.942 535.896-569.999Z" stroke="#008098" stroke-width="1.24154" fill="#00B7DA" transform="matrix(1.00011 0 0 1 408.405 720.091)"/><path d="M565.727-287.496C565.727-283.553 562.531-280.357 558.588-280.357 554.645-280.357 551.449-283.553 551.449-287.496 551.449-291.438 554.645-294.635 558.588-294.635 562.531-294.635 565.727-291.438 565.727-287.496Z" stroke="#B2512B" stroke-width="1.24154" fill="#FF743E" transform="matrix(1.00011 0 0 1 408.405 720.091)"/><path d="M224.551-712.362C224.551-708.419 221.355-705.223 217.412-705.223 213.47-705.223 210.273-708.419 210.273-712.362 210.273-716.304 213.47-719.5 217.412-719.5 221.355-719.5 224.551-716.304 224.551-712.362Z" stroke="#487925" stroke-width="1.24154" fill="#68AD36" transform="matrix(1.00011 0 0 1 408.405 720.091)"/><path d="M56.8001-162.178C56.8001-158.235 53.6039-155.039 49.6613-155.039 45.7186-155.039 42.5224-158.235 42.5224-162.178 42.5224-166.12 45.7186-169.317 49.6613-169.317 53.6039-169.317 56.8001-166.12 56.8001-162.178Z" stroke="#487925" stroke-width="1.24154" fill="#68AD36" transform="matrix(1.00011 0 0 1 408.405 720.091)"/><path d="M130.638-155.744C130.638-151.801 127.442-148.605 123.499-148.605 119.557-148.605 116.36-151.801 116.36-155.744 116.36-159.687 119.557-162.883 123.499-162.883 127.442-162.883 130.638-159.687 130.638-155.744Z" stroke="#935690" stroke-width="1.24154" fill="#D27CCE" transform="matrix(1.00011 0 0 1 408.405 720.091)"/><path d="M88.7062-110.962C88.7062-107.019 85.51-103.823 81.5674-103.823 77.6247-103.823 74.4286-107.019 74.4286-110.962 74.4286-114.905 77.6247-118.101 81.5674-118.101 85.51-118.101 88.7062-114.905 88.7062-110.962Z" stroke="#487925" stroke-width="1.24154" fill="#68AD36" transform="matrix(1.00011 0 0 1 408.405 720.091)"/></g></svg>